{"glyphs":{"0":{"ha":829,"x_min":46,"x_max":782,"o":"m 415 -22 q 228 38 313 -22 q 95 212 144 97 q 46 486 46 326 q 95 760 46 646 q 228 935 144 875 q 415 994 313 994 q 600 935 517 994 q 733 760 683 875 q 782 486 782 646 q 733 212 782 326 q 600 38 683 97 q 415 -22 517 -22 m 417 6 q 511 127 476 6 q 546 486 546 249 q 511 845 546 724 q 417 967 476 967 q 318 845 354 967 q 282 486 282 724 q 318 127 282 249 q 417 6 354 6 z "},"1":{"ha":769,"x_min":128,"x_max":626,"o":"m 515 972 l 515 0 l 293 0 l 293 860 l 146 776 l 128 797 l 447 972 l 515 972 m 626 28 l 626 0 l 182 0 l 182 28 l 626 28 z "},"2":{"ha":797,"x_min":19,"x_max":689,"o":"m 19 21 q 342 381 228 190 q 457 746 457 571 q 415 911 457 863 q 306 960 372 960 q 217 933 249 960 q 186 874 186 906 q 193 844 186 856 q 214 815 200 833 q 238 782 231 796 q 246 746 246 768 q 222 688 246 708 q 161 668 199 668 q 83 701 114 668 q 51 786 51 733 q 85 892 51 844 q 181 967 119 939 q 325 994 243 994 q 582 920 482 994 q 682 697 682 846 q 606 474 682 583 q 430 285 529 365 q 254 163 331 204 l 586 163 q 642 200 624 163 q 661 306 661 238 l 689 306 l 689 0 l 31 0 l 19 21 z "},"3":{"ha":779,"x_min":25,"x_max":694,"o":"m 271 517 q 406 576 357 517 q 454 729 454 635 q 405 897 454 839 q 282 954 356 954 q 203 933 231 954 q 175 885 175 911 q 182 854 175 867 q 201 824 189 842 q 224 789 217 804 q 232 751 232 774 q 208 693 232 714 q 147 672 185 672 q 71 703 100 672 q 42 785 42 735 q 74 884 42 836 q 172 963 107 932 q 333 994 238 994 q 498 965 421 994 q 621 881 575 936 q 667 753 667 826 q 583 589 667 656 q 381 501 499 522 q 604 422 514 485 q 694 247 694 360 q 642 101 694 161 q 507 9 590 40 q 329 -22 424 -22 q 140 27 218 -22 q 25 161 63 76 l 61 176 q 149 60 88 108 q 294 11 210 11 q 421 71 371 11 q 471 243 471 131 q 272 489 471 489 l 199 489 l 199 517 l 271 517 z "},"4":{"ha":797,"x_min":28,"x_max":739,"o":"m 49 243 l 28 261 l 560 990 l 628 990 l 628 0 l 406 0 l 406 738 l 49 243 m 739 28 l 739 0 l 294 0 l 294 28 l 739 28 m 739 261 l 739 233 l 28 233 l 28 261 l 739 261 z "},"5":{"ha":808,"x_min":63,"x_max":717,"o":"m 169 818 l 142 536 q 232 625 169 581 q 389 669 294 669 q 547 631 472 669 q 669 518 622 593 q 717 340 717 443 q 662 142 717 224 q 518 19 607 60 q 326 -22 429 -22 q 185 6 244 -22 q 94 81 125 33 q 63 186 63 128 q 91 269 63 238 q 164 301 119 301 q 222 281 199 301 q 244 222 244 260 q 238 187 244 201 q 218 157 231 172 q 198 124 204 138 q 192 90 192 110 q 222 31 192 51 q 297 11 253 11 q 392 42 346 11 q 471 147 439 72 q 503 347 503 222 q 465 553 503 479 q 346 626 426 626 q 224 578 279 626 q 138 472 169 531 l 106 472 l 150 972 l 349 972 l 349 818 l 169 818 m 349 972 l 546 972 q 635 984 611 972 q 658 1025 658 996 l 683 1025 l 683 818 l 349 818 l 349 972 z "},"6":{"ha":794,"x_min":49,"x_max":751,"o":"m 529 292 q 494 492 529 418 q 404 565 460 565 q 303 483 335 565 q 272 293 272 401 q 304 78 272 151 q 400 6 336 6 q 494 78 460 6 q 529 292 529 150 m 49 388 q 124 686 49 558 q 320 890 199 814 q 583 994 442 967 l 600 965 q 443 878 515 946 q 328 718 371 811 q 281 532 285 625 q 356 599 307 574 q 467 625 404 625 q 615 588 550 625 q 715 483 679 550 q 751 332 751 415 q 701 134 751 214 q 572 16 651 54 q 404 -22 493 -22 q 215 28 294 -22 q 92 170 135 78 q 49 388 49 263 z "},"7":{"ha":851,"x_min":100,"x_max":746,"o":"m 711 897 q 525 485 581 617 q 464 292 469 353 q 453 175 453 224 l 454 142 q 456 83 457 108 q 428 5 454 32 q 357 -22 403 -22 q 288 3 319 -22 q 256 79 256 28 q 280 160 256 115 q 364 300 304 206 q 514 549 449 433 q 642 818 579 664 l 225 818 q 157 787 186 818 q 128 694 128 756 l 100 694 l 100 972 l 746 972 l 711 897 z "},"8":{"ha":858,"x_min":58,"x_max":799,"o":"m 431 547 q 511 599 481 547 q 542 754 542 650 q 510 911 542 856 q 431 967 479 967 q 347 912 379 967 q 315 754 315 857 q 347 598 315 649 q 431 547 378 547 m 58 260 q 139 442 58 371 q 344 533 219 514 q 165 610 235 551 q 94 761 94 669 q 140 886 94 833 q 263 967 186 939 q 429 994 340 994 q 594 967 518 994 q 717 886 671 939 q 763 761 763 833 q 693 611 763 671 q 517 533 624 551 q 719 442 639 514 q 799 260 799 371 q 747 107 799 171 q 611 10 696 43 q 429 -22 526 -22 q 246 10 331 -22 q 110 107 161 43 q 58 260 58 171 m 281 265 q 322 72 281 138 q 431 6 364 6 q 535 72 494 6 q 576 265 576 138 q 535 456 576 392 q 431 519 494 519 q 322 456 364 519 q 281 265 281 392 z "},"9":{"ha":796,"x_min":42,"x_max":744,"o":"m 264 681 q 299 478 264 549 q 400 407 335 407 q 495 487 469 407 q 521 679 521 567 q 393 961 521 961 q 299 892 333 961 q 264 681 264 822 m 744 585 q 669 285 744 414 q 472 81 593 157 q 210 -22 350 4 l 196 7 q 351 94 279 26 q 465 254 422 161 q 513 440 508 347 q 326 347 456 347 q 178 385 243 347 q 78 490 114 422 q 42 640 42 557 q 92 838 42 758 q 221 956 142 918 q 389 994 300 994 q 578 944 499 994 q 701 802 658 894 q 744 585 744 710 z "}," ":{"ha":367,"x_min":0,"x_max":0,"o":""},"A":{"ha":1008,"x_min":-29,"x_max":1038,"o":"m 632 972 l 926 0 l 697 0 l 403 972 l 632 972 m 540 972 l 540 944 l 281 944 l 281 972 l 540 972 m 1038 28 l 1038 0 l 586 0 l 586 28 l 1038 28 m 114 0 l 82 0 l 392 972 l 424 972 l 114 0 m 225 0 l -29 0 l -29 28 l 225 28 l 225 0 m 713 381 l 224 381 l 224 408 l 713 408 l 713 381 z "},"Á":{"ha":1008,"x_min":-29,"x_max":1038,"o":"m 632 972 l 926 0 l 697 0 l 403 972 l 632 972 m 540 972 l 540 944 l 281 944 l 281 972 l 540 972 m 1038 28 l 1038 0 l 586 0 l 586 28 l 1038 28 m 114 0 l 82 0 l 392 972 l 424 972 l 114 0 m 225 0 l -29 0 l -29 28 l 225 28 l 225 0 m 713 381 l 224 381 l 224 408 l 713 408 l 713 381 m 425 1038 l 406 1038 l 504 1236 q 571 1297 536 1297 q 602 1285 590 1297 q 614 1254 614 1274 q 607 1233 614 1244 q 592 1214 600 1222 l 425 1038 z "},"Ă":{"ha":1008,"x_min":-29,"x_max":1038,"o":"m 632 972 l 926 0 l 697 0 l 403 972 l 632 972 m 540 972 l 540 944 l 281 944 l 281 972 l 540 972 m 1038 28 l 1038 0 l 586 0 l 586 28 l 1038 28 m 114 0 l 82 0 l 392 972 l 424 972 l 114 0 m 225 0 l -29 0 l -29 28 l 225 28 l 225 0 m 713 381 l 224 381 l 224 408 l 713 408 l 713 381 m 696 1258 q 644 1100 696 1163 q 501 1038 592 1038 q 359 1100 411 1038 q 307 1258 307 1163 l 343 1258 q 378 1162 343 1204 q 500 1119 413 1119 q 624 1162 588 1119 q 660 1258 660 1204 l 696 1258 z "},"Ắ":{"ha":1008,"x_min":-29,"x_max":1038,"o":"m 632 972 l 926 0 l 697 0 l 403 972 l 632 972 m 540 972 l 540 944 l 281 944 l 281 972 l 540 972 m 1038 28 l 1038 0 l 586 0 l 586 28 l 1038 28 m 114 0 l 82 0 l 392 972 l 424 972 l 114 0 m 225 0 l -29 0 l -29 28 l 225 28 l 225 0 m 713 381 l 224 381 l 224 408 l 713 408 l 713 381 m 696 1258 q 644 1100 696 1163 q 501 1038 592 1038 q 359 1100 411 1038 q 307 1258 307 1163 l 343 1258 q 378 1162 343 1204 q 500 1119 413 1119 q 624 1162 588 1119 q 660 1258 660 1204 l 696 1258 m 425 1308 l 406 1308 l 504 1507 q 571 1568 536 1568 q 602 1556 590 1568 q 614 1525 614 1544 q 607 1504 614 1515 q 592 1485 600 1493 l 425 1308 z "},"Ặ":{"ha":1008,"x_min":-29,"x_max":1038,"o":"m 632 972 l 926 0 l 697 0 l 403 972 l 632 972 m 540 972 l 540 944 l 281 944 l 281 972 l 540 972 m 1038 28 l 1038 0 l 586 0 l 586 28 l 1038 28 m 114 0 l 82 0 l 392 972 l 424 972 l 114 0 m 225 0 l -29 0 l -29 28 l 225 28 l 225 0 m 713 381 l 224 381 l 224 408 l 713 408 l 713 381 m 407 -300 q 350 -276 374 -300 q 326 -219 326 -253 q 350 -163 326 -186 q 407 -140 374 -140 q 463 -163 439 -140 q 486 -219 486 -186 q 463 -276 486 -253 q 407 -300 439 -300 m 696 1258 q 644 1100 696 1163 q 501 1038 592 1038 q 359 1100 411 1038 q 307 1258 307 1163 l 343 1258 q 378 1162 343 1204 q 500 1119 413 1119 q 624 1162 588 1119 q 660 1258 660 1204 l 696 1258 z "},"Ằ":{"ha":1008,"x_min":-29,"x_max":1038,"o":"m 632 972 l 926 0 l 697 0 l 403 972 l 632 972 m 540 972 l 540 944 l 281 944 l 281 972 l 540 972 m 1038 28 l 1038 0 l 586 0 l 586 28 l 1038 28 m 114 0 l 82 0 l 392 972 l 424 972 l 114 0 m 225 0 l -29 0 l -29 28 l 225 28 l 225 0 m 713 381 l 224 381 l 224 408 l 713 408 l 713 381 m 696 1258 q 644 1100 696 1163 q 501 1038 592 1038 q 359 1100 411 1038 q 307 1258 307 1163 l 343 1258 q 378 1162 343 1204 q 500 1119 413 1119 q 624 1162 588 1119 q 660 1258 660 1204 l 696 1258 m 411 1485 q 390 1525 390 1508 q 402 1556 390 1544 q 433 1568 414 1568 q 469 1551 454 1568 q 499 1507 485 1533 l 603 1308 l 583 1308 l 411 1485 z "},"Ẳ":{"ha":1008,"x_min":-29,"x_max":1038,"o":"m 632 972 l 926 0 l 697 0 l 403 972 l 632 972 m 540 972 l 540 944 l 281 944 l 281 972 l 540 972 m 1038 28 l 1038 0 l 586 0 l 586 28 l 1038 28 m 114 0 l 82 0 l 392 972 l 424 972 l 114 0 m 225 0 l -29 0 l -29 28 l 225 28 l 225 0 m 713 381 l 224 381 l 224 408 l 713 408 l 713 381 m 696 1258 q 644 1100 696 1163 q 501 1038 592 1038 q 359 1100 411 1038 q 307 1258 307 1163 l 343 1258 q 378 1162 343 1204 q 500 1119 413 1119 q 624 1162 588 1119 q 660 1258 660 1204 l 696 1258 m 253 1536 q 354 1565 304 1565 q 419 1549 390 1565 q 467 1501 449 1533 q 485 1435 485 1469 q 459 1355 485 1393 q 392 1293 433 1317 l 381 1311 q 415 1345 400 1324 q 429 1396 429 1367 q 408 1464 429 1428 q 310 1531 371 1531 q 263 1518 282 1531 l 253 1536 z "},"Ẵ":{"ha":1008,"x_min":-29,"x_max":1038,"o":"m 632 972 l 926 0 l 697 0 l 403 972 l 632 972 m 540 972 l 540 944 l 281 944 l 281 972 l 540 972 m 1038 28 l 1038 0 l 586 0 l 586 28 l 1038 28 m 114 0 l 82 0 l 392 972 l 424 972 l 114 0 m 225 0 l -29 0 l -29 28 l 225 28 l 225 0 m 713 381 l 224 381 l 224 408 l 713 408 l 713 381 m 696 1258 q 644 1100 696 1163 q 501 1038 592 1038 q 359 1100 411 1038 q 307 1258 307 1163 l 343 1258 q 378 1162 343 1204 q 500 1119 413 1119 q 624 1162 588 1119 q 660 1258 660 1204 l 696 1258 m 399 1378 q 337 1359 357 1378 q 315 1308 317 1340 l 281 1308 q 404 1463 281 1463 q 451 1453 429 1463 q 510 1426 474 1444 q 566 1399 542 1408 q 614 1390 590 1390 q 667 1410 649 1390 q 688 1461 686 1429 l 722 1461 q 695 1348 722 1388 q 606 1308 668 1308 q 560 1316 581 1308 q 501 1343 539 1324 q 447 1369 469 1360 q 399 1378 424 1378 z "},"Ǎ":{"ha":1008,"x_min":-29,"x_max":1038,"o":"m 632 972 l 926 0 l 697 0 l 403 972 l 632 972 m 540 972 l 540 944 l 281 944 l 281 972 l 540 972 m 1038 28 l 1038 0 l 586 0 l 586 28 l 1038 28 m 114 0 l 82 0 l 392 972 l 424 972 l 114 0 m 225 0 l -29 0 l -29 28 l 225 28 l 225 0 m 713 381 l 224 381 l 224 408 l 713 408 l 713 381 m 547 1038 l 456 1038 l 300 1279 l 342 1279 l 501 1121 l 661 1279 l 703 1279 l 547 1038 z "},"Â":{"ha":1008,"x_min":-29,"x_max":1038,"o":"m 632 972 l 926 0 l 697 0 l 403 972 l 632 972 m 540 972 l 540 944 l 281 944 l 281 972 l 540 972 m 1038 28 l 1038 0 l 586 0 l 586 28 l 1038 28 m 114 0 l 82 0 l 392 972 l 424 972 l 114 0 m 225 0 l -29 0 l -29 28 l 225 28 l 225 0 m 713 381 l 224 381 l 224 408 l 713 408 l 713 381 m 456 1279 l 547 1279 l 703 1038 l 661 1038 l 501 1196 l 342 1038 l 300 1038 l 456 1279 z "},"Ấ":{"ha":1008,"x_min":-29,"x_max":1038,"o":"m 632 972 l 926 0 l 697 0 l 403 972 l 632 972 m 540 972 l 540 944 l 281 944 l 281 972 l 540 972 m 1038 28 l 1038 0 l 586 0 l 586 28 l 1038 28 m 114 0 l 82 0 l 392 972 l 424 972 l 114 0 m 225 0 l -29 0 l -29 28 l 225 28 l 225 0 m 713 381 l 224 381 l 224 408 l 713 408 l 713 381 m 456 1279 l 547 1279 l 703 1038 l 661 1038 l 501 1196 l 342 1038 l 300 1038 l 456 1279 m 425 1301 l 406 1301 l 504 1500 q 571 1561 536 1561 q 602 1549 590 1561 q 614 1518 614 1538 q 607 1497 614 1508 q 592 1478 600 1486 l 425 1301 z "},"Ậ":{"ha":1008,"x_min":-29,"x_max":1038,"o":"m 632 972 l 926 0 l 697 0 l 403 972 l 632 972 m 540 972 l 540 944 l 281 944 l 281 972 l 540 972 m 1038 28 l 1038 0 l 586 0 l 586 28 l 1038 28 m 114 0 l 82 0 l 392 972 l 424 972 l 114 0 m 225 0 l -29 0 l -29 28 l 225 28 l 225 0 m 713 381 l 224 381 l 224 408 l 713 408 l 713 381 m 407 -300 q 350 -276 374 -300 q 326 -219 326 -253 q 350 -163 326 -186 q 407 -140 374 -140 q 463 -163 439 -140 q 486 -219 486 -186 q 463 -276 486 -253 q 407 -300 439 -300 m 456 1279 l 547 1279 l 703 1038 l 661 1038 l 501 1196 l 342 1038 l 300 1038 l 456 1279 z "},"Ầ":{"ha":1008,"x_min":-29,"x_max":1038,"o":"m 632 972 l 926 0 l 697 0 l 403 972 l 632 972 m 540 972 l 540 944 l 281 944 l 281 972 l 540 972 m 1038 28 l 1038 0 l 586 0 l 586 28 l 1038 28 m 114 0 l 82 0 l 392 972 l 424 972 l 114 0 m 225 0 l -29 0 l -29 28 l 225 28 l 225 0 m 713 381 l 224 381 l 224 408 l 713 408 l 713 381 m 456 1279 l 547 1279 l 703 1038 l 661 1038 l 501 1196 l 342 1038 l 300 1038 l 456 1279 m 411 1478 q 390 1518 390 1501 q 402 1549 390 1538 q 433 1561 414 1561 q 469 1544 454 1561 q 499 1500 485 1526 l 603 1301 l 583 1301 l 411 1478 z "},"Ẩ":{"ha":1008,"x_min":-29,"x_max":1038,"o":"m 632 972 l 926 0 l 697 0 l 403 972 l 632 972 m 540 972 l 540 944 l 281 944 l 281 972 l 540 972 m 1038 28 l 1038 0 l 586 0 l 586 28 l 1038 28 m 114 0 l 82 0 l 392 972 l 424 972 l 114 0 m 225 0 l -29 0 l -29 28 l 225 28 l 225 0 m 713 381 l 224 381 l 224 408 l 713 408 l 713 381 m 458 1279 l 550 1279 l 706 1038 l 664 1038 l 504 1196 l 344 1038 l 303 1038 l 458 1279 m 257 1536 q 358 1565 308 1565 q 424 1549 394 1565 q 471 1501 453 1533 q 489 1435 489 1469 q 463 1355 489 1393 q 396 1293 438 1317 l 385 1311 q 419 1345 404 1324 q 433 1396 433 1367 q 413 1464 433 1428 q 314 1531 375 1531 q 267 1518 286 1531 l 257 1536 z "},"Ẫ":{"ha":1008,"x_min":-29,"x_max":1038,"o":"m 632 972 l 926 0 l 697 0 l 403 972 l 632 972 m 540 972 l 540 944 l 281 944 l 281 972 l 540 972 m 1038 28 l 1038 0 l 586 0 l 586 28 l 1038 28 m 114 0 l 82 0 l 392 972 l 424 972 l 114 0 m 225 0 l -29 0 l -29 28 l 225 28 l 225 0 m 713 381 l 224 381 l 224 408 l 713 408 l 713 381 m 456 1279 l 547 1279 l 703 1038 l 661 1038 l 501 1196 l 342 1038 l 300 1038 l 456 1279 m 399 1371 q 337 1352 357 1371 q 315 1301 317 1333 l 281 1301 q 404 1456 281 1456 q 451 1447 429 1456 q 510 1419 474 1438 q 566 1392 542 1401 q 614 1383 590 1383 q 667 1403 649 1383 q 688 1454 686 1422 l 722 1454 q 695 1341 722 1381 q 606 1301 668 1301 q 560 1309 581 1301 q 501 1336 539 1317 q 447 1362 469 1353 q 399 1371 424 1371 z "},"Ä":{"ha":1008,"x_min":-29,"x_max":1038,"o":"m 632 972 l 926 0 l 697 0 l 403 972 l 632 972 m 540 972 l 540 944 l 281 944 l 281 972 l 540 972 m 1038 28 l 1038 0 l 586 0 l 586 28 l 1038 28 m 114 0 l 82 0 l 392 972 l 424 972 l 114 0 m 225 0 l -29 0 l -29 28 l 225 28 l 225 0 m 713 381 l 224 381 l 224 408 l 713 408 l 713 381 m 365 1086 q 308 1110 331 1086 q 285 1168 285 1133 q 308 1224 285 1201 q 365 1247 332 1247 q 421 1224 397 1247 q 444 1168 444 1200 q 421 1110 444 1133 q 365 1086 397 1086 m 638 1086 q 581 1110 604 1086 q 557 1168 557 1133 q 581 1224 557 1200 q 638 1247 604 1247 q 693 1224 669 1247 q 717 1168 717 1200 q 693 1110 717 1133 q 638 1086 669 1086 z "},"Ạ":{"ha":1008,"x_min":-29,"x_max":1038,"o":"m 632 972 l 926 0 l 697 0 l 403 972 l 632 972 m 540 972 l 540 944 l 281 944 l 281 972 l 540 972 m 1038 28 l 1038 0 l 586 0 l 586 28 l 1038 28 m 114 0 l 82 0 l 392 972 l 424 972 l 114 0 m 225 0 l -29 0 l -29 28 l 225 28 l 225 0 m 713 381 l 224 381 l 224 408 l 713 408 l 713 381 m 407 -300 q 350 -276 374 -300 q 326 -219 326 -253 q 350 -163 326 -186 q 407 -140 374 -140 q 463 -163 439 -140 q 486 -219 486 -186 q 463 -276 486 -253 q 407 -300 439 -300 z "},"À":{"ha":1008,"x_min":-29,"x_max":1038,"o":"m 632 972 l 926 0 l 697 0 l 403 972 l 632 972 m 540 972 l 540 944 l 281 944 l 281 972 l 540 972 m 1038 28 l 1038 0 l 586 0 l 586 28 l 1038 28 m 114 0 l 82 0 l 392 972 l 424 972 l 114 0 m 225 0 l -29 0 l -29 28 l 225 28 l 225 0 m 713 381 l 224 381 l 224 408 l 713 408 l 713 381 m 411 1214 q 390 1254 390 1238 q 402 1285 390 1274 q 433 1297 414 1297 q 469 1280 454 1297 q 499 1236 485 1263 l 603 1038 l 583 1038 l 411 1214 z "},"Ả":{"ha":1008,"x_min":-29,"x_max":1038,"o":"m 632 972 l 926 0 l 697 0 l 403 972 l 632 972 m 540 972 l 540 944 l 281 944 l 281 972 l 540 972 m 1038 28 l 1038 0 l 586 0 l 586 28 l 1038 28 m 114 0 l 82 0 l 392 972 l 424 972 l 114 0 m 225 0 l -29 0 l -29 28 l 225 28 l 225 0 m 713 381 l 224 381 l 224 408 l 713 408 l 713 381 m 329 1258 q 431 1288 381 1288 q 497 1272 467 1288 q 544 1224 526 1256 q 563 1157 563 1192 q 537 1077 563 1115 q 469 1015 511 1039 l 457 1033 q 491 1067 476 1046 q 506 1118 506 1089 q 485 1186 506 1150 q 388 1253 449 1253 q 340 1240 360 1253 l 329 1258 z "},"Ā":{"ha":1008,"x_min":-29,"x_max":1038,"o":"m 632 972 l 926 0 l 697 0 l 403 972 l 632 972 m 540 972 l 540 944 l 281 944 l 281 972 l 540 972 m 1038 28 l 1038 0 l 586 0 l 586 28 l 1038 28 m 114 0 l 82 0 l 392 972 l 424 972 l 114 0 m 225 0 l -29 0 l -29 28 l 225 28 l 225 0 m 713 381 l 224 381 l 224 408 l 713 408 l 713 381 m 311 1140 l 690 1140 l 690 1088 l 311 1088 l 311 1140 z "},"Ą":{"ha":1008,"x_min":-29,"x_max":1038,"o":"m 632 972 l 926 0 l 697 0 l 403 972 l 632 972 m 540 972 l 540 944 l 281 944 l 281 972 l 540 972 m 1038 28 l 1038 0 l 586 0 l 586 28 l 1038 28 m 114 0 l 82 0 l 392 972 l 424 972 l 114 0 m 225 0 l -29 0 l -29 28 l 225 28 l 225 0 m 713 381 l 224 381 l 224 408 l 713 408 l 713 381 m 900 14 q 756 -147 756 -61 q 775 -188 756 -169 q 829 -207 794 -207 q 885 -196 851 -207 l 907 -225 q 847 -266 886 -246 q 758 -286 807 -286 q 670 -258 701 -286 q 639 -187 639 -229 q 689 -90 639 -143 q 847 14 739 -36 l 900 14 z "},"Å":{"ha":1008,"x_min":-29,"x_max":1038,"o":"m 632 972 l 926 0 l 697 0 l 403 972 l 632 972 m 540 972 l 540 944 l 281 944 l 281 972 l 540 972 m 1038 28 l 1038 0 l 586 0 l 586 28 l 1038 28 m 114 0 l 82 0 l 392 972 l 424 972 l 114 0 m 225 0 l -29 0 l -29 28 l 225 28 l 225 0 m 713 381 l 224 381 l 224 408 l 713 408 l 713 381 m 486 1026 q 381 1063 419 1026 q 342 1156 342 1100 q 381 1247 342 1211 q 486 1283 419 1283 q 590 1247 551 1283 q 628 1156 628 1211 q 590 1063 628 1100 q 486 1026 551 1026 m 486 1046 q 539 1076 519 1046 q 558 1156 558 1107 q 539 1233 558 1203 q 486 1264 519 1264 q 431 1233 451 1264 q 411 1156 411 1203 q 431 1076 411 1107 q 486 1046 450 1046 z "},"Ã":{"ha":1008,"x_min":-29,"x_max":1038,"o":"m 632 972 l 926 0 l 697 0 l 403 972 l 632 972 m 540 972 l 540 944 l 281 944 l 281 972 l 540 972 m 1038 28 l 1038 0 l 586 0 l 586 28 l 1038 28 m 114 0 l 82 0 l 392 972 l 424 972 l 114 0 m 225 0 l -29 0 l -29 28 l 225 28 l 225 0 m 713 381 l 224 381 l 224 408 l 713 408 l 713 381 m 399 1107 q 337 1088 357 1107 q 315 1038 317 1069 l 281 1038 q 404 1192 281 1192 q 451 1183 429 1192 q 510 1156 474 1174 q 566 1128 542 1138 q 614 1119 590 1119 q 667 1139 649 1119 q 688 1190 686 1158 l 722 1190 q 695 1077 722 1117 q 606 1038 668 1038 q 560 1045 581 1038 q 501 1072 539 1053 q 447 1098 469 1089 q 399 1107 424 1107 z "},"Æ":{"ha":1339,"x_min":-29,"x_max":1297,"o":"m 626 972 l 626 944 l 367 944 l 367 972 l 626 972 m 114 0 l 82 0 l 478 972 l 510 972 l 114 0 m 225 0 l -29 0 l -29 28 l 225 28 l 225 0 m 793 381 l 258 381 l 258 408 l 793 408 l 793 381 m 592 972 l 814 972 l 814 0 l 592 0 l 592 972 m 481 972 l 1297 972 l 1297 735 l 1276 735 q 1226 896 1276 847 q 1050 944 1176 944 l 481 944 l 481 972 m 760 506 l 976 506 q 1067 521 1035 506 q 1113 575 1099 536 q 1126 688 1126 614 l 1147 688 l 1147 296 l 1126 296 q 1113 410 1126 371 q 1067 463 1099 449 q 976 478 1035 478 l 760 478 l 760 506 m 1050 28 q 1181 46 1132 28 q 1253 108 1229 64 q 1276 235 1276 153 l 1297 235 l 1297 0 l 481 0 l 481 28 l 1050 28 z "},"B":{"ha":996,"x_min":49,"x_max":918,"o":"m 160 972 l 382 972 l 382 0 l 160 0 l 160 972 m 49 972 l 488 972 q 765 909 664 972 q 865 728 865 846 q 813 589 865 642 q 697 513 761 536 q 585 488 632 490 q 815 413 711 472 q 918 235 918 354 q 543 0 918 0 l 49 0 l 49 28 l 453 28 q 642 81 572 28 q 713 244 713 133 q 626 426 713 382 q 442 471 540 471 l 328 471 l 328 499 l 439 499 q 602 551 539 499 q 665 725 665 604 q 608 890 665 835 q 454 944 550 944 l 49 944 l 49 972 z "},"C":{"ha":1057,"x_min":78,"x_max":976,"o":"m 314 486 q 360 212 314 318 q 481 59 406 106 q 647 13 556 13 q 853 87 772 13 q 949 283 935 161 l 976 283 l 976 18 l 942 18 q 914 65 942 65 q 885 59 901 65 q 851 43 869 53 q 731 -4 793 14 q 571 -22 668 -22 q 320 35 432 -22 q 143 208 208 93 q 78 486 78 322 l 314 486 m 78 486 q 143 765 78 650 q 320 937 208 879 q 571 994 432 994 q 722 976 664 994 q 836 928 781 957 q 886 907 871 907 q 914 954 914 907 l 949 954 l 949 689 l 921 689 q 831 890 907 819 q 647 960 756 960 q 481 913 556 960 q 360 760 406 867 q 314 486 314 654 l 78 486 z "},"Ć":{"ha":1057,"x_min":78,"x_max":976,"o":"m 314 486 q 360 212 314 318 q 481 59 406 106 q 647 13 556 13 q 853 87 772 13 q 949 283 935 161 l 976 283 l 976 18 l 942 18 q 914 65 942 65 q 885 59 901 65 q 851 43 869 53 q 731 -4 793 14 q 571 -22 668 -22 q 320 35 432 -22 q 143 208 208 93 q 78 486 78 322 l 314 486 m 78 486 q 143 765 78 650 q 320 937 208 879 q 571 994 432 994 q 722 976 664 994 q 836 928 781 957 q 886 907 871 907 q 914 954 914 907 l 949 954 l 949 689 l 921 689 q 831 890 907 819 q 647 960 756 960 q 481 913 556 960 q 360 760 406 867 q 314 486 314 654 l 78 486 m 519 1038 l 500 1038 l 599 1236 q 665 1297 631 1297 q 697 1285 685 1297 q 708 1254 708 1274 q 701 1233 708 1244 q 686 1214 694 1222 l 519 1038 z "},"Č":{"ha":1057,"x_min":78,"x_max":976,"o":"m 314 486 q 360 212 314 318 q 481 59 406 106 q 647 13 556 13 q 853 87 772 13 q 949 283 935 161 l 976 283 l 976 18 l 942 18 q 914 65 942 65 q 885 59 901 65 q 851 43 869 53 q 731 -4 793 14 q 571 -22 668 -22 q 320 35 432 -22 q 143 208 208 93 q 78 486 78 322 l 314 486 m 78 486 q 143 765 78 650 q 320 937 208 879 q 571 994 432 994 q 722 976 664 994 q 836 928 781 957 q 886 907 871 907 q 914 954 914 907 l 949 954 l 949 689 l 921 689 q 831 890 907 819 q 647 960 756 960 q 481 913 556 960 q 360 760 406 867 q 314 486 314 654 l 78 486 m 643 1038 l 551 1038 l 396 1279 l 438 1279 l 597 1121 l 757 1279 l 799 1279 l 643 1038 z "},"Ç":{"ha":1057,"x_min":78,"x_max":976,"o":"m 314 486 q 360 212 314 318 q 481 59 406 106 q 647 13 556 13 q 853 87 772 13 q 949 283 935 161 l 976 283 l 976 18 l 942 18 q 914 65 942 65 q 885 59 901 65 q 851 43 869 53 q 731 -4 793 14 q 571 -22 668 -22 q 320 35 432 -22 q 143 208 208 93 q 78 486 78 322 l 314 486 m 78 486 q 143 765 78 650 q 320 937 208 879 q 571 994 432 994 q 722 976 664 994 q 836 928 781 957 q 886 907 871 907 q 914 954 914 907 l 949 954 l 949 689 l 921 689 q 831 890 907 819 q 647 960 756 960 q 481 913 556 960 q 360 760 406 867 q 314 486 314 654 l 78 486 m 504 -99 q 572 -79 533 -79 q 644 -103 610 -79 q 679 -182 679 -128 q 646 -266 679 -232 q 551 -300 613 -300 q 417 -242 475 -300 l 436 -217 q 522 -261 482 -261 q 571 -240 553 -261 q 589 -174 589 -218 q 573 -128 589 -143 q 536 -114 557 -114 q 478 -143 503 -114 l 453 -128 l 528 0 l 561 0 l 504 -99 z "},"Ĉ":{"ha":1057,"x_min":78,"x_max":976,"o":"m 314 486 q 360 212 314 318 q 481 59 406 106 q 647 13 556 13 q 853 87 772 13 q 949 283 935 161 l 976 283 l 976 18 l 942 18 q 914 65 942 65 q 885 59 901 65 q 851 43 869 53 q 731 -4 793 14 q 571 -22 668 -22 q 320 35 432 -22 q 143 208 208 93 q 78 486 78 322 l 314 486 m 78 486 q 143 765 78 650 q 320 937 208 879 q 571 994 432 994 q 722 976 664 994 q 836 928 781 957 q 886 907 871 907 q 914 954 914 907 l 949 954 l 949 689 l 921 689 q 831 890 907 819 q 647 960 756 960 q 481 913 556 960 q 360 760 406 867 q 314 486 314 654 l 78 486 m 551 1279 l 643 1279 l 799 1038 l 757 1038 l 597 1196 l 438 1038 l 396 1038 l 551 1279 z "},"Ċ":{"ha":1057,"x_min":78,"x_max":976,"o":"m 314 486 q 360 212 314 318 q 481 59 406 106 q 647 13 556 13 q 853 87 772 13 q 949 283 935 161 l 976 283 l 976 18 l 942 18 q 914 65 942 65 q 885 59 901 65 q 851 43 869 53 q 731 -4 793 14 q 571 -22 668 -22 q 320 35 432 -22 q 143 208 208 93 q 78 486 78 322 l 314 486 m 78 486 q 143 765 78 650 q 320 937 208 879 q 571 994 432 994 q 722 976 664 994 q 836 928 781 957 q 886 907 871 907 q 914 954 914 907 l 949 954 l 949 689 l 921 689 q 831 890 907 819 q 647 960 756 960 q 481 913 556 960 q 360 760 406 867 q 314 486 314 654 l 78 486 m 597 1086 q 540 1110 564 1086 q 517 1168 517 1133 q 540 1224 517 1200 q 597 1247 564 1247 q 653 1224 629 1247 q 676 1168 676 1200 q 653 1110 676 1133 q 597 1086 629 1086 z "},"D":{"ha":1125,"x_min":46,"x_max":1051,"o":"m 157 972 l 379 972 l 379 0 l 157 0 l 157 972 m 46 972 l 506 972 q 761 927 638 972 q 968 773 885 882 q 1051 486 1051 664 q 968 199 1051 308 q 761 45 885 90 q 506 0 638 0 l 46 0 l 46 28 l 478 28 q 735 153 654 28 q 815 486 815 278 q 734 819 815 694 q 478 944 653 944 l 46 944 l 46 972 z "},"Ð":{"ha":1125,"x_min":46,"x_max":1051,"o":"m 157 972 l 379 972 l 379 0 l 157 0 l 157 972 m 46 972 l 506 972 q 761 927 638 972 q 968 773 885 882 q 1051 486 1051 664 q 968 199 1051 308 q 761 45 885 90 q 506 0 638 0 l 46 0 l 46 28 l 478 28 q 735 153 654 28 q 815 486 815 278 q 734 819 815 694 q 478 944 653 944 l 46 944 l 46 972 m 569 500 l 46 500 l 46 528 l 569 528 l 569 500 z "},"Ď":{"ha":1125,"x_min":46,"x_max":1051,"o":"m 157 972 l 379 972 l 379 0 l 157 0 l 157 972 m 46 972 l 506 972 q 761 927 638 972 q 968 773 885 882 q 1051 486 1051 664 q 968 199 1051 308 q 761 45 885 90 q 506 0 638 0 l 46 0 l 46 28 l 478 28 q 735 153 654 28 q 815 486 815 278 q 734 819 815 694 q 478 944 653 944 l 46 944 l 46 972 m 608 1038 l 517 1038 l 361 1279 l 403 1279 l 563 1121 l 722 1279 l 764 1279 l 608 1038 z "},"Đ":{"ha":1125,"x_min":46,"x_max":1051,"o":"m 157 972 l 379 972 l 379 0 l 157 0 l 157 972 m 46 972 l 506 972 q 761 927 638 972 q 968 773 885 882 q 1051 486 1051 664 q 968 199 1051 308 q 761 45 885 90 q 506 0 638 0 l 46 0 l 46 28 l 478 28 q 735 153 654 28 q 815 486 815 278 q 734 819 815 694 q 478 944 653 944 l 46 944 l 46 972 m 569 500 l 46 500 l 46 528 l 569 528 l 569 500 z "},"E":{"ha":910,"x_min":51,"x_max":868,"o":"m 163 972 l 385 972 l 385 0 l 163 0 l 163 972 m 51 972 l 868 972 l 868 735 l 847 735 q 797 896 847 847 q 621 944 747 944 l 51 944 l 51 972 m 331 506 l 547 506 q 638 521 606 506 q 683 575 669 536 q 697 688 697 614 l 718 688 l 718 296 l 697 296 q 683 410 697 371 q 638 463 669 449 q 547 478 606 478 l 331 478 l 331 506 m 621 28 q 751 46 703 28 q 824 108 800 64 q 847 235 847 153 l 868 235 l 868 0 l 51 0 l 51 28 l 621 28 z "},"É":{"ha":910,"x_min":51,"x_max":868,"o":"m 163 972 l 385 972 l 385 0 l 163 0 l 163 972 m 51 972 l 868 972 l 868 735 l 847 735 q 797 896 847 847 q 621 944 747 944 l 51 944 l 51 972 m 331 506 l 547 506 q 638 521 606 506 q 683 575 669 536 q 697 688 697 614 l 718 688 l 718 296 l 697 296 q 683 410 697 371 q 638 463 669 449 q 547 478 606 478 l 331 478 l 331 506 m 621 28 q 751 46 703 28 q 824 108 800 64 q 847 235 847 153 l 868 235 l 868 0 l 51 0 l 51 28 l 621 28 m 378 1038 l 358 1038 l 457 1236 q 524 1297 489 1297 q 555 1285 543 1297 q 567 1254 567 1274 q 560 1233 567 1244 q 544 1214 553 1222 l 378 1038 z "},"Ě":{"ha":910,"x_min":51,"x_max":868,"o":"m 163 972 l 385 972 l 385 0 l 163 0 l 163 972 m 51 972 l 868 972 l 868 735 l 847 735 q 797 896 847 847 q 621 944 747 944 l 51 944 l 51 972 m 331 506 l 547 506 q 638 521 606 506 q 683 575 669 536 q 697 688 697 614 l 718 688 l 718 296 l 697 296 q 683 410 697 371 q 638 463 669 449 q 547 478 606 478 l 331 478 l 331 506 m 621 28 q 751 46 703 28 q 824 108 800 64 q 847 235 847 153 l 868 235 l 868 0 l 51 0 l 51 28 l 621 28 m 500 1038 l 408 1038 l 253 1279 l 294 1279 l 454 1121 l 614 1279 l 656 1279 l 500 1038 z "},"Ê":{"ha":910,"x_min":51,"x_max":868,"o":"m 163 972 l 385 972 l 385 0 l 163 0 l 163 972 m 51 972 l 868 972 l 868 735 l 847 735 q 797 896 847 847 q 621 944 747 944 l 51 944 l 51 972 m 331 506 l 547 506 q 638 521 606 506 q 683 575 669 536 q 697 688 697 614 l 718 688 l 718 296 l 697 296 q 683 410 697 371 q 638 463 669 449 q 547 478 606 478 l 331 478 l 331 506 m 621 28 q 751 46 703 28 q 824 108 800 64 q 847 235 847 153 l 868 235 l 868 0 l 51 0 l 51 28 l 621 28 m 408 1279 l 500 1279 l 656 1038 l 614 1038 l 454 1196 l 294 1038 l 253 1038 l 408 1279 z "},"Ế":{"ha":910,"x_min":51,"x_max":868,"o":"m 163 972 l 385 972 l 385 0 l 163 0 l 163 972 m 51 972 l 868 972 l 868 735 l 847 735 q 797 896 847 847 q 621 944 747 944 l 51 944 l 51 972 m 331 506 l 547 506 q 638 521 606 506 q 683 575 669 536 q 697 688 697 614 l 718 688 l 718 296 l 697 296 q 683 410 697 371 q 638 463 669 449 q 547 478 606 478 l 331 478 l 331 506 m 621 28 q 751 46 703 28 q 824 108 800 64 q 847 235 847 153 l 868 235 l 868 0 l 51 0 l 51 28 l 621 28 m 408 1279 l 500 1279 l 656 1038 l 614 1038 l 454 1196 l 294 1038 l 253 1038 l 408 1279 m 378 1301 l 358 1301 l 457 1500 q 524 1561 489 1561 q 555 1549 543 1561 q 567 1518 567 1538 q 560 1497 567 1508 q 544 1478 553 1486 l 378 1301 z "},"Ệ":{"ha":910,"x_min":51,"x_max":868,"o":"m 163 972 l 385 972 l 385 0 l 163 0 l 163 972 m 51 972 l 868 972 l 868 735 l 847 735 q 797 896 847 847 q 621 944 747 944 l 51 944 l 51 972 m 331 506 l 547 506 q 638 521 606 506 q 683 575 669 536 q 697 688 697 614 l 718 688 l 718 296 l 697 296 q 683 410 697 371 q 638 463 669 449 q 547 478 606 478 l 331 478 l 331 506 m 621 28 q 751 46 703 28 q 824 108 800 64 q 847 235 847 153 l 868 235 l 868 0 l 51 0 l 51 28 l 621 28 m 454 -300 q 397 -276 421 -300 q 374 -219 374 -253 q 397 -163 374 -186 q 454 -140 421 -140 q 510 -163 486 -140 q 533 -219 533 -186 q 510 -276 533 -253 q 454 -300 486 -300 m 408 1279 l 500 1279 l 656 1038 l 614 1038 l 454 1196 l 294 1038 l 253 1038 l 408 1279 z "},"Ề":{"ha":910,"x_min":51,"x_max":868,"o":"m 163 972 l 385 972 l 385 0 l 163 0 l 163 972 m 51 972 l 868 972 l 868 735 l 847 735 q 797 896 847 847 q 621 944 747 944 l 51 944 l 51 972 m 331 506 l 547 506 q 638 521 606 506 q 683 575 669 536 q 697 688 697 614 l 718 688 l 718 296 l 697 296 q 683 410 697 371 q 638 463 669 449 q 547 478 606 478 l 331 478 l 331 506 m 621 28 q 751 46 703 28 q 824 108 800 64 q 847 235 847 153 l 868 235 l 868 0 l 51 0 l 51 28 l 621 28 m 408 1279 l 500 1279 l 656 1038 l 614 1038 l 454 1196 l 294 1038 l 253 1038 l 408 1279 m 364 1478 q 343 1518 343 1501 q 355 1549 343 1538 q 386 1561 367 1561 q 422 1544 407 1561 q 451 1500 438 1526 l 556 1301 l 536 1301 l 364 1478 z "},"Ể":{"ha":910,"x_min":51,"x_max":868,"o":"m 163 972 l 385 972 l 385 0 l 163 0 l 163 972 m 51 972 l 868 972 l 868 735 l 847 735 q 797 896 847 847 q 621 944 747 944 l 51 944 l 51 972 m 331 506 l 547 506 q 638 521 606 506 q 683 575 669 536 q 697 688 697 614 l 718 688 l 718 296 l 697 296 q 683 410 697 371 q 638 463 669 449 q 547 478 606 478 l 331 478 l 331 506 m 621 28 q 751 46 703 28 q 824 108 800 64 q 847 235 847 153 l 868 235 l 868 0 l 51 0 l 51 28 l 621 28 m 413 1279 l 504 1279 l 660 1038 l 618 1038 l 458 1196 l 299 1038 l 257 1038 l 413 1279 m 211 1536 q 313 1565 263 1565 q 378 1549 349 1565 q 425 1501 407 1533 q 443 1435 443 1469 q 417 1355 443 1393 q 350 1293 392 1317 l 339 1311 q 373 1345 358 1324 q 388 1396 388 1367 q 367 1464 388 1428 q 268 1531 329 1531 q 221 1518 240 1531 l 211 1536 z "},"Ễ":{"ha":910,"x_min":51,"x_max":868,"o":"m 163 972 l 385 972 l 385 0 l 163 0 l 163 972 m 51 972 l 868 972 l 868 735 l 847 735 q 797 896 847 847 q 621 944 747 944 l 51 944 l 51 972 m 331 506 l 547 506 q 638 521 606 506 q 683 575 669 536 q 697 688 697 614 l 718 688 l 718 296 l 697 296 q 683 410 697 371 q 638 463 669 449 q 547 478 606 478 l 331 478 l 331 506 m 621 28 q 751 46 703 28 q 824 108 800 64 q 847 235 847 153 l 868 235 l 868 0 l 51 0 l 51 28 l 621 28 m 408 1279 l 500 1279 l 656 1038 l 614 1038 l 454 1196 l 294 1038 l 253 1038 l 408 1279 m 351 1371 q 290 1352 310 1371 q 268 1301 269 1333 l 233 1301 q 357 1456 233 1456 q 404 1447 382 1456 q 463 1419 426 1438 q 519 1392 494 1401 q 567 1383 543 1383 q 620 1403 601 1383 q 640 1454 639 1422 l 675 1454 q 648 1341 675 1381 q 558 1301 621 1301 q 513 1309 533 1301 q 454 1336 492 1317 q 399 1362 422 1353 q 351 1371 376 1371 z "},"Ë":{"ha":910,"x_min":51,"x_max":868,"o":"m 163 972 l 385 972 l 385 0 l 163 0 l 163 972 m 51 972 l 868 972 l 868 735 l 847 735 q 797 896 847 847 q 621 944 747 944 l 51 944 l 51 972 m 331 506 l 547 506 q 638 521 606 506 q 683 575 669 536 q 697 688 697 614 l 718 688 l 718 296 l 697 296 q 683 410 697 371 q 638 463 669 449 q 547 478 606 478 l 331 478 l 331 506 m 621 28 q 751 46 703 28 q 824 108 800 64 q 847 235 847 153 l 868 235 l 868 0 l 51 0 l 51 28 l 621 28 m 319 1086 q 262 1110 285 1086 q 239 1168 239 1133 q 263 1224 239 1201 q 319 1247 286 1247 q 375 1224 351 1247 q 399 1168 399 1200 q 375 1110 399 1133 q 319 1086 351 1086 m 592 1086 q 535 1110 558 1086 q 511 1168 511 1133 q 535 1224 511 1200 q 592 1247 558 1247 q 647 1224 624 1247 q 671 1168 671 1200 q 647 1110 671 1133 q 592 1086 624 1086 z "},"Ė":{"ha":910,"x_min":51,"x_max":868,"o":"m 163 972 l 385 972 l 385 0 l 163 0 l 163 972 m 51 972 l 868 972 l 868 735 l 847 735 q 797 896 847 847 q 621 944 747 944 l 51 944 l 51 972 m 331 506 l 547 506 q 638 521 606 506 q 683 575 669 536 q 697 688 697 614 l 718 688 l 718 296 l 697 296 q 683 410 697 371 q 638 463 669 449 q 547 478 606 478 l 331 478 l 331 506 m 621 28 q 751 46 703 28 q 824 108 800 64 q 847 235 847 153 l 868 235 l 868 0 l 51 0 l 51 28 l 621 28 m 456 1086 q 399 1110 422 1086 q 375 1168 375 1133 q 399 1224 375 1200 q 456 1247 422 1247 q 511 1224 488 1247 q 535 1168 535 1200 q 511 1110 535 1133 q 456 1086 488 1086 z "},"Ẹ":{"ha":910,"x_min":51,"x_max":868,"o":"m 163 972 l 385 972 l 385 0 l 163 0 l 163 972 m 51 972 l 868 972 l 868 735 l 847 735 q 797 896 847 847 q 621 944 747 944 l 51 944 l 51 972 m 331 506 l 547 506 q 638 521 606 506 q 683 575 669 536 q 697 688 697 614 l 718 688 l 718 296 l 697 296 q 683 410 697 371 q 638 463 669 449 q 547 478 606 478 l 331 478 l 331 506 m 621 28 q 751 46 703 28 q 824 108 800 64 q 847 235 847 153 l 868 235 l 868 0 l 51 0 l 51 28 l 621 28 m 454 -300 q 397 -276 421 -300 q 374 -219 374 -253 q 397 -163 374 -186 q 454 -140 421 -140 q 510 -163 486 -140 q 533 -219 533 -186 q 510 -276 533 -253 q 454 -300 486 -300 z "},"È":{"ha":910,"x_min":51,"x_max":868,"o":"m 163 972 l 385 972 l 385 0 l 163 0 l 163 972 m 51 972 l 868 972 l 868 735 l 847 735 q 797 896 847 847 q 621 944 747 944 l 51 944 l 51 972 m 331 506 l 547 506 q 638 521 606 506 q 683 575 669 536 q 697 688 697 614 l 718 688 l 718 296 l 697 296 q 683 410 697 371 q 638 463 669 449 q 547 478 606 478 l 331 478 l 331 506 m 621 28 q 751 46 703 28 q 824 108 800 64 q 847 235 847 153 l 868 235 l 868 0 l 51 0 l 51 28 l 621 28 m 364 1214 q 343 1254 343 1238 q 355 1285 343 1274 q 386 1297 367 1297 q 422 1280 407 1297 q 451 1236 438 1263 l 556 1038 l 536 1038 l 364 1214 z "},"Ẻ":{"ha":910,"x_min":51,"x_max":868,"o":"m 163 972 l 385 972 l 385 0 l 163 0 l 163 972 m 51 972 l 868 972 l 868 735 l 847 735 q 797 896 847 847 q 621 944 747 944 l 51 944 l 51 972 m 331 506 l 547 506 q 638 521 606 506 q 683 575 669 536 q 697 688 697 614 l 718 688 l 718 296 l 697 296 q 683 410 697 371 q 638 463 669 449 q 547 478 606 478 l 331 478 l 331 506 m 621 28 q 751 46 703 28 q 824 108 800 64 q 847 235 847 153 l 868 235 l 868 0 l 51 0 l 51 28 l 621 28 m 282 1258 q 383 1288 333 1288 q 449 1272 419 1288 q 497 1224 479 1256 q 515 1157 515 1192 q 490 1077 515 1115 q 422 1015 464 1039 l 410 1033 q 444 1067 429 1046 q 458 1118 458 1089 q 438 1186 458 1150 q 340 1253 401 1253 q 293 1240 313 1253 l 282 1258 z "},"Ē":{"ha":910,"x_min":51,"x_max":868,"o":"m 163 972 l 385 972 l 385 0 l 163 0 l 163 972 m 51 972 l 868 972 l 868 735 l 847 735 q 797 896 847 847 q 621 944 747 944 l 51 944 l 51 972 m 331 506 l 547 506 q 638 521 606 506 q 683 575 669 536 q 697 688 697 614 l 718 688 l 718 296 l 697 296 q 683 410 697 371 q 638 463 669 449 q 547 478 606 478 l 331 478 l 331 506 m 621 28 q 751 46 703 28 q 824 108 800 64 q 847 235 847 153 l 868 235 l 868 0 l 51 0 l 51 28 l 621 28 m 264 1140 l 643 1140 l 643 1088 l 264 1088 l 264 1140 z "},"Ę":{"ha":910,"x_min":51,"x_max":868,"o":"m 163 972 l 385 972 l 385 0 l 163 0 l 163 972 m 51 972 l 868 972 l 868 735 l 847 735 q 797 896 847 847 q 621 944 747 944 l 51 944 l 51 972 m 331 506 l 547 506 q 638 521 606 506 q 683 575 669 536 q 697 688 697 614 l 718 688 l 718 296 l 697 296 q 683 410 697 371 q 638 463 669 449 q 547 478 606 478 l 331 478 l 331 506 m 621 28 q 751 46 703 28 q 824 108 800 64 q 847 235 847 153 l 868 235 l 868 0 l 51 0 l 51 28 l 621 28 m 813 14 q 668 -147 668 -61 q 688 -188 668 -169 q 742 -207 707 -207 q 797 -196 764 -207 l 819 -225 q 759 -266 799 -246 q 671 -286 719 -286 q 583 -258 614 -286 q 551 -187 551 -229 q 601 -90 551 -143 q 760 14 651 -36 l 813 14 z "},"Ẽ":{"ha":910,"x_min":51,"x_max":868,"o":"m 163 972 l 385 972 l 385 0 l 163 0 l 163 972 m 51 972 l 868 972 l 868 735 l 847 735 q 797 896 847 847 q 621 944 747 944 l 51 944 l 51 972 m 331 506 l 547 506 q 638 521 606 506 q 683 575 669 536 q 697 688 697 614 l 718 688 l 718 296 l 697 296 q 683 410 697 371 q 638 463 669 449 q 547 478 606 478 l 331 478 l 331 506 m 621 28 q 751 46 703 28 q 824 108 800 64 q 847 235 847 153 l 868 235 l 868 0 l 51 0 l 51 28 l 621 28 m 351 1107 q 290 1088 310 1107 q 268 1038 269 1069 l 233 1038 q 357 1192 233 1192 q 404 1183 382 1192 q 463 1156 426 1174 q 519 1128 494 1138 q 567 1119 543 1119 q 620 1139 601 1119 q 640 1190 639 1158 l 675 1190 q 648 1077 675 1117 q 558 1038 621 1038 q 513 1045 533 1038 q 454 1072 492 1053 q 399 1098 422 1089 q 351 1107 376 1107 z "},"F":{"ha":922,"x_min":51,"x_max":840,"o":"m 163 972 l 385 972 l 385 0 l 163 0 l 163 972 m 118 28 l 496 22 l 429 0 l 51 6 l 118 28 m 51 972 l 840 972 l 840 726 l 819 726 q 750 889 801 833 q 593 944 699 944 l 51 944 l 51 972 m 331 506 l 519 506 q 622 547 575 506 q 669 688 669 589 l 690 688 l 690 296 l 669 296 q 623 436 669 394 q 519 478 576 478 l 331 478 l 331 506 z "},"G":{"ha":1119,"x_min":78,"x_max":1106,"o":"m 994 113 l 960 113 q 950 132 956 124 q 933 140 944 140 q 911 133 922 140 q 887 113 900 125 q 868 96 874 101 q 741 7 807 36 q 571 -22 675 -22 l 647 13 q 758 48 722 13 q 794 143 794 83 l 794 403 l 683 403 l 683 431 l 1106 431 l 1106 403 l 994 403 l 994 113 m 314 488 q 360 213 314 319 q 481 60 406 107 q 647 13 556 13 l 571 -22 q 320 35 432 -22 q 143 208 208 93 q 78 488 78 324 l 314 488 m 78 488 q 143 766 78 651 q 320 938 208 881 q 571 994 432 994 q 731 976 668 994 q 851 929 793 958 q 885 913 869 919 q 914 907 901 907 q 942 954 942 907 l 976 954 l 976 689 l 949 689 q 853 885 935 811 q 647 960 772 960 q 408 847 503 960 q 314 488 314 735 l 78 488 z "},"Ğ":{"ha":1119,"x_min":78,"x_max":1106,"o":"m 994 113 l 960 113 q 950 132 956 124 q 933 140 944 140 q 911 133 922 140 q 887 113 900 125 q 868 96 874 101 q 741 7 807 36 q 571 -22 675 -22 l 647 13 q 758 48 722 13 q 794 143 794 83 l 794 403 l 683 403 l 683 431 l 1106 431 l 1106 403 l 994 403 l 994 113 m 314 488 q 360 213 314 319 q 481 60 406 107 q 647 13 556 13 l 571 -22 q 320 35 432 -22 q 143 208 208 93 q 78 488 78 324 l 314 488 m 78 488 q 143 766 78 651 q 320 938 208 881 q 571 994 432 994 q 731 976 668 994 q 851 929 793 958 q 885 913 869 919 q 914 907 901 907 q 942 954 942 907 l 976 954 l 976 689 l 949 689 q 853 885 935 811 q 647 960 772 960 q 408 847 503 960 q 314 488 314 735 l 78 488 m 763 1258 q 710 1100 763 1163 q 568 1038 658 1038 q 426 1100 478 1038 q 374 1258 374 1163 l 410 1258 q 444 1162 410 1204 q 567 1119 479 1119 q 690 1162 654 1119 q 726 1258 726 1204 l 763 1258 z "},"Ĝ":{"ha":1119,"x_min":78,"x_max":1106,"o":"m 994 113 l 960 113 q 950 132 956 124 q 933 140 944 140 q 911 133 922 140 q 887 113 900 125 q 868 96 874 101 q 741 7 807 36 q 571 -22 675 -22 l 647 13 q 758 48 722 13 q 794 143 794 83 l 794 403 l 683 403 l 683 431 l 1106 431 l 1106 403 l 994 403 l 994 113 m 314 488 q 360 213 314 319 q 481 60 406 107 q 647 13 556 13 l 571 -22 q 320 35 432 -22 q 143 208 208 93 q 78 488 78 324 l 314 488 m 78 488 q 143 766 78 651 q 320 938 208 881 q 571 994 432 994 q 731 976 668 994 q 851 929 793 958 q 885 913 869 919 q 914 907 901 907 q 942 954 942 907 l 976 954 l 976 689 l 949 689 q 853 885 935 811 q 647 960 772 960 q 408 847 503 960 q 314 488 314 735 l 78 488 m 522 1279 l 614 1279 l 769 1038 l 728 1038 l 568 1196 l 408 1038 l 367 1038 l 522 1279 z "},"Ģ":{"ha":1119,"x_min":78,"x_max":1106,"o":"m 994 113 l 960 113 q 950 132 956 124 q 933 140 944 140 q 911 133 922 140 q 887 113 900 125 q 868 96 874 101 q 741 7 807 36 q 571 -22 675 -22 l 647 13 q 758 48 722 13 q 794 143 794 83 l 794 403 l 683 403 l 683 431 l 1106 431 l 1106 403 l 994 403 l 994 113 m 314 488 q 360 213 314 319 q 481 60 406 107 q 647 13 556 13 l 571 -22 q 320 35 432 -22 q 143 208 208 93 q 78 488 78 324 l 314 488 m 78 488 q 143 766 78 651 q 320 938 208 881 q 571 994 432 994 q 731 976 668 994 q 851 929 793 958 q 885 913 869 919 q 914 907 901 907 q 942 954 942 907 l 976 954 l 976 689 l 949 689 q 853 885 935 811 q 647 960 772 960 q 408 847 503 960 q 314 488 314 735 l 78 488 m 547 -233 q 499 -213 519 -233 q 479 -164 479 -193 q 501 -116 479 -136 q 553 -96 524 -96 q 617 -122 593 -96 q 640 -193 640 -147 q 499 -392 640 -307 l 490 -378 q 564 -315 532 -349 q 596 -239 596 -282 q 592 -226 596 -229 q 588 -222 589 -224 q 547 -233 565 -233 z "},"Ġ":{"ha":1119,"x_min":78,"x_max":1106,"o":"m 994 113 l 960 113 q 950 132 956 124 q 933 140 944 140 q 911 133 922 140 q 887 113 900 125 q 868 96 874 101 q 741 7 807 36 q 571 -22 675 -22 l 647 13 q 758 48 722 13 q 794 143 794 83 l 794 403 l 683 403 l 683 431 l 1106 431 l 1106 403 l 994 403 l 994 113 m 314 488 q 360 213 314 319 q 481 60 406 107 q 647 13 556 13 l 571 -22 q 320 35 432 -22 q 143 208 208 93 q 78 488 78 324 l 314 488 m 78 488 q 143 766 78 651 q 320 938 208 881 q 571 994 432 994 q 731 976 668 994 q 851 929 793 958 q 885 913 869 919 q 914 907 901 907 q 942 954 942 907 l 976 954 l 976 689 l 949 689 q 853 885 935 811 q 647 960 772 960 q 408 847 503 960 q 314 488 314 735 l 78 488 m 569 1086 q 513 1110 536 1086 q 489 1168 489 1133 q 513 1224 489 1200 q 569 1247 536 1247 q 625 1224 601 1247 q 649 1168 649 1200 q 625 1110 649 1133 q 569 1086 601 1086 z "},"Ḡ":{"ha":1119,"x_min":78,"x_max":1106,"o":"m 994 113 l 960 113 q 950 132 956 124 q 933 140 944 140 q 911 133 922 140 q 887 113 900 125 q 868 96 874 101 q 741 7 807 36 q 571 -22 675 -22 l 647 13 q 758 48 722 13 q 794 143 794 83 l 794 403 l 683 403 l 683 431 l 1106 431 l 1106 403 l 994 403 l 994 113 m 314 488 q 360 213 314 319 q 481 60 406 107 q 647 13 556 13 l 571 -22 q 320 35 432 -22 q 143 208 208 93 q 78 488 78 324 l 314 488 m 78 488 q 143 766 78 651 q 320 938 208 881 q 571 994 432 994 q 731 976 668 994 q 851 929 793 958 q 885 913 869 919 q 914 907 901 907 q 942 954 942 907 l 976 954 l 976 689 l 949 689 q 853 885 935 811 q 647 960 772 960 q 408 847 503 960 q 314 488 314 735 l 78 488 m 378 1140 l 757 1140 l 757 1088 l 378 1088 l 378 1140 z "},"H":{"ha":1114,"x_min":49,"x_max":1065,"o":"m 382 972 l 382 0 l 160 0 l 160 972 l 382 972 m 493 972 l 493 944 l 49 944 l 49 972 l 493 972 m 493 28 l 493 0 l 49 0 l 49 28 l 493 28 m 954 972 l 954 0 l 732 0 l 732 972 l 954 972 m 1065 972 l 1065 944 l 621 944 l 621 972 l 1065 972 m 1065 28 l 1065 0 l 621 0 l 621 28 l 1065 28 m 885 503 l 885 475 l 311 475 l 311 503 l 885 503 z "},"Ħ":{"ha":1111,"x_min":-11,"x_max":1128,"o":"m 383 972 l 383 0 l 161 0 l 161 972 l 383 972 m 494 972 l 494 944 l 50 944 l 50 972 l 494 972 m 494 28 l 494 0 l 50 0 l 50 28 l 494 28 m 956 972 l 956 0 l 733 0 l 733 972 l 956 972 m 1067 972 l 1067 944 l 622 944 l 622 972 l 1067 972 m 1067 28 l 1067 0 l 622 0 l 622 28 l 1067 28 m 886 503 l 886 475 l 311 475 l 311 503 l 886 503 m 1128 756 l 1128 728 l -11 728 l -11 756 l 1128 756 z "},"Ĥ":{"ha":1114,"x_min":49,"x_max":1065,"o":"m 382 972 l 382 0 l 160 0 l 160 972 l 382 972 m 493 972 l 493 944 l 49 944 l 49 972 l 493 972 m 493 28 l 493 0 l 49 0 l 49 28 l 493 28 m 954 972 l 954 0 l 732 0 l 732 972 l 954 972 m 1065 972 l 1065 944 l 621 944 l 621 972 l 1065 972 m 1065 28 l 1065 0 l 621 0 l 621 28 l 1065 28 m 885 503 l 885 475 l 311 475 l 311 503 l 885 503 m 511 1278 l 603 1278 l 758 1036 l 717 1036 l 557 1194 l 397 1036 l 356 1036 l 511 1278 z "},"I":{"ha":553,"x_min":54,"x_max":499,"o":"m 388 972 l 388 0 l 165 0 l 165 972 l 388 972 m 499 972 l 499 944 l 54 944 l 54 972 l 499 972 m 499 28 l 499 0 l 54 0 l 54 28 l 499 28 z "},"Í":{"ha":553,"x_min":54,"x_max":499,"o":"m 388 972 l 388 0 l 165 0 l 165 972 l 388 972 m 499 972 l 499 944 l 54 944 l 54 972 l 499 972 m 499 28 l 499 0 l 54 0 l 54 28 l 499 28 m 199 1038 l 179 1038 l 278 1236 q 344 1297 310 1297 q 376 1285 364 1297 q 388 1254 388 1274 q 381 1233 388 1244 q 365 1214 374 1222 l 199 1038 z "},"Ǐ":{"ha":553,"x_min":54,"x_max":499,"o":"m 388 972 l 388 0 l 165 0 l 165 972 l 388 972 m 499 972 l 499 944 l 54 944 l 54 972 l 499 972 m 499 28 l 499 0 l 54 0 l 54 28 l 499 28 m 322 1038 l 231 1038 l 75 1279 l 117 1279 l 276 1121 l 436 1279 l 478 1279 l 322 1038 z "},"Î":{"ha":553,"x_min":54,"x_max":499,"o":"m 388 972 l 388 0 l 165 0 l 165 972 l 388 972 m 499 972 l 499 944 l 54 944 l 54 972 l 499 972 m 499 28 l 499 0 l 54 0 l 54 28 l 499 28 m 231 1279 l 322 1279 l 478 1038 l 436 1038 l 276 1196 l 117 1038 l 75 1038 l 231 1279 z "},"Ï":{"ha":553,"x_min":54,"x_max":499,"o":"m 388 972 l 388 0 l 165 0 l 165 972 l 388 972 m 499 972 l 499 944 l 54 944 l 54 972 l 499 972 m 499 28 l 499 0 l 54 0 l 54 28 l 499 28 m 140 1086 q 83 1110 106 1086 q 60 1168 60 1133 q 83 1224 60 1201 q 140 1247 107 1247 q 196 1224 172 1247 q 219 1168 219 1200 q 196 1110 219 1133 q 140 1086 172 1086 m 413 1086 q 356 1110 379 1086 q 332 1168 332 1133 q 356 1224 332 1200 q 413 1247 379 1247 q 468 1224 444 1247 q 492 1168 492 1200 q 468 1110 492 1133 q 413 1086 444 1086 z "},"İ":{"ha":553,"x_min":54,"x_max":499,"o":"m 388 972 l 388 0 l 165 0 l 165 972 l 388 972 m 499 972 l 499 944 l 54 944 l 54 972 l 499 972 m 499 28 l 499 0 l 54 0 l 54 28 l 499 28 m 278 1086 q 221 1110 244 1086 q 197 1168 197 1133 q 221 1224 197 1200 q 278 1247 244 1247 q 333 1224 310 1247 q 357 1168 357 1200 q 333 1110 357 1133 q 278 1086 310 1086 z "},"Ị":{"ha":553,"x_min":54,"x_max":499,"o":"m 388 972 l 388 0 l 165 0 l 165 972 l 388 972 m 499 972 l 499 944 l 54 944 l 54 972 l 499 972 m 499 28 l 499 0 l 54 0 l 54 28 l 499 28 m 276 -300 q 219 -276 243 -300 q 196 -219 196 -253 q 219 -163 196 -186 q 276 -140 243 -140 q 332 -163 308 -140 q 356 -219 356 -186 q 332 -276 356 -253 q 276 -300 308 -300 z "},"Ì":{"ha":553,"x_min":54,"x_max":499,"o":"m 388 972 l 388 0 l 165 0 l 165 972 l 388 972 m 499 972 l 499 944 l 54 944 l 54 972 l 499 972 m 499 28 l 499 0 l 54 0 l 54 28 l 499 28 m 186 1214 q 165 1254 165 1238 q 177 1285 165 1274 q 208 1297 189 1297 q 244 1280 229 1297 q 274 1236 260 1263 l 378 1038 l 358 1038 l 186 1214 z "},"Ỉ":{"ha":553,"x_min":54,"x_max":499,"o":"m 388 972 l 388 0 l 165 0 l 165 972 l 388 972 m 499 972 l 499 944 l 54 944 l 54 972 l 499 972 m 499 28 l 499 0 l 54 0 l 54 28 l 499 28 m 104 1258 q 206 1288 156 1288 q 272 1272 242 1288 q 319 1224 301 1256 q 338 1157 338 1192 q 312 1077 338 1115 q 244 1015 286 1039 l 232 1033 q 266 1067 251 1046 q 281 1118 281 1089 q 260 1186 281 1150 q 163 1253 224 1253 q 115 1240 135 1253 l 104 1258 z "},"Ī":{"ha":553,"x_min":54,"x_max":499,"o":"m 388 972 l 388 0 l 165 0 l 165 972 l 388 972 m 499 972 l 499 944 l 54 944 l 54 972 l 499 972 m 499 28 l 499 0 l 54 0 l 54 28 l 499 28 m 86 1140 l 465 1140 l 465 1088 l 86 1088 l 86 1140 z "},"Į":{"ha":553,"x_min":54,"x_max":499,"o":"m 388 972 l 388 0 l 165 0 l 165 972 l 388 972 m 499 972 l 499 944 l 54 944 l 54 972 l 499 972 m 499 28 l 499 0 l 54 0 l 54 28 l 499 28 m 490 14 q 346 -147 346 -61 q 365 -188 346 -169 q 419 -207 385 -207 q 475 -196 442 -207 l 497 -225 q 437 -266 476 -246 q 349 -286 397 -286 q 260 -258 292 -286 q 229 -187 229 -229 q 279 -90 229 -143 q 438 14 329 -36 l 490 14 z "},"Ĩ":{"ha":553,"x_min":54,"x_max":499,"o":"m 388 972 l 388 0 l 165 0 l 165 972 l 388 972 m 499 972 l 499 944 l 54 944 l 54 972 l 499 972 m 499 28 l 499 0 l 54 0 l 54 28 l 499 28 m 174 1107 q 112 1088 132 1107 q 90 1038 92 1069 l 56 1038 q 179 1192 56 1192 q 226 1183 204 1192 q 285 1156 249 1174 q 341 1128 317 1138 q 389 1119 365 1119 q 442 1139 424 1119 q 463 1190 461 1158 l 497 1190 q 470 1077 497 1117 q 381 1038 443 1038 q 335 1045 356 1038 q 276 1072 314 1053 q 222 1098 244 1089 q 174 1107 199 1107 z "},"J":{"ha":708,"x_min":28,"x_max":671,"o":"m 560 972 l 560 317 q 521 137 560 214 q 413 19 482 60 q 256 -22 343 -22 q 92 24 156 -22 q 28 153 28 69 q 55 239 28 207 q 128 271 82 271 q 185 251 163 271 q 207 197 207 232 q 201 164 207 178 q 183 135 194 150 q 165 103 171 117 q 160 71 160 90 q 181 24 160 42 q 236 6 203 6 q 310 41 282 6 q 338 140 338 76 l 338 972 l 560 972 m 671 972 l 671 944 l 226 944 l 226 972 l 671 972 z "},"Ĵ":{"ha":708,"x_min":28,"x_max":671,"o":"m 560 972 l 560 317 q 521 137 560 214 q 413 19 482 60 q 256 -22 343 -22 q 92 24 156 -22 q 28 153 28 69 q 55 239 28 207 q 128 271 82 271 q 185 251 163 271 q 207 197 207 232 q 201 164 207 178 q 183 135 194 150 q 165 103 171 117 q 160 71 160 90 q 181 24 160 42 q 236 6 203 6 q 310 41 282 6 q 338 140 338 76 l 338 972 l 560 972 m 671 972 l 671 944 l 226 944 l 226 972 l 671 972 m 403 1279 l 494 1279 l 650 1038 l 608 1038 l 449 1196 l 289 1038 l 247 1038 l 403 1279 z "},"K":{"ha":1054,"x_min":57,"x_max":1078,"o":"m 390 972 l 390 0 l 168 0 l 168 972 l 390 972 m 501 972 l 501 944 l 57 944 l 57 972 l 501 972 m 501 28 l 501 0 l 57 0 l 57 28 l 501 28 m 592 678 l 967 0 l 719 0 l 433 515 l 592 678 m 1078 28 l 1078 0 l 608 0 l 608 28 l 1078 28 m 863 972 l 904 972 l 390 443 l 390 486 l 863 972 m 751 972 l 988 972 l 988 944 l 751 944 l 751 972 z "},"Ķ":{"ha":1054,"x_min":57,"x_max":1078,"o":"m 390 972 l 390 0 l 168 0 l 168 972 l 390 972 m 501 972 l 501 944 l 57 944 l 57 972 l 501 972 m 501 28 l 501 0 l 57 0 l 57 28 l 501 28 m 592 678 l 967 0 l 719 0 l 433 515 l 592 678 m 1078 28 l 1078 0 l 608 0 l 608 28 l 1078 28 m 863 972 l 904 972 l 390 443 l 390 486 l 863 972 m 751 972 l 988 972 l 988 944 l 751 944 l 751 972 m 515 -233 q 467 -213 488 -233 q 447 -164 447 -193 q 469 -116 447 -136 q 521 -96 492 -96 q 585 -122 561 -96 q 608 -193 608 -147 q 467 -392 608 -307 l 458 -378 q 532 -315 500 -349 q 564 -239 564 -282 q 560 -226 564 -229 q 556 -222 557 -224 q 515 -233 533 -233 z "},"L":{"ha":943,"x_min":61,"x_max":883,"o":"m 394 972 l 394 0 l 172 0 l 172 972 l 394 972 m 506 972 l 506 944 l 61 944 l 61 972 l 506 972 m 549 28 q 746 61 681 28 q 833 165 811 94 q 856 369 856 236 l 883 369 l 883 0 l 61 0 l 61 28 l 549 28 z "},"Ĺ":{"ha":943,"x_min":61,"x_max":883,"o":"m 394 972 l 394 0 l 172 0 l 172 972 l 394 972 m 506 972 l 506 944 l 61 944 l 61 972 l 506 972 m 549 28 q 746 61 681 28 q 833 165 811 94 q 856 369 856 236 l 883 369 l 883 0 l 61 0 l 61 28 l 549 28 m 221 1038 l 201 1038 l 300 1236 q 367 1297 332 1297 q 398 1285 386 1297 q 410 1254 410 1274 q 403 1233 410 1244 q 388 1214 396 1222 l 221 1038 z "},"Ľ":{"ha":943,"x_min":61,"x_max":883,"o":"m 394 972 l 394 0 l 172 0 l 172 972 l 394 972 m 506 972 l 506 944 l 61 944 l 61 972 l 506 972 m 549 28 q 746 61 681 28 q 833 165 811 94 q 856 369 856 236 l 883 369 l 883 0 l 61 0 l 61 28 l 549 28 m 672 719 q 624 739 643 719 q 604 788 604 758 q 626 835 604 815 q 676 856 647 856 q 741 830 717 856 q 765 758 765 804 q 622 561 765 643 l 614 574 q 721 713 721 644 q 717 726 721 724 q 711 729 713 729 q 672 719 692 719 z "},"Ļ":{"ha":943,"x_min":61,"x_max":883,"o":"m 394 972 l 394 0 l 172 0 l 172 972 l 394 972 m 506 972 l 506 944 l 61 944 l 61 972 l 506 972 m 549 28 q 746 61 681 28 q 833 165 811 94 q 856 369 856 236 l 883 369 l 883 0 l 61 0 l 61 28 l 549 28 m 460 -233 q 412 -213 432 -233 q 392 -164 392 -193 q 414 -116 392 -136 q 465 -96 436 -96 q 529 -122 506 -96 q 553 -193 553 -147 q 411 -392 553 -307 l 403 -378 q 476 -315 444 -349 q 508 -239 508 -282 q 505 -226 508 -229 q 500 -222 501 -224 q 460 -233 478 -233 z "},"Ł":{"ha":943,"x_min":61,"x_max":883,"o":"m 394 972 l 394 0 l 172 0 l 172 972 l 394 972 m 506 972 l 506 944 l 61 944 l 61 972 l 506 972 m 549 28 q 746 61 681 28 q 833 165 811 94 q 856 369 856 236 l 883 369 l 883 0 l 61 0 l 61 28 l 549 28 m 613 613 l 64 372 l 64 400 l 613 640 l 613 613 z "},"M":{"ha":1254,"x_min":46,"x_max":1207,"o":"m 1096 0 l 874 0 l 874 972 l 1096 972 l 1096 0 m 1207 944 l 763 944 l 763 972 l 1207 972 l 1207 944 m 1207 0 l 763 0 l 763 28 l 1207 28 l 1207 0 m 189 0 l 157 0 l 157 972 l 189 972 l 189 0 m 300 944 l 46 944 l 46 972 l 300 972 l 300 944 m 300 0 l 46 0 l 46 28 l 300 28 l 300 0 m 585 0 l 553 0 l 843 958 l 875 958 l 585 0 m 663 311 l 553 0 l 178 972 l 407 972 l 663 311 z "},"N":{"ha":1032,"x_min":44,"x_max":993,"o":"m 183 972 l 183 0 l 156 0 l 156 972 l 183 972 m 294 972 l 294 944 l 44 944 l 44 972 l 294 972 m 294 28 l 294 0 l 44 0 l 44 28 l 294 28 m 882 972 l 882 0 l 854 0 l 854 972 l 882 972 m 993 972 l 993 944 l 743 944 l 743 972 l 993 972 m 226 972 l 411 972 l 868 0 l 621 0 l 164 972 l 226 972 z "},"Ń":{"ha":1032,"x_min":44,"x_max":993,"o":"m 183 972 l 183 0 l 156 0 l 156 972 l 183 972 m 294 972 l 294 944 l 44 944 l 44 972 l 294 972 m 294 28 l 294 0 l 44 0 l 44 28 l 294 28 m 882 972 l 882 0 l 854 0 l 854 972 l 882 972 m 993 972 l 993 944 l 743 944 l 743 972 l 993 972 m 226 972 l 411 972 l 868 0 l 621 0 l 164 972 l 226 972 m 440 1038 l 421 1038 l 519 1236 q 586 1297 551 1297 q 617 1285 606 1297 q 629 1254 629 1274 q 622 1233 629 1244 q 607 1214 615 1222 l 440 1038 z "},"Ň":{"ha":1032,"x_min":44,"x_max":993,"o":"m 183 972 l 183 0 l 156 0 l 156 972 l 183 972 m 294 972 l 294 944 l 44 944 l 44 972 l 294 972 m 294 28 l 294 0 l 44 0 l 44 28 l 294 28 m 882 972 l 882 0 l 854 0 l 854 972 l 882 972 m 993 972 l 993 944 l 743 944 l 743 972 l 993 972 m 226 972 l 411 972 l 868 0 l 621 0 l 164 972 l 226 972 m 563 1038 l 471 1038 l 315 1279 l 357 1279 l 517 1121 l 676 1279 l 718 1279 l 563 1038 z "},"Ņ":{"ha":1032,"x_min":44,"x_max":993,"o":"m 183 972 l 183 0 l 156 0 l 156 972 l 183 972 m 294 972 l 294 944 l 44 944 l 44 972 l 294 972 m 294 28 l 294 0 l 44 0 l 44 28 l 294 28 m 882 972 l 882 0 l 854 0 l 854 972 l 882 972 m 993 972 l 993 944 l 743 944 l 743 972 l 993 972 m 226 972 l 411 972 l 868 0 l 621 0 l 164 972 l 226 972 m 504 -233 q 456 -213 476 -233 q 436 -164 436 -193 q 458 -116 436 -136 q 510 -96 481 -96 q 574 -122 550 -96 q 597 -193 597 -147 q 456 -392 597 -307 l 447 -378 q 521 -315 489 -349 q 553 -239 553 -282 q 549 -226 553 -229 q 544 -222 546 -224 q 504 -233 522 -233 z "},"Ñ":{"ha":1032,"x_min":44,"x_max":993,"o":"m 183 972 l 183 0 l 156 0 l 156 972 l 183 972 m 294 972 l 294 944 l 44 944 l 44 972 l 294 972 m 294 28 l 294 0 l 44 0 l 44 28 l 294 28 m 882 972 l 882 0 l 854 0 l 854 972 l 882 972 m 993 972 l 993 944 l 743 944 l 743 972 l 993 972 m 226 972 l 411 972 l 868 0 l 621 0 l 164 972 l 226 972 m 414 1107 q 352 1088 372 1107 q 331 1038 332 1069 l 296 1038 q 419 1192 296 1192 q 467 1183 444 1192 q 525 1156 489 1174 q 581 1128 557 1138 q 629 1119 606 1119 q 683 1139 664 1119 q 703 1190 701 1158 l 738 1190 q 710 1077 738 1117 q 621 1038 683 1038 q 575 1045 596 1038 q 517 1072 554 1053 q 462 1098 485 1089 q 414 1107 439 1107 z "},"O":{"ha":1138,"x_min":65,"x_max":1072,"o":"m 569 -22 q 313 38 428 -22 q 132 212 199 97 q 65 486 65 326 q 132 760 65 646 q 313 935 199 875 q 569 994 428 994 q 825 935 711 994 q 1006 760 939 875 q 1072 486 1072 646 q 1006 212 1072 326 q 825 38 939 97 q 569 -22 711 -22 m 571 6 q 705 43 647 6 q 799 186 763 81 q 836 486 836 292 q 799 786 836 681 q 705 929 763 892 q 571 967 647 967 q 433 929 492 967 q 338 786 375 892 q 301 486 301 681 q 338 186 301 292 q 433 43 375 81 q 571 6 492 6 z "},"Ó":{"ha":1138,"x_min":65,"x_max":1072,"o":"m 569 -22 q 313 38 428 -22 q 132 212 199 97 q 65 486 65 326 q 132 760 65 646 q 313 935 199 875 q 569 994 428 994 q 825 935 711 994 q 1006 760 939 875 q 1072 486 1072 646 q 1006 212 1072 326 q 825 38 939 97 q 569 -22 711 -22 m 571 6 q 705 43 647 6 q 799 186 763 81 q 836 486 836 292 q 799 786 836 681 q 705 929 763 892 q 571 967 647 967 q 433 929 492 967 q 338 786 375 892 q 301 486 301 681 q 338 186 301 292 q 433 43 375 81 q 571 6 492 6 m 492 1038 l 472 1038 l 571 1236 q 638 1297 603 1297 q 669 1285 657 1297 q 681 1254 681 1274 q 674 1233 681 1244 q 658 1214 667 1222 l 492 1038 z "},"Ǒ":{"ha":1138,"x_min":65,"x_max":1072,"o":"m 569 -22 q 313 38 428 -22 q 132 212 199 97 q 65 486 65 326 q 132 760 65 646 q 313 935 199 875 q 569 994 428 994 q 825 935 711 994 q 1006 760 939 875 q 1072 486 1072 646 q 1006 212 1072 326 q 825 38 939 97 q 569 -22 711 -22 m 571 6 q 705 43 647 6 q 799 186 763 81 q 836 486 836 292 q 799 786 836 681 q 705 929 763 892 q 571 967 647 967 q 433 929 492 967 q 338 786 375 892 q 301 486 301 681 q 338 186 301 292 q 433 43 375 81 q 571 6 492 6 m 614 1038 l 522 1038 l 367 1279 l 408 1279 l 568 1121 l 728 1279 l 769 1279 l 614 1038 z "},"Ô":{"ha":1138,"x_min":65,"x_max":1072,"o":"m 569 -22 q 313 38 428 -22 q 132 212 199 97 q 65 486 65 326 q 132 760 65 646 q 313 935 199 875 q 569 994 428 994 q 825 935 711 994 q 1006 760 939 875 q 1072 486 1072 646 q 1006 212 1072 326 q 825 38 939 97 q 569 -22 711 -22 m 571 6 q 705 43 647 6 q 799 186 763 81 q 836 486 836 292 q 799 786 836 681 q 705 929 763 892 q 571 967 647 967 q 433 929 492 967 q 338 786 375 892 q 301 486 301 681 q 338 186 301 292 q 433 43 375 81 q 571 6 492 6 m 522 1279 l 614 1279 l 769 1038 l 728 1038 l 568 1196 l 408 1038 l 367 1038 l 522 1279 z "},"Ố":{"ha":1138,"x_min":65,"x_max":1072,"o":"m 569 -22 q 313 38 428 -22 q 132 212 199 97 q 65 486 65 326 q 132 760 65 646 q 313 935 199 875 q 569 994 428 994 q 825 935 711 994 q 1006 760 939 875 q 1072 486 1072 646 q 1006 212 1072 326 q 825 38 939 97 q 569 -22 711 -22 m 571 6 q 705 43 647 6 q 799 186 763 81 q 836 486 836 292 q 799 786 836 681 q 705 929 763 892 q 571 967 647 967 q 433 929 492 967 q 338 786 375 892 q 301 486 301 681 q 338 186 301 292 q 433 43 375 81 q 571 6 492 6 m 522 1279 l 614 1279 l 769 1038 l 728 1038 l 568 1196 l 408 1038 l 367 1038 l 522 1279 m 492 1301 l 472 1301 l 571 1500 q 638 1561 603 1561 q 669 1549 657 1561 q 681 1518 681 1538 q 674 1497 681 1508 q 658 1478 667 1486 l 492 1301 z "},"Ộ":{"ha":1138,"x_min":65,"x_max":1072,"o":"m 569 -22 q 313 38 428 -22 q 132 212 199 97 q 65 486 65 326 q 132 760 65 646 q 313 935 199 875 q 569 994 428 994 q 825 935 711 994 q 1006 760 939 875 q 1072 486 1072 646 q 1006 212 1072 326 q 825 38 939 97 q 569 -22 711 -22 m 571 6 q 705 43 647 6 q 799 186 763 81 q 836 486 836 292 q 799 786 836 681 q 705 929 763 892 q 571 967 647 967 q 433 929 492 967 q 338 786 375 892 q 301 486 301 681 q 338 186 301 292 q 433 43 375 81 q 571 6 492 6 m 568 -300 q 511 -276 535 -300 q 488 -219 488 -253 q 511 -163 488 -186 q 568 -140 535 -140 q 624 -163 600 -140 q 647 -219 647 -186 q 624 -276 647 -253 q 568 -300 600 -300 m 522 1279 l 614 1279 l 769 1038 l 728 1038 l 568 1196 l 408 1038 l 367 1038 l 522 1279 z "},"Ồ":{"ha":1138,"x_min":65,"x_max":1072,"o":"m 569 -22 q 313 38 428 -22 q 132 212 199 97 q 65 486 65 326 q 132 760 65 646 q 313 935 199 875 q 569 994 428 994 q 825 935 711 994 q 1006 760 939 875 q 1072 486 1072 646 q 1006 212 1072 326 q 825 38 939 97 q 569 -22 711 -22 m 571 6 q 705 43 647 6 q 799 186 763 81 q 836 486 836 292 q 799 786 836 681 q 705 929 763 892 q 571 967 647 967 q 433 929 492 967 q 338 786 375 892 q 301 486 301 681 q 338 186 301 292 q 433 43 375 81 q 571 6 492 6 m 522 1279 l 614 1279 l 769 1038 l 728 1038 l 568 1196 l 408 1038 l 367 1038 l 522 1279 m 478 1478 q 457 1518 457 1501 q 469 1549 457 1538 q 500 1561 481 1561 q 536 1544 521 1561 q 565 1500 551 1526 l 669 1301 l 650 1301 l 478 1478 z "},"Ổ":{"ha":1138,"x_min":65,"x_max":1072,"o":"m 569 -22 q 313 38 428 -22 q 132 212 199 97 q 65 486 65 326 q 132 760 65 646 q 313 935 199 875 q 569 994 428 994 q 825 935 711 994 q 1006 760 939 875 q 1072 486 1072 646 q 1006 212 1072 326 q 825 38 939 97 q 569 -22 711 -22 m 571 6 q 705 43 647 6 q 799 186 763 81 q 836 486 836 292 q 799 786 836 681 q 705 929 763 892 q 571 967 647 967 q 433 929 492 967 q 338 786 375 892 q 301 486 301 681 q 338 186 301 292 q 433 43 375 81 q 571 6 492 6 m 526 1279 l 618 1279 l 774 1038 l 732 1038 l 572 1196 l 413 1038 l 371 1038 l 526 1279 m 325 1536 q 426 1565 376 1565 q 492 1549 463 1565 q 539 1501 521 1533 q 557 1435 557 1469 q 531 1355 557 1393 q 464 1293 506 1317 l 453 1311 q 487 1345 472 1324 q 501 1396 501 1367 q 481 1464 501 1428 q 382 1531 443 1531 q 335 1518 354 1531 l 325 1536 z "},"Ỗ":{"ha":1138,"x_min":65,"x_max":1072,"o":"m 569 -22 q 313 38 428 -22 q 132 212 199 97 q 65 486 65 326 q 132 760 65 646 q 313 935 199 875 q 569 994 428 994 q 825 935 711 994 q 1006 760 939 875 q 1072 486 1072 646 q 1006 212 1072 326 q 825 38 939 97 q 569 -22 711 -22 m 571 6 q 705 43 647 6 q 799 186 763 81 q 836 486 836 292 q 799 786 836 681 q 705 929 763 892 q 571 967 647 967 q 433 929 492 967 q 338 786 375 892 q 301 486 301 681 q 338 186 301 292 q 433 43 375 81 q 571 6 492 6 m 522 1279 l 614 1279 l 769 1038 l 728 1038 l 568 1196 l 408 1038 l 367 1038 l 522 1279 m 465 1371 q 403 1352 424 1371 q 382 1301 383 1333 l 347 1301 q 471 1456 347 1456 q 518 1447 496 1456 q 576 1419 540 1438 q 633 1392 608 1401 q 681 1383 657 1383 q 734 1403 715 1383 q 754 1454 753 1422 l 789 1454 q 762 1341 789 1381 q 672 1301 735 1301 q 626 1309 647 1301 q 568 1336 606 1317 q 513 1362 536 1353 q 465 1371 490 1371 z "},"Ö":{"ha":1138,"x_min":65,"x_max":1072,"o":"m 569 -22 q 313 38 428 -22 q 132 212 199 97 q 65 486 65 326 q 132 760 65 646 q 313 935 199 875 q 569 994 428 994 q 825 935 711 994 q 1006 760 939 875 q 1072 486 1072 646 q 1006 212 1072 326 q 825 38 939 97 q 569 -22 711 -22 m 571 6 q 705 43 647 6 q 799 186 763 81 q 836 486 836 292 q 799 786 836 681 q 705 929 763 892 q 571 967 647 967 q 433 929 492 967 q 338 786 375 892 q 301 486 301 681 q 338 186 301 292 q 433 43 375 81 q 571 6 492 6 m 433 1086 q 376 1110 399 1086 q 353 1168 353 1133 q 376 1224 353 1201 q 433 1247 400 1247 q 489 1224 465 1247 q 513 1168 513 1200 q 489 1110 513 1133 q 433 1086 465 1086 m 706 1086 q 649 1110 672 1086 q 625 1168 625 1133 q 649 1224 625 1200 q 706 1247 672 1247 q 761 1224 738 1247 q 785 1168 785 1200 q 761 1110 785 1133 q 706 1086 738 1086 z "},"Ọ":{"ha":1138,"x_min":65,"x_max":1072,"o":"m 569 -22 q 313 38 428 -22 q 132 212 199 97 q 65 486 65 326 q 132 760 65 646 q 313 935 199 875 q 569 994 428 994 q 825 935 711 994 q 1006 760 939 875 q 1072 486 1072 646 q 1006 212 1072 326 q 825 38 939 97 q 569 -22 711 -22 m 571 6 q 705 43 647 6 q 799 186 763 81 q 836 486 836 292 q 799 786 836 681 q 705 929 763 892 q 571 967 647 967 q 433 929 492 967 q 338 786 375 892 q 301 486 301 681 q 338 186 301 292 q 433 43 375 81 q 571 6 492 6 m 568 -300 q 511 -276 535 -300 q 488 -219 488 -253 q 511 -163 488 -186 q 568 -140 535 -140 q 624 -163 600 -140 q 647 -219 647 -186 q 624 -276 647 -253 q 568 -300 600 -300 z "},"Ò":{"ha":1138,"x_min":65,"x_max":1072,"o":"m 569 -22 q 313 38 428 -22 q 132 212 199 97 q 65 486 65 326 q 132 760 65 646 q 313 935 199 875 q 569 994 428 994 q 825 935 711 994 q 1006 760 939 875 q 1072 486 1072 646 q 1006 212 1072 326 q 825 38 939 97 q 569 -22 711 -22 m 571 6 q 705 43 647 6 q 799 186 763 81 q 836 486 836 292 q 799 786 836 681 q 705 929 763 892 q 571 967 647 967 q 433 929 492 967 q 338 786 375 892 q 301 486 301 681 q 338 186 301 292 q 433 43 375 81 q 571 6 492 6 m 478 1214 q 457 1254 457 1238 q 469 1285 457 1274 q 500 1297 481 1297 q 536 1280 521 1297 q 565 1236 551 1263 l 669 1038 l 650 1038 l 478 1214 z "},"Ỏ":{"ha":1138,"x_min":65,"x_max":1072,"o":"m 569 -22 q 313 38 428 -22 q 132 212 199 97 q 65 486 65 326 q 132 760 65 646 q 313 935 199 875 q 569 994 428 994 q 825 935 711 994 q 1006 760 939 875 q 1072 486 1072 646 q 1006 212 1072 326 q 825 38 939 97 q 569 -22 711 -22 m 571 6 q 705 43 647 6 q 799 186 763 81 q 836 486 836 292 q 799 786 836 681 q 705 929 763 892 q 571 967 647 967 q 433 929 492 967 q 338 786 375 892 q 301 486 301 681 q 338 186 301 292 q 433 43 375 81 q 571 6 492 6 m 396 1258 q 497 1288 447 1288 q 563 1272 533 1288 q 611 1224 593 1256 q 629 1157 629 1192 q 603 1077 629 1115 q 536 1015 578 1039 l 524 1033 q 558 1067 543 1046 q 572 1118 572 1089 q 551 1186 572 1150 q 454 1253 515 1253 q 407 1240 426 1253 l 396 1258 z "},"Ő":{"ha":1138,"x_min":65,"x_max":1072,"o":"m 569 -22 q 313 38 428 -22 q 132 212 199 97 q 65 486 65 326 q 132 760 65 646 q 313 935 199 875 q 569 994 428 994 q 825 935 711 994 q 1006 760 939 875 q 1072 486 1072 646 q 1006 212 1072 326 q 825 38 939 97 q 569 -22 711 -22 m 571 6 q 705 43 647 6 q 799 186 763 81 q 836 486 836 292 q 799 786 836 681 q 705 929 763 892 q 571 967 647 967 q 433 929 492 967 q 338 786 375 892 q 301 486 301 681 q 338 186 301 292 q 433 43 375 81 q 571 6 492 6 m 474 1038 l 454 1038 l 553 1236 q 619 1297 585 1297 q 651 1285 639 1297 q 663 1254 663 1274 q 656 1233 663 1244 q 640 1214 649 1222 l 474 1038 m 624 1038 l 604 1038 l 703 1236 q 732 1280 717 1263 q 768 1297 747 1297 q 800 1285 788 1297 q 813 1254 813 1274 q 806 1233 813 1244 q 790 1214 799 1222 l 624 1038 z "},"Ō":{"ha":1138,"x_min":65,"x_max":1072,"o":"m 569 -22 q 313 38 428 -22 q 132 212 199 97 q 65 486 65 326 q 132 760 65 646 q 313 935 199 875 q 569 994 428 994 q 825 935 711 994 q 1006 760 939 875 q 1072 486 1072 646 q 1006 212 1072 326 q 825 38 939 97 q 569 -22 711 -22 m 571 6 q 705 43 647 6 q 799 186 763 81 q 836 486 836 292 q 799 786 836 681 q 705 929 763 892 q 571 967 647 967 q 433 929 492 967 q 338 786 375 892 q 301 486 301 681 q 338 186 301 292 q 433 43 375 81 q 571 6 492 6 m 378 1140 l 757 1140 l 757 1088 l 378 1088 l 378 1140 z "},"Ø":{"ha":1138,"x_min":65,"x_max":1072,"o":"m 569 -22 q 313 38 428 -22 q 132 212 199 97 q 65 486 65 326 q 132 760 65 646 q 313 935 199 875 q 569 994 428 994 q 825 935 711 994 q 1006 760 939 875 q 1072 486 1072 646 q 1006 212 1072 326 q 825 38 939 97 q 569 -22 711 -22 m 571 6 q 766 124 696 6 q 836 486 836 243 q 766 848 836 729 q 571 967 696 967 q 372 849 443 967 q 301 486 301 731 q 372 124 301 242 q 571 6 443 6 m 226 0 l 194 0 l 911 971 l 943 971 l 226 0 z "},"Õ":{"ha":1138,"x_min":65,"x_max":1072,"o":"m 569 -22 q 313 38 428 -22 q 132 212 199 97 q 65 486 65 326 q 132 760 65 646 q 313 935 199 875 q 569 994 428 994 q 825 935 711 994 q 1006 760 939 875 q 1072 486 1072 646 q 1006 212 1072 326 q 825 38 939 97 q 569 -22 711 -22 m 571 6 q 705 43 647 6 q 799 186 763 81 q 836 486 836 292 q 799 786 836 681 q 705 929 763 892 q 571 967 647 967 q 433 929 492 967 q 338 786 375 892 q 301 486 301 681 q 338 186 301 292 q 433 43 375 81 q 571 6 492 6 m 465 1107 q 403 1088 424 1107 q 382 1038 383 1069 l 347 1038 q 471 1192 347 1192 q 518 1183 496 1192 q 576 1156 540 1174 q 633 1128 608 1138 q 681 1119 657 1119 q 734 1139 715 1119 q 754 1190 753 1158 l 789 1190 q 762 1077 789 1117 q 672 1038 735 1038 q 626 1045 647 1038 q 568 1072 606 1053 q 513 1098 536 1089 q 465 1107 490 1107 z "},"Œ":{"ha":1429,"x_min":65,"x_max":1388,"o":"m 682 972 l 904 972 l 904 0 l 682 0 l 682 972 m 750 972 l 1388 972 l 1388 735 l 1367 735 q 1317 896 1367 847 q 1140 944 1267 944 l 750 944 l 750 972 m 850 506 l 1067 506 q 1157 521 1125 506 q 1203 575 1189 536 q 1217 688 1217 614 l 1238 688 l 1238 296 l 1217 296 q 1203 410 1217 371 q 1157 463 1189 449 q 1067 478 1125 478 l 850 478 l 850 506 m 1140 28 q 1271 46 1222 28 q 1343 108 1319 64 q 1367 235 1367 153 l 1388 235 l 1388 0 l 754 0 l 754 28 l 1140 28 m 879 76 q 738 3 817 28 q 569 -22 658 -22 q 313 38 428 -22 q 132 212 199 97 q 65 486 65 326 q 132 760 65 646 q 313 935 199 875 q 569 994 428 994 q 865 906 746 994 l 829 865 q 700 940 772 914 q 571 967 628 967 q 424 927 482 967 q 333 782 365 888 q 301 486 301 676 q 333 191 301 296 q 424 46 365 86 q 571 6 482 6 q 713 28 646 6 q 844 107 781 50 l 879 76 z "},"P":{"ha":950,"x_min":47,"x_max":888,"o":"m 47 972 l 497 972 q 774 910 661 972 q 888 696 888 847 q 775 482 888 546 q 504 418 663 418 l 326 418 l 326 446 l 447 446 q 601 499 540 446 q 663 696 663 553 q 602 893 663 842 q 447 944 542 944 l 47 944 l 47 972 m 381 972 l 381 0 l 158 0 l 158 972 l 381 972 m 492 28 l 492 0 l 47 0 l 47 28 l 492 28 z "},"Þ":{"ha":950,"x_min":47,"x_max":888,"o":"m 221 757 l 497 757 q 774 694 661 757 q 888 481 888 632 q 775 267 888 331 q 504 203 663 203 l 326 203 l 326 231 l 447 231 q 601 284 540 231 q 663 481 663 338 q 602 678 663 626 q 447 729 542 729 l 221 729 l 221 757 m 381 972 l 381 0 l 158 0 l 158 972 l 381 972 m 492 28 l 492 0 l 47 0 l 47 28 l 492 28 m 492 972 l 492 944 l 47 944 l 47 972 l 492 972 z "},"Q":{"ha":1138,"x_min":65,"x_max":1072,"o":"m 569 -22 q 313 38 428 -22 q 132 212 199 97 q 65 486 65 326 q 132 760 65 646 q 313 935 199 875 q 569 994 428 994 q 825 935 711 994 q 1006 760 939 875 q 1072 486 1072 646 q 1006 212 1072 326 q 825 38 939 97 q 569 -22 711 -22 m 571 6 q 765 127 694 6 q 836 486 836 249 q 765 845 836 724 q 571 967 694 967 q 372 846 443 967 q 301 486 301 725 q 372 126 301 247 q 571 6 443 6 m 572 -19 q 683 -44 638 -25 q 761 -117 728 -62 q 840 -220 807 -192 q 915 -249 874 -249 q 954 -239 938 -249 q 990 -210 971 -229 l 1013 -232 q 950 -278 990 -257 q 854 -300 910 -300 q 692 -259 757 -300 q 592 -147 628 -218 q 549 -67 563 -89 q 515 -31 535 -44 q 461 -11 496 -17 l 538 -18 l 572 -19 z "},"R":{"ha":1042,"x_min":49,"x_max":1065,"o":"m 49 972 l 496 972 q 889 724 889 972 q 772 533 889 592 q 496 474 656 474 l 328 474 l 328 501 l 449 501 q 602 550 540 501 q 664 724 664 599 q 633 869 664 821 q 558 931 603 918 q 449 944 513 944 l 49 944 l 49 972 m 382 972 l 382 0 l 160 0 l 160 972 l 382 972 m 493 28 l 493 0 l 49 0 l 49 28 l 493 28 m 476 501 q 648 490 582 501 q 759 440 714 478 q 825 325 804 401 l 851 222 q 881 113 868 151 q 916 51 893 75 q 975 28 939 28 q 1010 35 997 28 q 1043 64 1022 43 l 1065 42 q 1009 -3 1043 15 q 908 -22 975 -22 q 755 26 810 -22 q 679 142 700 75 q 643 313 658 210 q 587 440 629 406 q 476 474 544 474 l 476 501 z "},"Ŕ":{"ha":1042,"x_min":49,"x_max":1065,"o":"m 49 972 l 496 972 q 889 724 889 972 q 772 533 889 592 q 496 474 656 474 l 328 474 l 328 501 l 449 501 q 602 550 540 501 q 664 724 664 599 q 633 869 664 821 q 558 931 603 918 q 449 944 513 944 l 49 944 l 49 972 m 382 972 l 382 0 l 160 0 l 160 972 l 382 972 m 493 28 l 493 0 l 49 0 l 49 28 l 493 28 m 476 501 q 648 490 582 501 q 759 440 714 478 q 825 325 804 401 l 851 222 q 881 113 868 151 q 916 51 893 75 q 975 28 939 28 q 1010 35 997 28 q 1043 64 1022 43 l 1065 42 q 1009 -3 1043 15 q 908 -22 975 -22 q 755 26 810 -22 q 679 142 700 75 q 643 313 658 210 q 587 440 629 406 q 476 474 544 474 l 476 501 m 444 1038 l 425 1038 l 524 1236 q 590 1297 556 1297 q 622 1285 610 1297 q 633 1254 633 1274 q 626 1233 633 1244 q 611 1214 619 1222 l 444 1038 z "},"Ř":{"ha":1042,"x_min":49,"x_max":1065,"o":"m 49 972 l 496 972 q 889 724 889 972 q 772 533 889 592 q 496 474 656 474 l 328 474 l 328 501 l 449 501 q 602 550 540 501 q 664 724 664 599 q 633 869 664 821 q 558 931 603 918 q 449 944 513 944 l 49 944 l 49 972 m 382 972 l 382 0 l 160 0 l 160 972 l 382 972 m 493 28 l 493 0 l 49 0 l 49 28 l 493 28 m 476 501 q 648 490 582 501 q 759 440 714 478 q 825 325 804 401 l 851 222 q 881 113 868 151 q 916 51 893 75 q 975 28 939 28 q 1010 35 997 28 q 1043 64 1022 43 l 1065 42 q 1009 -3 1043 15 q 908 -22 975 -22 q 755 26 810 -22 q 679 142 700 75 q 643 313 658 210 q 587 440 629 406 q 476 474 544 474 l 476 501 m 567 1038 l 475 1038 l 319 1279 l 361 1279 l 521 1121 l 681 1279 l 722 1279 l 567 1038 z "},"Ŗ":{"ha":1042,"x_min":49,"x_max":1065,"o":"m 49 972 l 496 972 q 889 724 889 972 q 772 533 889 592 q 496 474 656 474 l 328 474 l 328 501 l 449 501 q 602 550 540 501 q 664 724 664 599 q 633 869 664 821 q 558 931 603 918 q 449 944 513 944 l 49 944 l 49 972 m 382 972 l 382 0 l 160 0 l 160 972 l 382 972 m 493 28 l 493 0 l 49 0 l 49 28 l 493 28 m 476 501 q 648 490 582 501 q 759 440 714 478 q 825 325 804 401 l 851 222 q 881 113 868 151 q 916 51 893 75 q 975 28 939 28 q 1010 35 997 28 q 1043 64 1022 43 l 1065 42 q 1009 -3 1043 15 q 908 -22 975 -22 q 755 26 810 -22 q 679 142 700 75 q 643 313 658 210 q 587 440 629 406 q 476 474 544 474 l 476 501 m 508 -233 q 460 -213 481 -233 q 440 -164 440 -193 q 463 -116 440 -136 q 514 -96 485 -96 q 578 -122 554 -96 q 601 -193 601 -147 q 460 -392 601 -307 l 451 -378 q 525 -315 493 -349 q 557 -239 557 -282 q 553 -226 557 -229 q 549 -222 550 -224 q 508 -233 526 -233 z "},"S":{"ha":883,"x_min":90,"x_max":789,"o":"m 429 994 q 535 979 492 994 q 621 939 578 964 q 649 924 636 931 q 672 918 663 918 q 699 944 699 918 l 733 944 l 733 696 l 706 696 q 655 836 693 776 q 563 928 617 896 q 450 960 510 960 q 340 924 381 960 q 300 825 300 888 q 334 729 300 769 q 436 644 368 689 l 575 553 q 692 467 651 501 q 761 383 733 432 q 789 265 789 333 q 742 108 789 172 q 617 10 694 43 q 450 -22 540 -22 q 294 5 358 -22 q 175 68 229 32 q 146 85 149 85 q 128 60 128 85 l 90 60 l 90 315 l 118 315 q 228 101 146 183 q 426 19 310 19 q 589 178 589 19 q 549 294 589 247 q 446 382 510 342 l 301 475 q 208 544 244 513 q 147 624 171 576 q 122 738 122 672 q 205 925 122 856 q 429 994 288 994 z "},"Ś":{"ha":883,"x_min":90,"x_max":789,"o":"m 429 994 q 535 979 492 994 q 621 939 578 964 q 649 924 636 931 q 672 918 663 918 q 699 944 699 918 l 733 944 l 733 696 l 706 696 q 655 836 693 776 q 563 928 617 896 q 450 960 510 960 q 340 924 381 960 q 300 825 300 888 q 334 729 300 769 q 436 644 368 689 l 575 553 q 692 467 651 501 q 761 383 733 432 q 789 265 789 333 q 742 108 789 172 q 617 10 694 43 q 450 -22 540 -22 q 294 5 358 -22 q 175 68 229 32 q 146 85 149 85 q 128 60 128 85 l 90 60 l 90 315 l 118 315 q 228 101 146 183 q 426 19 310 19 q 589 178 589 19 q 549 294 589 247 q 446 382 510 342 l 301 475 q 208 544 244 513 q 147 624 171 576 q 122 738 122 672 q 205 925 122 856 q 429 994 288 994 m 365 1038 l 346 1038 l 444 1236 q 511 1297 476 1297 q 542 1285 531 1297 q 554 1254 554 1274 q 547 1233 554 1244 q 532 1214 540 1222 l 365 1038 z "},"Š":{"ha":883,"x_min":90,"x_max":789,"o":"m 429 994 q 535 979 492 994 q 621 939 578 964 q 649 924 636 931 q 672 918 663 918 q 699 944 699 918 l 733 944 l 733 696 l 706 696 q 655 836 693 776 q 563 928 617 896 q 450 960 510 960 q 340 924 381 960 q 300 825 300 888 q 334 729 300 769 q 436 644 368 689 l 575 553 q 692 467 651 501 q 761 383 733 432 q 789 265 789 333 q 742 108 789 172 q 617 10 694 43 q 450 -22 540 -22 q 294 5 358 -22 q 175 68 229 32 q 146 85 149 85 q 128 60 128 85 l 90 60 l 90 315 l 118 315 q 228 101 146 183 q 426 19 310 19 q 589 178 589 19 q 549 294 589 247 q 446 382 510 342 l 301 475 q 208 544 244 513 q 147 624 171 576 q 122 738 122 672 q 205 925 122 856 q 429 994 288 994 m 488 1038 l 396 1038 l 240 1279 l 282 1279 l 442 1121 l 601 1279 l 643 1279 l 488 1038 z "},"Ş":{"ha":883,"x_min":90,"x_max":789,"o":"m 429 994 q 535 979 492 994 q 621 939 578 964 q 649 924 636 931 q 672 918 663 918 q 699 944 699 918 l 733 944 l 733 696 l 706 696 q 655 836 693 776 q 563 928 617 896 q 450 960 510 960 q 340 924 381 960 q 300 825 300 888 q 334 729 300 769 q 436 644 368 689 l 575 553 q 692 467 651 501 q 761 383 733 432 q 789 265 789 333 q 742 108 789 172 q 617 10 694 43 q 450 -22 540 -22 q 294 5 358 -22 q 175 68 229 32 q 146 85 149 85 q 128 60 128 85 l 90 60 l 90 315 l 118 315 q 228 101 146 183 q 426 19 310 19 q 589 178 589 19 q 549 294 589 247 q 446 382 510 342 l 301 475 q 208 544 244 513 q 147 624 171 576 q 122 738 122 672 q 205 925 122 856 q 429 994 288 994 m 400 -99 q 468 -79 429 -79 q 540 -103 506 -79 q 575 -182 575 -128 q 542 -266 575 -232 q 447 -300 508 -300 q 313 -242 371 -300 l 332 -217 q 418 -261 378 -261 q 467 -240 449 -261 q 485 -174 485 -218 q 469 -128 485 -143 q 432 -114 453 -114 q 374 -143 399 -114 l 349 -128 l 424 0 l 457 0 l 400 -99 z "},"Ŝ":{"ha":883,"x_min":90,"x_max":789,"o":"m 429 994 q 535 979 492 994 q 621 939 578 964 q 649 924 636 931 q 672 918 663 918 q 699 944 699 918 l 733 944 l 733 696 l 706 696 q 655 836 693 776 q 563 928 617 896 q 450 960 510 960 q 340 924 381 960 q 300 825 300 888 q 334 729 300 769 q 436 644 368 689 l 575 553 q 692 467 651 501 q 761 383 733 432 q 789 265 789 333 q 742 108 789 172 q 617 10 694 43 q 450 -22 540 -22 q 294 5 358 -22 q 175 68 229 32 q 146 85 149 85 q 128 60 128 85 l 90 60 l 90 315 l 118 315 q 228 101 146 183 q 426 19 310 19 q 589 178 589 19 q 549 294 589 247 q 446 382 510 342 l 301 475 q 208 544 244 513 q 147 624 171 576 q 122 738 122 672 q 205 925 122 856 q 429 994 288 994 m 396 1279 l 488 1279 l 643 1038 l 601 1038 l 442 1196 l 282 1038 l 240 1038 l 396 1279 z "},"Ș":{"ha":883,"x_min":90,"x_max":789,"o":"m 429 994 q 535 979 492 994 q 621 939 578 964 q 649 924 636 931 q 672 918 663 918 q 699 944 699 918 l 733 944 l 733 696 l 706 696 q 655 836 693 776 q 563 928 617 896 q 450 960 510 960 q 340 924 381 960 q 300 825 300 888 q 334 729 300 769 q 436 644 368 689 l 575 553 q 692 467 651 501 q 761 383 733 432 q 789 265 789 333 q 742 108 789 172 q 617 10 694 43 q 450 -22 540 -22 q 294 5 358 -22 q 175 68 229 32 q 146 85 149 85 q 128 60 128 85 l 90 60 l 90 315 l 118 315 q 228 101 146 183 q 426 19 310 19 q 589 178 589 19 q 549 294 589 247 q 446 382 510 342 l 301 475 q 208 544 244 513 q 147 624 171 576 q 122 738 122 672 q 205 925 122 856 q 429 994 288 994 m 429 -233 q 381 -213 401 -233 q 361 -164 361 -193 q 383 -116 361 -136 q 435 -96 406 -96 q 499 -122 475 -96 q 522 -193 522 -147 q 381 -392 522 -307 l 372 -378 q 446 -315 414 -349 q 478 -239 478 -282 q 474 -226 478 -229 q 469 -222 471 -224 q 429 -233 447 -233 z "},"ẞ":{"ha":1197,"x_min":49,"x_max":1119,"o":"m 192 507 q 258 751 192 639 q 441 928 324 863 q 707 994 558 994 q 872 961 800 994 q 986 885 944 928 l 729 488 l 614 488 l 878 894 q 822 943 867 919 q 710 967 778 967 q 566 928 633 967 q 456 810 499 890 q 414 613 414 731 l 414 0 l 192 0 l 192 507 m 49 28 l 557 28 l 557 0 l 49 0 l 49 28 m 690 515 l 769 515 q 1033 440 947 515 q 1119 246 1119 364 q 1072 98 1119 158 q 947 8 1025 38 q 776 -22 869 -22 q 595 36 663 -22 q 504 186 528 94 l 539 197 q 614 60 560 113 q 760 7 668 7 q 863 58 831 7 q 894 224 894 110 q 881 378 894 324 q 826 460 868 432 q 700 488 785 488 l 621 488 l 644 515 l 690 515 z "},"Ə":{"ha":1008,"x_min":56,"x_max":946,"o":"m 119 653 l 119 913 l 146 913 q 169 876 146 876 q 197 888 179 876 q 217 901 214 899 q 333 969 272 943 q 489 994 393 994 q 717 933 613 994 q 884 758 822 872 q 946 488 946 643 q 889 217 946 332 q 726 40 832 101 q 476 -22 621 -22 q 253 33 349 -22 q 107 188 158 89 q 56 414 56 286 l 286 414 q 478 6 279 6 q 652 135 594 6 q 710 488 710 264 q 638 831 710 708 q 419 953 565 953 q 294 916 354 953 q 193 810 233 879 q 147 653 153 742 l 119 653 m 74 385 l 57 414 l 751 414 l 751 385 l 74 385 z "},"T":{"ha":992,"x_min":54,"x_max":938,"o":"m 383 972 l 606 972 l 606 0 l 383 0 l 383 972 m 240 28 l 749 28 l 749 0 l 240 0 l 240 28 m 938 972 l 938 719 l 910 719 q 890 854 910 808 q 806 922 871 900 q 606 944 742 944 l 606 972 l 938 972 m 383 944 q 184 922 249 944 q 101 854 119 900 q 82 719 82 808 l 54 719 l 54 972 l 383 972 l 383 944 z "},"Ť":{"ha":992,"x_min":54,"x_max":938,"o":"m 383 972 l 606 972 l 606 0 l 383 0 l 383 972 m 240 28 l 749 28 l 749 0 l 240 0 l 240 28 m 938 972 l 938 719 l 910 719 q 890 854 910 808 q 806 922 871 900 q 606 944 742 944 l 606 972 l 938 972 m 383 944 q 184 922 249 944 q 101 854 119 900 q 82 719 82 808 l 54 719 l 54 972 l 383 972 l 383 944 m 542 1038 l 450 1038 l 294 1279 l 336 1279 l 496 1121 l 656 1279 l 697 1279 l 542 1038 z "},"Ţ":{"ha":992,"x_min":54,"x_max":938,"o":"m 383 972 l 606 972 l 606 0 l 383 0 l 383 972 m 240 28 l 749 28 l 749 0 l 240 0 l 240 28 m 938 972 l 938 719 l 910 719 q 890 854 910 808 q 806 922 871 900 q 606 944 742 944 l 606 972 l 938 972 m 383 944 q 184 922 249 944 q 101 854 119 900 q 82 719 82 808 l 54 719 l 54 972 l 383 972 l 383 944 m 454 -99 q 522 -79 483 -79 q 594 -103 560 -79 q 629 -182 629 -128 q 596 -266 629 -232 q 501 -300 563 -300 q 367 -242 425 -300 l 386 -217 q 472 -261 432 -261 q 521 -240 503 -261 q 539 -174 539 -218 q 523 -128 539 -143 q 486 -114 507 -114 q 428 -143 453 -114 l 403 -128 l 478 0 l 511 0 l 454 -99 z "},"Ț":{"ha":992,"x_min":54,"x_max":938,"o":"m 383 972 l 606 972 l 606 0 l 383 0 l 383 972 m 240 28 l 749 28 l 749 0 l 240 0 l 240 28 m 938 972 l 938 719 l 910 719 q 890 854 910 808 q 806 922 871 900 q 606 944 742 944 l 606 972 l 938 972 m 383 944 q 184 922 249 944 q 101 854 119 900 q 82 719 82 808 l 54 719 l 54 972 l 383 972 l 383 944 m 483 -233 q 435 -213 456 -233 q 415 -164 415 -193 q 438 -116 415 -136 q 489 -96 460 -96 q 553 -122 529 -96 q 576 -193 576 -147 q 435 -392 576 -307 l 426 -378 q 500 -315 468 -349 q 532 -239 532 -282 q 528 -226 532 -229 q 524 -222 525 -224 q 483 -233 501 -233 z "},"U":{"ha":1013,"x_min":42,"x_max":982,"o":"m 375 972 l 375 246 q 437 81 375 142 q 608 19 499 19 q 778 88 717 19 q 839 293 839 157 l 839 972 l 871 972 l 871 307 q 786 53 871 129 q 528 -22 701 -22 q 256 60 358 -22 q 153 307 153 142 l 153 972 l 375 972 m 486 972 l 486 944 l 42 944 l 42 972 l 486 972 m 982 972 l 982 944 l 728 944 l 728 972 l 982 972 z "},"Ú":{"ha":1013,"x_min":42,"x_max":982,"o":"m 375 972 l 375 246 q 437 81 375 142 q 608 19 499 19 q 778 88 717 19 q 839 293 839 157 l 839 972 l 871 972 l 871 307 q 786 53 871 129 q 528 -22 701 -22 q 256 60 358 -22 q 153 307 153 142 l 153 972 l 375 972 m 486 972 l 486 944 l 42 944 l 42 972 l 486 972 m 982 972 l 982 944 l 728 944 l 728 972 l 982 972 m 474 1038 l 454 1038 l 553 1236 q 619 1297 585 1297 q 651 1285 639 1297 q 663 1254 663 1274 q 656 1233 663 1244 q 640 1214 649 1222 l 474 1038 z "},"Ŭ":{"ha":1013,"x_min":42,"x_max":982,"o":"m 375 972 l 375 246 q 437 81 375 142 q 608 19 499 19 q 778 88 717 19 q 839 293 839 157 l 839 972 l 871 972 l 871 307 q 786 53 871 129 q 528 -22 701 -22 q 256 60 358 -22 q 153 307 153 142 l 153 972 l 375 972 m 486 972 l 486 944 l 42 944 l 42 972 l 486 972 m 982 972 l 982 944 l 728 944 l 728 972 l 982 972 m 746 1258 q 694 1100 746 1163 q 551 1038 642 1038 q 409 1100 461 1038 q 357 1258 357 1163 l 393 1258 q 428 1162 393 1204 q 550 1119 463 1119 q 674 1162 638 1119 q 710 1258 710 1204 l 746 1258 z "},"Ǔ":{"ha":1013,"x_min":42,"x_max":982,"o":"m 375 972 l 375 246 q 437 81 375 142 q 608 19 499 19 q 778 88 717 19 q 839 293 839 157 l 839 972 l 871 972 l 871 307 q 786 53 871 129 q 528 -22 701 -22 q 256 60 358 -22 q 153 307 153 142 l 153 972 l 375 972 m 486 972 l 486 944 l 42 944 l 42 972 l 486 972 m 982 972 l 982 944 l 728 944 l 728 972 l 982 972 m 597 1038 l 506 1038 l 350 1279 l 392 1279 l 551 1121 l 711 1279 l 753 1279 l 597 1038 z "},"Û":{"ha":1013,"x_min":42,"x_max":982,"o":"m 375 972 l 375 246 q 437 81 375 142 q 608 19 499 19 q 778 88 717 19 q 839 293 839 157 l 839 972 l 871 972 l 871 307 q 786 53 871 129 q 528 -22 701 -22 q 256 60 358 -22 q 153 307 153 142 l 153 972 l 375 972 m 486 972 l 486 944 l 42 944 l 42 972 l 486 972 m 982 972 l 982 944 l 728 944 l 728 972 l 982 972 m 506 1279 l 597 1279 l 753 1038 l 711 1038 l 551 1196 l 392 1038 l 350 1038 l 506 1279 z "},"Ü":{"ha":1013,"x_min":42,"x_max":982,"o":"m 375 972 l 375 246 q 437 81 375 142 q 608 19 499 19 q 778 88 717 19 q 839 293 839 157 l 839 972 l 871 972 l 871 307 q 786 53 871 129 q 528 -22 701 -22 q 256 60 358 -22 q 153 307 153 142 l 153 972 l 375 972 m 486 972 l 486 944 l 42 944 l 42 972 l 486 972 m 982 972 l 982 944 l 728 944 l 728 972 l 982 972 m 415 1086 q 358 1110 381 1086 q 335 1168 335 1133 q 358 1224 335 1201 q 415 1247 382 1247 q 471 1224 447 1247 q 494 1168 494 1200 q 471 1110 494 1133 q 415 1086 447 1086 m 688 1086 q 631 1110 654 1086 q 607 1168 607 1133 q 631 1224 607 1200 q 688 1247 654 1247 q 743 1224 719 1247 q 767 1168 767 1200 q 743 1110 767 1133 q 688 1086 719 1086 z "},"Ǘ":{"ha":1013,"x_min":42,"x_max":982,"o":"m 375 972 l 375 246 q 437 81 375 142 q 608 19 499 19 q 778 88 717 19 q 839 293 839 157 l 839 972 l 871 972 l 871 307 q 786 53 871 129 q 528 -22 701 -22 q 256 60 358 -22 q 153 307 153 142 l 153 972 l 375 972 m 486 972 l 486 944 l 42 944 l 42 972 l 486 972 m 982 972 l 982 944 l 728 944 l 728 972 l 982 972 m 415 1086 q 358 1110 381 1086 q 335 1168 335 1133 q 358 1224 335 1201 q 415 1247 382 1247 q 471 1224 447 1247 q 494 1168 494 1200 q 471 1110 494 1133 q 415 1086 447 1086 m 688 1086 q 631 1110 654 1086 q 607 1168 607 1133 q 631 1224 607 1200 q 688 1247 654 1247 q 743 1224 719 1247 q 767 1168 767 1200 q 743 1110 767 1133 q 688 1086 719 1086 m 474 1269 l 454 1269 l 553 1468 q 619 1529 585 1529 q 651 1517 639 1529 q 663 1486 663 1506 q 656 1465 663 1476 q 640 1446 649 1454 l 474 1269 z "},"Ǚ":{"ha":1013,"x_min":42,"x_max":982,"o":"m 375 972 l 375 246 q 437 81 375 142 q 608 19 499 19 q 778 88 717 19 q 839 293 839 157 l 839 972 l 871 972 l 871 307 q 786 53 871 129 q 528 -22 701 -22 q 256 60 358 -22 q 153 307 153 142 l 153 972 l 375 972 m 486 972 l 486 944 l 42 944 l 42 972 l 486 972 m 982 972 l 982 944 l 728 944 l 728 972 l 982 972 m 415 1086 q 358 1110 381 1086 q 335 1168 335 1133 q 358 1224 335 1201 q 415 1247 382 1247 q 471 1224 447 1247 q 494 1168 494 1200 q 471 1110 494 1133 q 415 1086 447 1086 m 688 1086 q 631 1110 654 1086 q 607 1168 607 1133 q 631 1224 607 1200 q 688 1247 654 1247 q 743 1224 719 1247 q 767 1168 767 1200 q 743 1110 767 1133 q 688 1086 719 1086 m 597 1269 l 506 1269 l 350 1511 l 392 1511 l 551 1353 l 711 1511 l 753 1511 l 597 1269 z "},"Ǜ":{"ha":1013,"x_min":42,"x_max":982,"o":"m 375 972 l 375 246 q 437 81 375 142 q 608 19 499 19 q 778 88 717 19 q 839 293 839 157 l 839 972 l 871 972 l 871 307 q 786 53 871 129 q 528 -22 701 -22 q 256 60 358 -22 q 153 307 153 142 l 153 972 l 375 972 m 486 972 l 486 944 l 42 944 l 42 972 l 486 972 m 982 972 l 982 944 l 728 944 l 728 972 l 982 972 m 415 1086 q 358 1110 381 1086 q 335 1168 335 1133 q 358 1224 335 1201 q 415 1247 382 1247 q 471 1224 447 1247 q 494 1168 494 1200 q 471 1110 494 1133 q 415 1086 447 1086 m 688 1086 q 631 1110 654 1086 q 607 1168 607 1133 q 631 1224 607 1200 q 688 1247 654 1247 q 743 1224 719 1247 q 767 1168 767 1200 q 743 1110 767 1133 q 688 1086 719 1086 m 461 1446 q 440 1486 440 1469 q 452 1517 440 1506 q 483 1529 464 1529 q 519 1512 504 1529 q 549 1468 535 1494 l 653 1269 l 633 1269 l 461 1446 z "},"Ǖ":{"ha":1013,"x_min":42,"x_max":982,"o":"m 375 972 l 375 246 q 437 81 375 142 q 608 19 499 19 q 778 88 717 19 q 839 293 839 157 l 839 972 l 871 972 l 871 307 q 786 53 871 129 q 528 -22 701 -22 q 256 60 358 -22 q 153 307 153 142 l 153 972 l 375 972 m 486 972 l 486 944 l 42 944 l 42 972 l 486 972 m 982 972 l 982 944 l 728 944 l 728 972 l 982 972 m 415 1086 q 358 1110 381 1086 q 335 1168 335 1133 q 358 1224 335 1201 q 415 1247 382 1247 q 471 1224 447 1247 q 494 1168 494 1200 q 471 1110 494 1133 q 415 1086 447 1086 m 688 1086 q 631 1110 654 1086 q 607 1168 607 1133 q 631 1224 607 1200 q 688 1247 654 1247 q 743 1224 719 1247 q 767 1168 767 1200 q 743 1110 767 1133 q 688 1086 719 1086 m 361 1372 l 740 1372 l 740 1319 l 361 1319 l 361 1372 z "},"Ụ":{"ha":1013,"x_min":42,"x_max":982,"o":"m 375 972 l 375 246 q 437 81 375 142 q 608 19 499 19 q 778 88 717 19 q 839 293 839 157 l 839 972 l 871 972 l 871 307 q 786 53 871 129 q 528 -22 701 -22 q 256 60 358 -22 q 153 307 153 142 l 153 972 l 375 972 m 486 972 l 486 944 l 42 944 l 42 972 l 486 972 m 982 972 l 982 944 l 728 944 l 728 972 l 982 972 m 507 -300 q 450 -276 474 -300 q 426 -219 426 -253 q 450 -163 426 -186 q 507 -140 474 -140 q 563 -163 539 -140 q 586 -219 586 -186 q 563 -276 586 -253 q 507 -300 539 -300 z "},"Ù":{"ha":1013,"x_min":42,"x_max":982,"o":"m 375 972 l 375 246 q 437 81 375 142 q 608 19 499 19 q 778 88 717 19 q 839 293 839 157 l 839 972 l 871 972 l 871 307 q 786 53 871 129 q 528 -22 701 -22 q 256 60 358 -22 q 153 307 153 142 l 153 972 l 375 972 m 486 972 l 486 944 l 42 944 l 42 972 l 486 972 m 982 972 l 982 944 l 728 944 l 728 972 l 982 972 m 461 1214 q 440 1254 440 1238 q 452 1285 440 1274 q 483 1297 464 1297 q 519 1280 504 1297 q 549 1236 535 1263 l 653 1038 l 633 1038 l 461 1214 z "},"Ủ":{"ha":1013,"x_min":42,"x_max":982,"o":"m 375 972 l 375 246 q 437 81 375 142 q 608 19 499 19 q 778 88 717 19 q 839 293 839 157 l 839 972 l 871 972 l 871 307 q 786 53 871 129 q 528 -22 701 -22 q 256 60 358 -22 q 153 307 153 142 l 153 972 l 375 972 m 486 972 l 486 944 l 42 944 l 42 972 l 486 972 m 982 972 l 982 944 l 728 944 l 728 972 l 982 972 m 379 1258 q 481 1288 431 1288 q 547 1272 517 1288 q 594 1224 576 1256 q 613 1157 613 1192 q 587 1077 613 1115 q 519 1015 561 1039 l 507 1033 q 541 1067 526 1046 q 556 1118 556 1089 q 535 1186 556 1150 q 438 1253 499 1253 q 390 1240 410 1253 l 379 1258 z "},"Ű":{"ha":1013,"x_min":42,"x_max":982,"o":"m 375 972 l 375 246 q 437 81 375 142 q 608 19 499 19 q 778 88 717 19 q 839 293 839 157 l 839 972 l 871 972 l 871 307 q 786 53 871 129 q 528 -22 701 -22 q 256 60 358 -22 q 153 307 153 142 l 153 972 l 375 972 m 486 972 l 486 944 l 42 944 l 42 972 l 486 972 m 982 972 l 982 944 l 728 944 l 728 972 l 982 972 m 457 1038 l 438 1038 l 536 1236 q 603 1297 568 1297 q 634 1285 622 1297 q 646 1254 646 1274 q 639 1233 646 1244 q 624 1214 632 1222 l 457 1038 m 607 1038 l 588 1038 l 686 1236 q 715 1280 700 1263 q 751 1297 731 1297 q 783 1285 771 1297 q 796 1254 796 1274 q 789 1233 796 1244 q 774 1214 782 1222 l 607 1038 z "},"Ū":{"ha":1013,"x_min":42,"x_max":982,"o":"m 375 972 l 375 246 q 437 81 375 142 q 608 19 499 19 q 778 88 717 19 q 839 293 839 157 l 839 972 l 871 972 l 871 307 q 786 53 871 129 q 528 -22 701 -22 q 256 60 358 -22 q 153 307 153 142 l 153 972 l 375 972 m 486 972 l 486 944 l 42 944 l 42 972 l 486 972 m 982 972 l 982 944 l 728 944 l 728 972 l 982 972 m 361 1140 l 740 1140 l 740 1088 l 361 1088 l 361 1140 z "},"Ų":{"ha":1013,"x_min":42,"x_max":982,"o":"m 375 972 l 375 246 q 437 81 375 142 q 608 19 499 19 q 778 88 717 19 q 839 293 839 157 l 839 972 l 871 972 l 871 307 q 786 53 871 129 q 528 -22 701 -22 q 256 60 358 -22 q 153 307 153 142 l 153 972 l 375 972 m 486 972 l 486 944 l 42 944 l 42 972 l 486 972 m 982 972 l 982 944 l 728 944 l 728 972 l 982 972 m 856 14 q 711 -147 711 -61 q 731 -188 711 -169 q 785 -207 750 -207 q 840 -196 807 -207 l 863 -225 q 802 -266 842 -246 q 714 -286 763 -286 q 626 -258 657 -286 q 594 -187 594 -229 q 644 -90 594 -143 q 803 14 694 -36 l 856 14 z "},"Ů":{"ha":1013,"x_min":42,"x_max":982,"o":"m 375 972 l 375 246 q 437 81 375 142 q 608 19 499 19 q 778 88 717 19 q 839 293 839 157 l 839 972 l 871 972 l 871 307 q 786 53 871 129 q 528 -22 701 -22 q 256 60 358 -22 q 153 307 153 142 l 153 972 l 375 972 m 486 972 l 486 944 l 42 944 l 42 972 l 486 972 m 982 972 l 982 944 l 728 944 l 728 972 l 982 972 m 536 1026 q 431 1063 469 1026 q 392 1156 392 1100 q 431 1247 392 1211 q 536 1283 469 1283 q 640 1247 601 1283 q 678 1156 678 1211 q 640 1063 678 1100 q 536 1026 601 1026 m 536 1046 q 589 1076 569 1046 q 608 1156 608 1107 q 589 1233 608 1203 q 536 1264 569 1264 q 481 1233 501 1264 q 461 1156 461 1203 q 481 1076 461 1107 q 536 1046 500 1046 z "},"Ũ":{"ha":1013,"x_min":42,"x_max":982,"o":"m 375 972 l 375 246 q 437 81 375 142 q 608 19 499 19 q 778 88 717 19 q 839 293 839 157 l 839 972 l 871 972 l 871 307 q 786 53 871 129 q 528 -22 701 -22 q 256 60 358 -22 q 153 307 153 142 l 153 972 l 375 972 m 486 972 l 486 944 l 42 944 l 42 972 l 486 972 m 982 972 l 982 944 l 728 944 l 728 972 l 982 972 m 449 1107 q 387 1088 407 1107 q 365 1038 367 1069 l 331 1038 q 454 1192 331 1192 q 501 1183 479 1192 q 560 1156 524 1174 q 616 1128 592 1138 q 664 1119 640 1119 q 717 1139 699 1119 q 738 1190 736 1158 l 772 1190 q 745 1077 772 1117 q 656 1038 718 1038 q 610 1045 631 1038 q 551 1072 589 1053 q 497 1098 519 1089 q 449 1107 474 1107 z "},"V":{"ha":892,"x_min":-24,"x_max":915,"o":"m 324 972 l 576 311 l 460 0 l 88 972 l 324 972 m 438 972 l 438 944 l -24 944 l -24 972 l 438 972 m 497 0 l 460 0 l 767 972 l 804 972 l 497 0 m 915 944 l 656 944 l 656 972 l 915 972 l 915 944 z "},"W":{"ha":1436,"x_min":-17,"x_max":1453,"o":"m 331 972 l 589 328 l 467 0 l 94 972 l 331 972 m 444 972 l 444 944 l -17 944 l -17 972 l 444 972 m 503 0 l 467 0 l 772 932 l 807 932 l 503 0 m 851 972 l 1110 328 l 988 0 l 615 972 l 851 972 m 965 972 l 965 944 l 504 944 l 504 972 l 965 972 m 1024 0 l 988 0 l 1306 972 l 1342 972 l 1024 0 m 1453 944 l 1194 944 l 1194 972 l 1453 972 l 1453 944 z "},"Ẃ":{"ha":1436,"x_min":-17,"x_max":1453,"o":"m 331 972 l 589 328 l 467 0 l 94 972 l 331 972 m 444 972 l 444 944 l -17 944 l -17 972 l 444 972 m 503 0 l 467 0 l 772 932 l 807 932 l 503 0 m 851 972 l 1110 328 l 988 0 l 615 972 l 851 972 m 965 972 l 965 944 l 504 944 l 504 972 l 965 972 m 1024 0 l 988 0 l 1306 972 l 1342 972 l 1024 0 m 1453 944 l 1194 944 l 1194 972 l 1453 972 l 1453 944 m 642 1038 l 622 1038 l 721 1236 q 788 1297 753 1297 q 819 1285 807 1297 q 831 1254 831 1274 q 824 1233 831 1244 q 808 1214 817 1222 l 642 1038 z "},"Ŵ":{"ha":1436,"x_min":-17,"x_max":1453,"o":"m 331 972 l 589 328 l 467 0 l 94 972 l 331 972 m 444 972 l 444 944 l -17 944 l -17 972 l 444 972 m 503 0 l 467 0 l 772 932 l 807 932 l 503 0 m 851 972 l 1110 328 l 988 0 l 615 972 l 851 972 m 965 972 l 965 944 l 504 944 l 504 972 l 965 972 m 1024 0 l 988 0 l 1306 972 l 1342 972 l 1024 0 m 1453 944 l 1194 944 l 1194 972 l 1453 972 l 1453 944 m 672 1279 l 764 1279 l 919 1038 l 878 1038 l 718 1196 l 558 1038 l 517 1038 l 672 1279 z "},"Ẅ":{"ha":1436,"x_min":-17,"x_max":1453,"o":"m 331 972 l 589 328 l 467 0 l 94 972 l 331 972 m 444 972 l 444 944 l -17 944 l -17 972 l 444 972 m 503 0 l 467 0 l 772 932 l 807 932 l 503 0 m 851 972 l 1110 328 l 988 0 l 615 972 l 851 972 m 965 972 l 965 944 l 504 944 l 504 972 l 965 972 m 1024 0 l 988 0 l 1306 972 l 1342 972 l 1024 0 m 1453 944 l 1194 944 l 1194 972 l 1453 972 l 1453 944 m 582 1086 q 524 1110 547 1086 q 501 1168 501 1133 q 525 1224 501 1201 q 582 1247 549 1247 q 638 1224 614 1247 q 661 1168 661 1200 q 638 1110 661 1133 q 582 1086 614 1086 m 854 1086 q 797 1110 821 1086 q 774 1168 774 1133 q 797 1224 774 1200 q 854 1247 821 1247 q 910 1224 886 1247 q 933 1168 933 1200 q 910 1110 933 1133 q 854 1086 886 1086 z "},"Ẁ":{"ha":1436,"x_min":-17,"x_max":1453,"o":"m 331 972 l 589 328 l 467 0 l 94 972 l 331 972 m 444 972 l 444 944 l -17 944 l -17 972 l 444 972 m 503 0 l 467 0 l 772 932 l 807 932 l 503 0 m 851 972 l 1110 328 l 988 0 l 615 972 l 851 972 m 965 972 l 965 944 l 504 944 l 504 972 l 965 972 m 1024 0 l 988 0 l 1306 972 l 1342 972 l 1024 0 m 1453 944 l 1194 944 l 1194 972 l 1453 972 l 1453 944 m 628 1214 q 607 1254 607 1238 q 619 1285 607 1274 q 650 1297 631 1297 q 686 1280 671 1297 q 715 1236 701 1263 l 819 1038 l 800 1038 l 628 1214 z "},"X":{"ha":1092,"x_min":19,"x_max":1083,"o":"m 394 972 l 972 0 l 736 0 l 158 972 l 394 972 m 506 972 l 506 944 l 47 944 l 47 972 l 506 972 m 1083 28 l 1083 0 l 625 0 l 625 28 l 1083 28 m 168 0 l 131 0 l 867 972 l 904 972 l 168 0 m 1015 944 l 756 944 l 756 972 l 1015 972 l 1015 944 m 279 0 l 19 0 l 19 28 l 279 28 l 279 0 z "},"Y":{"ha":1022,"x_min":-18,"x_max":1040,"o":"m 329 972 l 665 393 l 551 183 l 93 972 l 329 972 m 440 972 l 440 944 l -18 944 l -18 972 l 440 972 m 586 183 l 551 183 l 894 972 l 929 972 l 586 183 m 1040 944 l 783 944 l 783 972 l 1040 972 l 1040 944 m 665 388 l 665 0 l 443 0 l 443 388 l 665 388 m 776 28 l 776 0 l 332 0 l 332 28 l 776 28 z "},"Ý":{"ha":1022,"x_min":-18,"x_max":1040,"o":"m 329 972 l 665 393 l 551 183 l 93 972 l 329 972 m 440 972 l 440 944 l -18 944 l -18 972 l 440 972 m 586 183 l 551 183 l 894 972 l 929 972 l 586 183 m 1040 944 l 783 944 l 783 972 l 1040 972 l 1040 944 m 665 388 l 665 0 l 443 0 l 443 388 l 665 388 m 776 28 l 776 0 l 332 0 l 332 28 l 776 28 m 557 1038 l 538 1038 l 636 1236 q 703 1297 668 1297 q 734 1285 722 1297 q 746 1254 746 1274 q 739 1233 746 1244 q 724 1214 732 1222 l 557 1038 z "},"Ŷ":{"ha":1022,"x_min":-18,"x_max":1040,"o":"m 329 972 l 665 393 l 551 183 l 93 972 l 329 972 m 440 972 l 440 944 l -18 944 l -18 972 l 440 972 m 586 183 l 551 183 l 894 972 l 929 972 l 586 183 m 1040 944 l 783 944 l 783 972 l 1040 972 l 1040 944 m 665 388 l 665 0 l 443 0 l 443 388 l 665 388 m 776 28 l 776 0 l 332 0 l 332 28 l 776 28 m 588 1279 l 679 1279 l 835 1038 l 793 1038 l 633 1196 l 474 1038 l 432 1038 l 588 1279 z "},"Ÿ":{"ha":1022,"x_min":-18,"x_max":1040,"o":"m 329 972 l 665 393 l 551 183 l 93 972 l 329 972 m 440 972 l 440 944 l -18 944 l -18 972 l 440 972 m 586 183 l 551 183 l 894 972 l 929 972 l 586 183 m 1040 944 l 783 944 l 783 972 l 1040 972 l 1040 944 m 665 388 l 665 0 l 443 0 l 443 388 l 665 388 m 776 28 l 776 0 l 332 0 l 332 28 l 776 28 m 497 1086 q 440 1110 463 1086 q 417 1168 417 1133 q 440 1224 417 1201 q 497 1247 464 1247 q 553 1224 529 1247 q 576 1168 576 1200 q 553 1110 576 1133 q 497 1086 529 1086 m 769 1086 q 713 1110 736 1086 q 689 1168 689 1133 q 713 1224 689 1200 q 769 1247 736 1247 q 825 1224 801 1247 q 849 1168 849 1200 q 825 1110 849 1133 q 769 1086 801 1086 z "},"Ỵ":{"ha":1022,"x_min":-18,"x_max":1040,"o":"m 329 972 l 665 393 l 551 183 l 93 972 l 329 972 m 440 972 l 440 944 l -18 944 l -18 972 l 440 972 m 586 183 l 551 183 l 894 972 l 929 972 l 586 183 m 1040 944 l 783 944 l 783 972 l 1040 972 l 1040 944 m 665 388 l 665 0 l 443 0 l 443 388 l 665 388 m 776 28 l 776 0 l 332 0 l 332 28 l 776 28 m 511 -300 q 454 -276 478 -300 q 431 -219 431 -253 q 454 -163 431 -186 q 511 -140 478 -140 q 567 -163 543 -140 q 590 -219 590 -186 q 567 -276 590 -253 q 511 -300 543 -300 z "},"Ỳ":{"ha":1022,"x_min":-18,"x_max":1040,"o":"m 329 972 l 665 393 l 551 183 l 93 972 l 329 972 m 440 972 l 440 944 l -18 944 l -18 972 l 440 972 m 586 183 l 551 183 l 894 972 l 929 972 l 586 183 m 1040 944 l 783 944 l 783 972 l 1040 972 l 1040 944 m 665 388 l 665 0 l 443 0 l 443 388 l 665 388 m 776 28 l 776 0 l 332 0 l 332 28 l 776 28 m 543 1214 q 522 1254 522 1238 q 534 1285 522 1274 q 565 1297 546 1297 q 601 1280 586 1297 q 631 1236 617 1263 l 735 1038 l 715 1038 l 543 1214 z "},"Ỷ":{"ha":1022,"x_min":-18,"x_max":1040,"o":"m 329 972 l 665 393 l 551 183 l 93 972 l 329 972 m 440 972 l 440 944 l -18 944 l -18 972 l 440 972 m 586 183 l 551 183 l 894 972 l 929 972 l 586 183 m 1040 944 l 783 944 l 783 972 l 1040 972 l 1040 944 m 665 388 l 665 0 l 443 0 l 443 388 l 665 388 m 776 28 l 776 0 l 332 0 l 332 28 l 776 28 m 461 1258 q 563 1288 513 1288 q 628 1272 599 1288 q 676 1224 658 1256 q 694 1157 694 1192 q 669 1077 694 1115 q 601 1015 643 1039 l 589 1033 q 623 1067 608 1046 q 638 1118 638 1089 q 617 1186 638 1150 q 519 1253 581 1253 q 472 1240 492 1253 l 461 1258 z "},"Ỹ":{"ha":1022,"x_min":-18,"x_max":1040,"o":"m 329 972 l 665 393 l 551 183 l 93 972 l 329 972 m 440 972 l 440 944 l -18 944 l -18 972 l 440 972 m 586 183 l 551 183 l 894 972 l 929 972 l 586 183 m 1040 944 l 783 944 l 783 972 l 1040 972 l 1040 944 m 665 388 l 665 0 l 443 0 l 443 388 l 665 388 m 776 28 l 776 0 l 332 0 l 332 28 l 776 28 m 531 1107 q 469 1088 489 1107 q 447 1038 449 1069 l 413 1038 q 536 1192 413 1192 q 583 1183 561 1192 q 642 1156 606 1174 q 698 1128 674 1138 q 746 1119 722 1119 q 799 1139 781 1119 q 819 1190 818 1158 l 854 1190 q 827 1077 854 1117 q 738 1038 800 1038 q 692 1045 713 1038 q 633 1072 671 1053 q 578 1098 601 1089 q 531 1107 556 1107 z "},"Z":{"ha":907,"x_min":50,"x_max":838,"o":"m 589 972 l 825 972 l 286 0 l 50 0 l 589 972 m 589 972 l 589 944 l 453 944 q 258 910 329 944 q 159 828 186 876 q 132 729 132 779 l 104 729 l 104 972 l 453 972 l 589 972 m 286 0 l 286 28 l 517 28 q 751 95 693 28 q 810 247 810 163 l 838 247 l 838 0 l 517 0 l 286 0 z "},"Ź":{"ha":907,"x_min":50,"x_max":838,"o":"m 589 972 l 825 972 l 286 0 l 50 0 l 589 972 m 589 972 l 589 944 l 453 944 q 258 910 329 944 q 159 828 186 876 q 132 729 132 779 l 104 729 l 104 972 l 453 972 l 589 972 m 286 0 l 286 28 l 517 28 q 751 95 693 28 q 810 247 810 163 l 838 247 l 838 0 l 517 0 l 286 0 m 378 1038 l 358 1038 l 457 1236 q 524 1297 489 1297 q 555 1285 543 1297 q 567 1254 567 1274 q 560 1233 567 1244 q 544 1214 553 1222 l 378 1038 z "},"Ž":{"ha":907,"x_min":50,"x_max":838,"o":"m 589 972 l 825 972 l 286 0 l 50 0 l 589 972 m 589 972 l 589 944 l 453 944 q 258 910 329 944 q 159 828 186 876 q 132 729 132 779 l 104 729 l 104 972 l 453 972 l 589 972 m 286 0 l 286 28 l 517 28 q 751 95 693 28 q 810 247 810 163 l 838 247 l 838 0 l 517 0 l 286 0 m 500 1038 l 408 1038 l 253 1279 l 294 1279 l 454 1121 l 614 1279 l 656 1279 l 500 1038 z "},"Ż":{"ha":907,"x_min":50,"x_max":838,"o":"m 589 972 l 825 972 l 286 0 l 50 0 l 589 972 m 589 972 l 589 944 l 453 944 q 258 910 329 944 q 159 828 186 876 q 132 729 132 779 l 104 729 l 104 972 l 453 972 l 589 972 m 286 0 l 286 28 l 517 28 q 751 95 693 28 q 810 247 810 163 l 838 247 l 838 0 l 517 0 l 286 0 m 456 1086 q 399 1110 422 1086 q 375 1168 375 1133 q 399 1224 375 1200 q 456 1247 422 1247 q 511 1224 488 1247 q 535 1168 535 1200 q 511 1110 535 1133 q 456 1086 488 1086 z "},"a":{"ha":858,"x_min":50,"x_max":851,"o":"m 694 125 q 705 73 694 100 q 742 46 715 46 q 783 57 768 46 q 828 99 799 68 l 851 71 q 775 5 821 32 q 675 -22 729 -22 q 497 163 497 -22 l 497 518 q 456 638 497 594 q 343 682 415 682 q 260 663 290 682 q 229 618 229 643 q 235 593 229 603 q 250 574 240 583 q 267 551 261 563 q 274 521 274 540 q 251 466 274 488 q 192 444 228 444 q 123 473 151 444 q 94 546 94 501 q 126 631 94 592 q 217 693 157 669 q 360 717 276 717 q 612 630 529 717 q 694 389 694 543 l 694 125 m 497 444 q 442 392 490 425 q 344 335 394 360 q 250 211 250 290 q 283 124 250 158 q 371 90 317 90 q 438 102 410 90 q 485 133 465 114 q 549 194 506 151 l 549 165 q 423 29 496 81 q 260 -22 350 -22 q 106 30 161 -22 q 50 163 50 82 q 90 269 50 221 q 207 349 131 317 l 275 376 q 440 453 381 418 q 497 531 499 488 l 497 444 z "},"á":{"ha":858,"x_min":50,"x_max":851,"o":"m 694 125 q 705 73 694 100 q 742 46 715 46 q 783 57 768 46 q 828 99 799 68 l 851 71 q 775 5 821 32 q 675 -22 729 -22 q 497 163 497 -22 l 497 518 q 456 638 497 594 q 343 682 415 682 q 260 663 290 682 q 229 618 229 643 q 235 593 229 603 q 250 574 240 583 q 267 551 261 563 q 274 521 274 540 q 251 466 274 488 q 192 444 228 444 q 123 473 151 444 q 94 546 94 501 q 126 631 94 592 q 217 693 157 669 q 360 717 276 717 q 612 630 529 717 q 694 389 694 543 l 694 125 m 497 444 q 442 392 490 425 q 344 335 394 360 q 250 211 250 290 q 283 124 250 158 q 371 90 317 90 q 438 102 410 90 q 485 133 465 114 q 549 194 506 151 l 549 165 q 423 29 496 81 q 260 -22 350 -22 q 106 30 161 -22 q 50 163 50 82 q 90 269 50 221 q 207 349 131 317 l 275 376 q 440 453 381 418 q 497 531 499 488 l 497 444 m 325 767 l 306 767 l 404 965 q 471 1026 436 1026 q 502 1015 490 1026 q 514 983 514 1003 q 507 963 514 974 q 492 943 500 951 l 325 767 z "},"ă":{"ha":858,"x_min":50,"x_max":851,"o":"m 694 125 q 705 73 694 100 q 742 46 715 46 q 783 57 768 46 q 828 99 799 68 l 851 71 q 775 5 821 32 q 675 -22 729 -22 q 497 163 497 -22 l 497 518 q 456 638 497 594 q 343 682 415 682 q 260 663 290 682 q 229 618 229 643 q 235 593 229 603 q 250 574 240 583 q 267 551 261 563 q 274 521 274 540 q 251 466 274 488 q 192 444 228 444 q 123 473 151 444 q 94 546 94 501 q 126 631 94 592 q 217 693 157 669 q 360 717 276 717 q 612 630 529 717 q 694 389 694 543 l 694 125 m 497 444 q 442 392 490 425 q 344 335 394 360 q 250 211 250 290 q 283 124 250 158 q 371 90 317 90 q 438 102 410 90 q 485 133 465 114 q 549 194 506 151 l 549 165 q 423 29 496 81 q 260 -22 350 -22 q 106 30 161 -22 q 50 163 50 82 q 90 269 50 221 q 207 349 131 317 l 275 376 q 440 453 381 418 q 497 531 499 488 l 497 444 m 597 988 q 545 829 597 892 q 403 767 493 767 q 260 829 313 767 q 208 988 208 892 l 244 988 q 279 891 244 933 q 401 849 314 849 q 525 891 489 849 q 561 988 561 933 l 597 988 z "},"ắ":{"ha":858,"x_min":50,"x_max":851,"o":"m 694 125 q 705 73 694 100 q 742 46 715 46 q 783 57 768 46 q 828 99 799 68 l 851 71 q 775 5 821 32 q 675 -22 729 -22 q 497 163 497 -22 l 497 518 q 456 638 497 594 q 343 682 415 682 q 260 663 290 682 q 229 618 229 643 q 235 593 229 603 q 250 574 240 583 q 267 551 261 563 q 274 521 274 540 q 251 466 274 488 q 192 444 228 444 q 123 473 151 444 q 94 546 94 501 q 126 631 94 592 q 217 693 157 669 q 360 717 276 717 q 612 630 529 717 q 694 389 694 543 l 694 125 m 497 444 q 442 392 490 425 q 344 335 394 360 q 250 211 250 290 q 283 124 250 158 q 371 90 317 90 q 438 102 410 90 q 485 133 465 114 q 549 194 506 151 l 549 165 q 423 29 496 81 q 260 -22 350 -22 q 106 30 161 -22 q 50 163 50 82 q 90 269 50 221 q 207 349 131 317 l 275 376 q 440 453 381 418 q 497 531 499 488 l 497 444 m 597 988 q 545 829 597 892 q 403 767 493 767 q 260 829 313 767 q 208 988 208 892 l 244 988 q 279 891 244 933 q 401 849 314 849 q 525 891 489 849 q 561 988 561 933 l 597 988 m 325 1038 l 306 1038 l 404 1236 q 471 1297 436 1297 q 502 1285 490 1297 q 514 1254 514 1274 q 507 1233 514 1244 q 492 1214 500 1222 l 325 1038 z "},"ặ":{"ha":858,"x_min":50,"x_max":851,"o":"m 694 125 q 705 73 694 100 q 742 46 715 46 q 783 57 768 46 q 828 99 799 68 l 851 71 q 775 5 821 32 q 675 -22 729 -22 q 497 163 497 -22 l 497 518 q 456 638 497 594 q 343 682 415 682 q 260 663 290 682 q 229 618 229 643 q 235 593 229 603 q 250 574 240 583 q 267 551 261 563 q 274 521 274 540 q 251 466 274 488 q 192 444 228 444 q 123 473 151 444 q 94 546 94 501 q 126 631 94 592 q 217 693 157 669 q 360 717 276 717 q 612 630 529 717 q 694 389 694 543 l 694 125 m 497 444 q 442 392 490 425 q 344 335 394 360 q 250 211 250 290 q 283 124 250 158 q 371 90 317 90 q 438 102 410 90 q 485 133 465 114 q 549 194 506 151 l 549 165 q 423 29 496 81 q 260 -22 350 -22 q 106 30 161 -22 q 50 163 50 82 q 90 269 50 221 q 207 349 131 317 l 275 376 q 440 453 381 418 q 497 531 499 488 l 497 444 m 431 -300 q 374 -276 397 -300 q 350 -219 350 -253 q 374 -163 350 -186 q 431 -140 397 -140 q 486 -163 463 -140 q 510 -219 510 -186 q 486 -276 510 -253 q 431 -300 463 -300 m 597 988 q 545 829 597 892 q 403 767 493 767 q 260 829 313 767 q 208 988 208 892 l 244 988 q 279 891 244 933 q 401 849 314 849 q 525 891 489 849 q 561 988 561 933 l 597 988 z "},"ằ":{"ha":858,"x_min":50,"x_max":851,"o":"m 694 125 q 705 73 694 100 q 742 46 715 46 q 783 57 768 46 q 828 99 799 68 l 851 71 q 775 5 821 32 q 675 -22 729 -22 q 497 163 497 -22 l 497 518 q 456 638 497 594 q 343 682 415 682 q 260 663 290 682 q 229 618 229 643 q 235 593 229 603 q 250 574 240 583 q 267 551 261 563 q 274 521 274 540 q 251 466 274 488 q 192 444 228 444 q 123 473 151 444 q 94 546 94 501 q 126 631 94 592 q 217 693 157 669 q 360 717 276 717 q 612 630 529 717 q 694 389 694 543 l 694 125 m 497 444 q 442 392 490 425 q 344 335 394 360 q 250 211 250 290 q 283 124 250 158 q 371 90 317 90 q 438 102 410 90 q 485 133 465 114 q 549 194 506 151 l 549 165 q 423 29 496 81 q 260 -22 350 -22 q 106 30 161 -22 q 50 163 50 82 q 90 269 50 221 q 207 349 131 317 l 275 376 q 440 453 381 418 q 497 531 499 488 l 497 444 m 597 988 q 545 829 597 892 q 403 767 493 767 q 260 829 313 767 q 208 988 208 892 l 244 988 q 279 891 244 933 q 401 849 314 849 q 525 891 489 849 q 561 988 561 933 l 597 988 m 313 1214 q 292 1254 292 1238 q 303 1285 292 1274 q 335 1297 315 1297 q 371 1280 356 1297 q 400 1236 386 1263 l 504 1038 l 485 1038 l 313 1214 z "},"ẳ":{"ha":858,"x_min":50,"x_max":851,"o":"m 694 125 q 705 73 694 100 q 742 46 715 46 q 783 57 768 46 q 828 99 799 68 l 851 71 q 775 5 821 32 q 675 -22 729 -22 q 497 163 497 -22 l 497 518 q 456 638 497 594 q 343 682 415 682 q 260 663 290 682 q 229 618 229 643 q 235 593 229 603 q 250 574 240 583 q 267 551 261 563 q 274 521 274 540 q 251 466 274 488 q 192 444 228 444 q 123 473 151 444 q 94 546 94 501 q 126 631 94 592 q 217 693 157 669 q 360 717 276 717 q 612 630 529 717 q 694 389 694 543 l 694 125 m 497 444 q 442 392 490 425 q 344 335 394 360 q 250 211 250 290 q 283 124 250 158 q 371 90 317 90 q 438 102 410 90 q 485 133 465 114 q 549 194 506 151 l 549 165 q 423 29 496 81 q 260 -22 350 -22 q 106 30 161 -22 q 50 163 50 82 q 90 269 50 221 q 207 349 131 317 l 275 376 q 440 453 381 418 q 497 531 499 488 l 497 444 m 596 988 q 544 829 596 892 q 401 767 492 767 q 259 829 311 767 q 207 988 207 892 l 243 988 q 278 891 243 933 q 400 849 313 849 q 524 891 488 849 q 560 988 560 933 l 596 988 m 153 1265 q 254 1294 204 1294 q 319 1278 290 1294 q 367 1231 349 1263 q 385 1164 385 1199 q 359 1084 385 1122 q 292 1022 333 1046 l 281 1040 q 315 1074 300 1053 q 329 1125 329 1096 q 308 1193 329 1157 q 210 1260 271 1260 q 163 1247 182 1260 l 153 1265 z "},"ẵ":{"ha":858,"x_min":50,"x_max":851,"o":"m 694 125 q 705 73 694 100 q 742 46 715 46 q 783 57 768 46 q 828 99 799 68 l 851 71 q 775 5 821 32 q 675 -22 729 -22 q 497 163 497 -22 l 497 518 q 456 638 497 594 q 343 682 415 682 q 260 663 290 682 q 229 618 229 643 q 235 593 229 603 q 250 574 240 583 q 267 551 261 563 q 274 521 274 540 q 251 466 274 488 q 192 444 228 444 q 123 473 151 444 q 94 546 94 501 q 126 631 94 592 q 217 693 157 669 q 360 717 276 717 q 612 630 529 717 q 694 389 694 543 l 694 125 m 497 444 q 442 392 490 425 q 344 335 394 360 q 250 211 250 290 q 283 124 250 158 q 371 90 317 90 q 438 102 410 90 q 485 133 465 114 q 549 194 506 151 l 549 165 q 423 29 496 81 q 260 -22 350 -22 q 106 30 161 -22 q 50 163 50 82 q 90 269 50 221 q 207 349 131 317 l 275 376 q 440 453 381 418 q 497 531 499 488 l 497 444 m 597 988 q 545 829 597 892 q 403 767 493 767 q 260 829 313 767 q 208 988 208 892 l 244 988 q 279 891 244 933 q 401 849 314 849 q 525 891 489 849 q 561 988 561 933 l 597 988 m 300 1107 q 238 1088 258 1107 q 217 1038 218 1069 l 182 1038 q 306 1192 182 1192 q 353 1183 331 1192 q 411 1156 375 1174 q 467 1128 443 1138 q 515 1119 492 1119 q 569 1139 550 1119 q 589 1190 588 1158 l 624 1190 q 597 1077 624 1117 q 507 1038 569 1038 q 461 1045 482 1038 q 403 1072 440 1053 q 348 1098 371 1089 q 300 1107 325 1107 z "},"ǎ":{"ha":858,"x_min":50,"x_max":851,"o":"m 694 125 q 705 73 694 100 q 742 46 715 46 q 783 57 768 46 q 828 99 799 68 l 851 71 q 775 5 821 32 q 675 -22 729 -22 q 497 163 497 -22 l 497 518 q 456 638 497 594 q 343 682 415 682 q 260 663 290 682 q 229 618 229 643 q 235 593 229 603 q 250 574 240 583 q 267 551 261 563 q 274 521 274 540 q 251 466 274 488 q 192 444 228 444 q 123 473 151 444 q 94 546 94 501 q 126 631 94 592 q 217 693 157 669 q 360 717 276 717 q 612 630 529 717 q 694 389 694 543 l 694 125 m 497 444 q 442 392 490 425 q 344 335 394 360 q 250 211 250 290 q 283 124 250 158 q 371 90 317 90 q 438 102 410 90 q 485 133 465 114 q 549 194 506 151 l 549 165 q 423 29 496 81 q 260 -22 350 -22 q 106 30 161 -22 q 50 163 50 82 q 90 269 50 221 q 207 349 131 317 l 275 376 q 440 453 381 418 q 497 531 499 488 l 497 444 m 449 767 l 357 767 l 201 1008 l 243 1008 l 403 850 l 563 1008 l 604 1008 l 449 767 z "},"â":{"ha":858,"x_min":50,"x_max":851,"o":"m 694 125 q 705 73 694 100 q 742 46 715 46 q 783 57 768 46 q 828 99 799 68 l 851 71 q 775 5 821 32 q 675 -22 729 -22 q 497 163 497 -22 l 497 518 q 456 638 497 594 q 343 682 415 682 q 260 663 290 682 q 229 618 229 643 q 235 593 229 603 q 250 574 240 583 q 267 551 261 563 q 274 521 274 540 q 251 466 274 488 q 192 444 228 444 q 123 473 151 444 q 94 546 94 501 q 126 631 94 592 q 217 693 157 669 q 360 717 276 717 q 612 630 529 717 q 694 389 694 543 l 694 125 m 497 444 q 442 392 490 425 q 344 335 394 360 q 250 211 250 290 q 283 124 250 158 q 371 90 317 90 q 438 102 410 90 q 485 133 465 114 q 549 194 506 151 l 549 165 q 423 29 496 81 q 260 -22 350 -22 q 106 30 161 -22 q 50 163 50 82 q 90 269 50 221 q 207 349 131 317 l 275 376 q 440 453 381 418 q 497 531 499 488 l 497 444 m 357 1008 l 449 1008 l 604 767 l 563 767 l 403 925 l 243 767 l 201 767 l 357 1008 z "},"ấ":{"ha":858,"x_min":50,"x_max":851,"o":"m 694 125 q 705 73 694 100 q 742 46 715 46 q 783 57 768 46 q 828 99 799 68 l 851 71 q 775 5 821 32 q 675 -22 729 -22 q 497 163 497 -22 l 497 518 q 456 638 497 594 q 343 682 415 682 q 260 663 290 682 q 229 618 229 643 q 235 593 229 603 q 250 574 240 583 q 267 551 261 563 q 274 521 274 540 q 251 466 274 488 q 192 444 228 444 q 123 473 151 444 q 94 546 94 501 q 126 631 94 592 q 217 693 157 669 q 360 717 276 717 q 612 630 529 717 q 694 389 694 543 l 694 125 m 497 444 q 442 392 490 425 q 344 335 394 360 q 250 211 250 290 q 283 124 250 158 q 371 90 317 90 q 438 102 410 90 q 485 133 465 114 q 549 194 506 151 l 549 165 q 423 29 496 81 q 260 -22 350 -22 q 106 30 161 -22 q 50 163 50 82 q 90 269 50 221 q 207 349 131 317 l 275 376 q 440 453 381 418 q 497 531 499 488 l 497 444 m 357 1008 l 449 1008 l 604 767 l 563 767 l 403 925 l 243 767 l 201 767 l 357 1008 m 325 1031 l 306 1031 l 404 1229 q 471 1290 436 1290 q 502 1278 490 1290 q 514 1247 514 1267 q 507 1226 514 1238 q 492 1207 500 1215 l 325 1031 z "},"ậ":{"ha":858,"x_min":50,"x_max":851,"o":"m 694 125 q 705 73 694 100 q 742 46 715 46 q 783 57 768 46 q 828 99 799 68 l 851 71 q 775 5 821 32 q 675 -22 729 -22 q 497 163 497 -22 l 497 518 q 456 638 497 594 q 343 682 415 682 q 260 663 290 682 q 229 618 229 643 q 235 593 229 603 q 250 574 240 583 q 267 551 261 563 q 274 521 274 540 q 251 466 274 488 q 192 444 228 444 q 123 473 151 444 q 94 546 94 501 q 126 631 94 592 q 217 693 157 669 q 360 717 276 717 q 612 630 529 717 q 694 389 694 543 l 694 125 m 497 444 q 442 392 490 425 q 344 335 394 360 q 250 211 250 290 q 283 124 250 158 q 371 90 317 90 q 438 102 410 90 q 485 133 465 114 q 549 194 506 151 l 549 165 q 423 29 496 81 q 260 -22 350 -22 q 106 30 161 -22 q 50 163 50 82 q 90 269 50 221 q 207 349 131 317 l 275 376 q 440 453 381 418 q 497 531 499 488 l 497 444 m 431 -300 q 374 -276 397 -300 q 350 -219 350 -253 q 374 -163 350 -186 q 431 -140 397 -140 q 486 -163 463 -140 q 510 -219 510 -186 q 486 -276 510 -253 q 431 -300 463 -300 m 357 1008 l 449 1008 l 604 767 l 563 767 l 403 925 l 243 767 l 201 767 l 357 1008 z "},"ầ":{"ha":858,"x_min":50,"x_max":851,"o":"m 694 125 q 705 73 694 100 q 742 46 715 46 q 783 57 768 46 q 828 99 799 68 l 851 71 q 775 5 821 32 q 675 -22 729 -22 q 497 163 497 -22 l 497 518 q 456 638 497 594 q 343 682 415 682 q 260 663 290 682 q 229 618 229 643 q 235 593 229 603 q 250 574 240 583 q 267 551 261 563 q 274 521 274 540 q 251 466 274 488 q 192 444 228 444 q 123 473 151 444 q 94 546 94 501 q 126 631 94 592 q 217 693 157 669 q 360 717 276 717 q 612 630 529 717 q 694 389 694 543 l 694 125 m 497 444 q 442 392 490 425 q 344 335 394 360 q 250 211 250 290 q 283 124 250 158 q 371 90 317 90 q 438 102 410 90 q 485 133 465 114 q 549 194 506 151 l 549 165 q 423 29 496 81 q 260 -22 350 -22 q 106 30 161 -22 q 50 163 50 82 q 90 269 50 221 q 207 349 131 317 l 275 376 q 440 453 381 418 q 497 531 499 488 l 497 444 m 357 1008 l 449 1008 l 604 767 l 563 767 l 403 925 l 243 767 l 201 767 l 357 1008 m 313 1207 q 292 1247 292 1231 q 303 1278 292 1267 q 335 1290 315 1290 q 371 1273 356 1290 q 400 1229 386 1256 l 504 1031 l 485 1031 l 313 1207 z "},"ẩ":{"ha":858,"x_min":50,"x_max":851,"o":"m 694 125 q 705 73 694 100 q 742 46 715 46 q 783 57 768 46 q 828 99 799 68 l 851 71 q 775 5 821 32 q 675 -22 729 -22 q 497 163 497 -22 l 497 518 q 456 638 497 594 q 343 682 415 682 q 260 663 290 682 q 229 618 229 643 q 235 593 229 603 q 250 574 240 583 q 267 551 261 563 q 274 521 274 540 q 251 466 274 488 q 192 444 228 444 q 123 473 151 444 q 94 546 94 501 q 126 631 94 592 q 217 693 157 669 q 360 717 276 717 q 612 630 529 717 q 694 389 694 543 l 694 125 m 497 444 q 442 392 490 425 q 344 335 394 360 q 250 211 250 290 q 283 124 250 158 q 371 90 317 90 q 438 102 410 90 q 485 133 465 114 q 549 194 506 151 l 549 165 q 423 29 496 81 q 260 -22 350 -22 q 106 30 161 -22 q 50 163 50 82 q 90 269 50 221 q 207 349 131 317 l 275 376 q 440 453 381 418 q 497 531 499 488 l 497 444 m 360 1008 l 451 1008 l 607 767 l 565 767 l 406 925 l 246 767 l 204 767 l 360 1008 m 158 1265 q 260 1294 210 1294 q 325 1278 296 1294 q 372 1231 354 1263 q 390 1164 390 1199 q 365 1084 390 1122 q 297 1022 339 1046 l 286 1040 q 320 1074 306 1053 q 335 1125 335 1096 q 314 1193 335 1157 q 215 1260 276 1260 q 168 1247 188 1260 l 158 1265 z "},"ẫ":{"ha":858,"x_min":50,"x_max":851,"o":"m 694 125 q 705 73 694 100 q 742 46 715 46 q 783 57 768 46 q 828 99 799 68 l 851 71 q 775 5 821 32 q 675 -22 729 -22 q 497 163 497 -22 l 497 518 q 456 638 497 594 q 343 682 415 682 q 260 663 290 682 q 229 618 229 643 q 235 593 229 603 q 250 574 240 583 q 267 551 261 563 q 274 521 274 540 q 251 466 274 488 q 192 444 228 444 q 123 473 151 444 q 94 546 94 501 q 126 631 94 592 q 217 693 157 669 q 360 717 276 717 q 612 630 529 717 q 694 389 694 543 l 694 125 m 497 444 q 442 392 490 425 q 344 335 394 360 q 250 211 250 290 q 283 124 250 158 q 371 90 317 90 q 438 102 410 90 q 485 133 465 114 q 549 194 506 151 l 549 165 q 423 29 496 81 q 260 -22 350 -22 q 106 30 161 -22 q 50 163 50 82 q 90 269 50 221 q 207 349 131 317 l 275 376 q 440 453 381 418 q 497 531 499 488 l 497 444 m 357 1008 l 449 1008 l 604 767 l 563 767 l 403 925 l 243 767 l 201 767 l 357 1008 m 300 1100 q 238 1081 258 1100 q 217 1031 218 1063 l 182 1031 q 306 1185 182 1185 q 353 1176 331 1185 q 411 1149 375 1167 q 467 1122 443 1131 q 515 1113 492 1113 q 569 1132 550 1113 q 589 1183 588 1151 l 624 1183 q 597 1070 624 1110 q 507 1031 569 1031 q 461 1038 482 1031 q 403 1065 440 1046 q 348 1091 371 1082 q 300 1100 325 1100 z "},"ä":{"ha":858,"x_min":50,"x_max":851,"o":"m 694 125 q 705 73 694 100 q 742 46 715 46 q 783 57 768 46 q 828 99 799 68 l 851 71 q 775 5 821 32 q 675 -22 729 -22 q 497 163 497 -22 l 497 518 q 456 638 497 594 q 343 682 415 682 q 260 663 290 682 q 229 618 229 643 q 235 593 229 603 q 250 574 240 583 q 267 551 261 563 q 274 521 274 540 q 251 466 274 488 q 192 444 228 444 q 123 473 151 444 q 94 546 94 501 q 126 631 94 592 q 217 693 157 669 q 360 717 276 717 q 612 630 529 717 q 694 389 694 543 l 694 125 m 497 444 q 442 392 490 425 q 344 335 394 360 q 250 211 250 290 q 283 124 250 158 q 371 90 317 90 q 438 102 410 90 q 485 133 465 114 q 549 194 506 151 l 549 165 q 423 29 496 81 q 260 -22 350 -22 q 106 30 161 -22 q 50 163 50 82 q 90 269 50 221 q 207 349 131 317 l 275 376 q 440 453 381 418 q 497 531 499 488 l 497 444 m 267 815 q 209 839 232 815 q 186 897 186 863 q 210 953 186 931 q 267 976 233 976 q 322 953 299 976 q 346 897 346 929 q 322 839 346 863 q 267 815 299 815 m 539 815 q 482 839 506 815 q 458 897 458 863 q 482 953 458 929 q 539 976 506 976 q 594 953 571 976 q 618 897 618 929 q 594 839 618 863 q 539 815 571 815 z "},"ạ":{"ha":858,"x_min":50,"x_max":851,"o":"m 694 125 q 705 73 694 100 q 742 46 715 46 q 783 57 768 46 q 828 99 799 68 l 851 71 q 775 5 821 32 q 675 -22 729 -22 q 497 163 497 -22 l 497 518 q 456 638 497 594 q 343 682 415 682 q 260 663 290 682 q 229 618 229 643 q 235 593 229 603 q 250 574 240 583 q 267 551 261 563 q 274 521 274 540 q 251 466 274 488 q 192 444 228 444 q 123 473 151 444 q 94 546 94 501 q 126 631 94 592 q 217 693 157 669 q 360 717 276 717 q 612 630 529 717 q 694 389 694 543 l 694 125 m 497 444 q 442 392 490 425 q 344 335 394 360 q 250 211 250 290 q 283 124 250 158 q 371 90 317 90 q 438 102 410 90 q 485 133 465 114 q 549 194 506 151 l 549 165 q 423 29 496 81 q 260 -22 350 -22 q 106 30 161 -22 q 50 163 50 82 q 90 269 50 221 q 207 349 131 317 l 275 376 q 440 453 381 418 q 497 531 499 488 l 497 444 m 431 -300 q 374 -276 397 -300 q 350 -219 350 -253 q 374 -163 350 -186 q 431 -140 397 -140 q 486 -163 463 -140 q 510 -219 510 -186 q 486 -276 510 -253 q 431 -300 463 -300 z "},"à":{"ha":858,"x_min":50,"x_max":851,"o":"m 694 125 q 705 73 694 100 q 742 46 715 46 q 783 57 768 46 q 828 99 799 68 l 851 71 q 775 5 821 32 q 675 -22 729 -22 q 497 163 497 -22 l 497 518 q 456 638 497 594 q 343 682 415 682 q 260 663 290 682 q 229 618 229 643 q 235 593 229 603 q 250 574 240 583 q 267 551 261 563 q 274 521 274 540 q 251 466 274 488 q 192 444 228 444 q 123 473 151 444 q 94 546 94 501 q 126 631 94 592 q 217 693 157 669 q 360 717 276 717 q 612 630 529 717 q 694 389 694 543 l 694 125 m 497 444 q 442 392 490 425 q 344 335 394 360 q 250 211 250 290 q 283 124 250 158 q 371 90 317 90 q 438 102 410 90 q 485 133 465 114 q 549 194 506 151 l 549 165 q 423 29 496 81 q 260 -22 350 -22 q 106 30 161 -22 q 50 163 50 82 q 90 269 50 221 q 207 349 131 317 l 275 376 q 440 453 381 418 q 497 531 499 488 l 497 444 m 313 943 q 292 983 292 967 q 303 1015 292 1003 q 335 1026 315 1026 q 371 1009 356 1026 q 400 965 386 992 l 504 767 l 485 767 l 313 943 z "},"ả":{"ha":858,"x_min":50,"x_max":851,"o":"m 694 125 q 705 73 694 100 q 742 46 715 46 q 783 57 768 46 q 828 99 799 68 l 851 71 q 775 5 821 32 q 675 -22 729 -22 q 497 163 497 -22 l 497 518 q 456 638 497 594 q 343 682 415 682 q 260 663 290 682 q 229 618 229 643 q 235 593 229 603 q 250 574 240 583 q 267 551 261 563 q 274 521 274 540 q 251 466 274 488 q 192 444 228 444 q 123 473 151 444 q 94 546 94 501 q 126 631 94 592 q 217 693 157 669 q 360 717 276 717 q 612 630 529 717 q 694 389 694 543 l 694 125 m 497 444 q 442 392 490 425 q 344 335 394 360 q 250 211 250 290 q 283 124 250 158 q 371 90 317 90 q 438 102 410 90 q 485 133 465 114 q 549 194 506 151 l 549 165 q 423 29 496 81 q 260 -22 350 -22 q 106 30 161 -22 q 50 163 50 82 q 90 269 50 221 q 207 349 131 317 l 275 376 q 440 453 381 418 q 497 531 499 488 l 497 444 m 229 988 q 331 1017 281 1017 q 397 1001 367 1017 q 444 953 426 985 q 463 886 463 921 q 437 806 463 844 q 369 744 411 768 l 357 763 q 391 797 376 775 q 406 847 406 818 q 385 915 406 879 q 288 982 349 982 q 240 969 260 982 l 229 988 z "},"ā":{"ha":858,"x_min":50,"x_max":851,"o":"m 694 125 q 705 73 694 100 q 742 46 715 46 q 783 57 768 46 q 828 99 799 68 l 851 71 q 775 5 821 32 q 675 -22 729 -22 q 497 163 497 -22 l 497 518 q 456 638 497 594 q 343 682 415 682 q 260 663 290 682 q 229 618 229 643 q 235 593 229 603 q 250 574 240 583 q 267 551 261 563 q 274 521 274 540 q 251 466 274 488 q 192 444 228 444 q 123 473 151 444 q 94 546 94 501 q 126 631 94 592 q 217 693 157 669 q 360 717 276 717 q 612 630 529 717 q 694 389 694 543 l 694 125 m 497 444 q 442 392 490 425 q 344 335 394 360 q 250 211 250 290 q 283 124 250 158 q 371 90 317 90 q 438 102 410 90 q 485 133 465 114 q 549 194 506 151 l 549 165 q 423 29 496 81 q 260 -22 350 -22 q 106 30 161 -22 q 50 163 50 82 q 90 269 50 221 q 207 349 131 317 l 275 376 q 440 453 381 418 q 497 531 499 488 l 497 444 m 213 869 l 592 869 l 592 817 l 213 817 l 213 869 z "},"ą":{"ha":858,"x_min":50,"x_max":851,"o":"m 694 125 q 705 73 694 100 q 742 46 715 46 q 783 57 768 46 q 828 99 799 68 l 851 71 q 775 5 821 32 q 675 -22 729 -22 q 497 163 497 -22 l 497 518 q 456 638 497 594 q 343 682 415 682 q 260 663 290 682 q 229 618 229 643 q 235 593 229 603 q 250 574 240 583 q 267 551 261 563 q 274 521 274 540 q 251 466 274 488 q 192 444 228 444 q 123 473 151 444 q 94 546 94 501 q 126 631 94 592 q 217 693 157 669 q 360 717 276 717 q 612 630 529 717 q 694 389 694 543 l 694 125 m 497 444 q 442 392 490 425 q 344 335 394 360 q 250 211 250 290 q 283 124 250 158 q 371 90 317 90 q 438 102 410 90 q 485 133 465 114 q 549 194 506 151 l 549 165 q 423 29 496 81 q 260 -22 350 -22 q 106 30 161 -22 q 50 163 50 82 q 90 269 50 221 q 207 349 131 317 l 275 376 q 440 453 381 418 q 497 531 499 488 l 497 444 m 767 14 q 622 -147 622 -61 q 642 -188 622 -169 q 696 -207 661 -207 q 751 -196 718 -207 l 774 -225 q 713 -266 753 -246 q 625 -286 674 -286 q 537 -258 568 -286 q 506 -187 506 -229 q 556 -90 506 -143 q 714 14 606 -36 l 767 14 z "},"å":{"ha":858,"x_min":50,"x_max":851,"o":"m 694 125 q 705 73 694 100 q 742 46 715 46 q 783 57 768 46 q 828 99 799 68 l 851 71 q 775 5 821 32 q 675 -22 729 -22 q 497 163 497 -22 l 497 518 q 456 638 497 594 q 343 682 415 682 q 260 663 290 682 q 229 618 229 643 q 235 593 229 603 q 250 574 240 583 q 267 551 261 563 q 274 521 274 540 q 251 466 274 488 q 192 444 228 444 q 123 473 151 444 q 94 546 94 501 q 126 631 94 592 q 217 693 157 669 q 360 717 276 717 q 612 630 529 717 q 694 389 694 543 l 694 125 m 497 444 q 442 392 490 425 q 344 335 394 360 q 250 211 250 290 q 283 124 250 158 q 371 90 317 90 q 438 102 410 90 q 485 133 465 114 q 549 194 506 151 l 549 165 q 423 29 496 81 q 260 -22 350 -22 q 106 30 161 -22 q 50 163 50 82 q 90 269 50 221 q 207 349 131 317 l 275 376 q 440 453 381 418 q 497 531 499 488 l 497 444 m 388 756 q 282 792 321 756 q 243 885 243 829 q 282 976 243 940 q 388 1013 321 1013 q 491 976 453 1013 q 529 885 529 940 q 491 792 529 829 q 388 756 453 756 m 388 775 q 440 806 421 775 q 460 885 460 836 q 440 963 460 932 q 388 993 421 993 q 333 963 353 993 q 313 885 313 932 q 332 806 313 836 q 388 775 351 775 z "},"ã":{"ha":858,"x_min":50,"x_max":851,"o":"m 694 125 q 705 73 694 100 q 742 46 715 46 q 783 57 768 46 q 828 99 799 68 l 851 71 q 775 5 821 32 q 675 -22 729 -22 q 497 163 497 -22 l 497 518 q 456 638 497 594 q 343 682 415 682 q 260 663 290 682 q 229 618 229 643 q 235 593 229 603 q 250 574 240 583 q 267 551 261 563 q 274 521 274 540 q 251 466 274 488 q 192 444 228 444 q 123 473 151 444 q 94 546 94 501 q 126 631 94 592 q 217 693 157 669 q 360 717 276 717 q 612 630 529 717 q 694 389 694 543 l 694 125 m 497 444 q 442 392 490 425 q 344 335 394 360 q 250 211 250 290 q 283 124 250 158 q 371 90 317 90 q 438 102 410 90 q 485 133 465 114 q 549 194 506 151 l 549 165 q 423 29 496 81 q 260 -22 350 -22 q 106 30 161 -22 q 50 163 50 82 q 90 269 50 221 q 207 349 131 317 l 275 376 q 440 453 381 418 q 497 531 499 488 l 497 444 m 300 836 q 238 817 258 836 q 217 767 218 799 l 182 767 q 306 921 182 921 q 353 912 331 921 q 411 885 375 903 q 467 858 443 867 q 515 849 492 849 q 569 868 550 849 q 589 919 588 888 l 624 919 q 597 806 624 846 q 507 767 569 767 q 461 774 482 767 q 403 801 440 782 q 348 827 371 818 q 300 836 325 836 z "},"æ":{"ha":1239,"x_min":50,"x_max":1182,"o":"m 497 153 l 497 518 q 456 638 497 594 q 343 682 415 682 q 260 663 290 682 q 229 618 229 643 q 235 593 229 603 q 250 574 240 583 q 267 551 261 563 q 274 521 274 540 q 251 466 274 488 q 192 444 228 444 q 123 473 151 444 q 94 546 94 501 q 126 631 94 592 q 217 693 157 669 q 360 717 276 717 q 612 630 529 717 q 694 389 694 543 l 694 275 l 497 153 m 497 444 q 442 392 490 425 q 344 335 394 360 q 250 211 250 290 q 284 124 250 158 q 372 90 318 90 q 463 124 429 90 q 497 206 497 157 l 554 178 q 431 33 506 88 q 260 -22 357 -22 q 106 30 161 -22 q 50 163 50 82 q 90 269 50 221 q 207 349 131 317 l 275 376 q 440 453 381 418 q 497 531 499 488 l 497 444 m 1143 117 q 1056 16 1113 54 q 889 -22 999 -22 q 692 22 782 -22 q 550 149 603 65 q 497 346 497 233 q 547 542 497 458 q 682 672 596 626 q 875 717 768 717 q 1038 676 968 717 q 1144 565 1107 636 q 1182 400 1182 493 l 1006 400 q 976 615 1008 540 q 869 689 944 689 q 743 599 785 689 q 701 346 701 508 q 763 99 701 189 q 935 10 825 10 q 1044 40 996 10 q 1115 131 1093 71 l 1143 117 m 1160 428 l 1172 400 l 671 400 l 671 428 l 1160 428 z "},"b":{"ha":936,"x_min":46,"x_max":881,"o":"m 143 972 l 340 972 l 340 574 q 415 672 358 628 q 569 717 471 717 q 731 670 660 717 q 841 540 801 624 q 881 346 881 456 q 840 146 881 229 q 731 20 800 63 q 578 -22 661 -22 q 452 7 503 -22 q 375 74 401 36 q 340 142 349 111 l 340 0 l 143 0 l 143 972 m 340 346 q 365 163 340 236 q 430 56 390 90 q 513 21 469 21 q 592 54 556 21 q 652 160 629 88 q 675 346 675 233 q 626 593 675 513 q 508 674 578 674 q 426 640 464 674 q 364 533 388 607 q 340 346 340 460 m 46 28 l 274 28 l 274 0 l 46 0 l 46 28 m 46 972 l 190 972 l 190 944 l 46 944 l 46 972 z "},"c":{"ha":768,"x_min":56,"x_max":706,"o":"m 674 122 q 581 17 644 57 q 435 -22 518 -22 q 240 21 326 -22 q 105 147 154 64 q 56 346 56 231 q 106 545 56 461 q 241 673 156 629 q 432 717 326 717 q 576 691 514 717 q 672 622 639 665 q 706 525 706 578 q 678 453 706 479 q 604 428 651 428 q 530 453 556 428 q 504 518 504 479 q 508 551 504 538 q 519 582 511 564 q 533 636 533 613 q 514 674 533 658 q 458 689 494 689 q 353 647 399 689 q 283 529 308 606 q 258 350 258 453 q 315 99 258 189 q 472 10 371 10 q 578 44 533 10 q 646 133 624 78 l 674 122 z "},"ć":{"ha":768,"x_min":56,"x_max":706,"o":"m 674 122 q 581 17 644 57 q 435 -22 518 -22 q 240 21 326 -22 q 105 147 154 64 q 56 346 56 231 q 106 545 56 461 q 241 673 156 629 q 432 717 326 717 q 576 691 514 717 q 672 622 639 665 q 706 525 706 578 q 678 453 706 479 q 604 428 651 428 q 530 453 556 428 q 504 518 504 479 q 508 551 504 538 q 519 582 511 564 q 533 636 533 613 q 514 674 533 658 q 458 689 494 689 q 353 647 399 689 q 283 529 308 606 q 258 350 258 453 q 315 99 258 189 q 472 10 371 10 q 578 44 533 10 q 646 133 624 78 l 674 122 m 307 767 l 288 767 l 386 965 q 453 1026 418 1026 q 484 1015 472 1026 q 496 983 496 1003 q 489 963 496 974 q 474 943 482 951 l 307 767 z "},"č":{"ha":768,"x_min":56,"x_max":706,"o":"m 674 122 q 581 17 644 57 q 435 -22 518 -22 q 240 21 326 -22 q 105 147 154 64 q 56 346 56 231 q 106 545 56 461 q 241 673 156 629 q 432 717 326 717 q 576 691 514 717 q 672 622 639 665 q 706 525 706 578 q 678 453 706 479 q 604 428 651 428 q 530 453 556 428 q 504 518 504 479 q 508 551 504 538 q 519 582 511 564 q 533 636 533 613 q 514 674 533 658 q 458 689 494 689 q 353 647 399 689 q 283 529 308 606 q 258 350 258 453 q 315 99 258 189 q 472 10 371 10 q 578 44 533 10 q 646 133 624 78 l 674 122 m 431 767 l 339 767 l 183 1008 l 225 1008 l 385 850 l 544 1008 l 586 1008 l 431 767 z "},"ç":{"ha":768,"x_min":56,"x_max":706,"o":"m 674 122 q 581 17 644 57 q 435 -22 518 -22 q 240 21 326 -22 q 105 147 154 64 q 56 346 56 231 q 106 545 56 461 q 241 673 156 629 q 432 717 326 717 q 576 691 514 717 q 672 622 639 665 q 706 525 706 578 q 678 453 706 479 q 604 428 651 428 q 530 453 556 428 q 504 518 504 479 q 508 551 504 538 q 519 582 511 564 q 533 636 533 613 q 514 674 533 658 q 458 689 494 689 q 353 647 399 689 q 283 529 308 606 q 258 350 258 453 q 315 99 258 189 q 472 10 371 10 q 578 44 533 10 q 646 133 624 78 l 674 122 m 342 -99 q 410 -79 371 -79 q 482 -103 447 -79 q 517 -182 517 -128 q 483 -266 517 -232 q 389 -300 450 -300 q 254 -242 313 -300 l 274 -217 q 360 -261 319 -261 q 408 -240 390 -261 q 426 -174 426 -218 q 410 -128 426 -143 q 374 -114 394 -114 q 315 -143 340 -114 l 290 -128 l 365 0 l 399 0 l 342 -99 z "},"ĉ":{"ha":768,"x_min":56,"x_max":706,"o":"m 674 122 q 581 17 644 57 q 435 -22 518 -22 q 240 21 326 -22 q 105 147 154 64 q 56 346 56 231 q 106 545 56 461 q 241 673 156 629 q 432 717 326 717 q 576 691 514 717 q 672 622 639 665 q 706 525 706 578 q 678 453 706 479 q 604 428 651 428 q 530 453 556 428 q 504 518 504 479 q 508 551 504 538 q 519 582 511 564 q 533 636 533 613 q 514 674 533 658 q 458 689 494 689 q 353 647 399 689 q 283 529 308 606 q 258 350 258 453 q 315 99 258 189 q 472 10 371 10 q 578 44 533 10 q 646 133 624 78 l 674 122 m 339 1008 l 431 1008 l 586 767 l 544 767 l 385 925 l 225 767 l 183 767 l 339 1008 z "},"ċ":{"ha":768,"x_min":56,"x_max":706,"o":"m 674 122 q 581 17 644 57 q 435 -22 518 -22 q 240 21 326 -22 q 105 147 154 64 q 56 346 56 231 q 106 545 56 461 q 241 673 156 629 q 432 717 326 717 q 576 691 514 717 q 672 622 639 665 q 706 525 706 578 q 678 453 706 479 q 604 428 651 428 q 530 453 556 428 q 504 518 504 479 q 508 551 504 538 q 519 582 511 564 q 533 636 533 613 q 514 674 533 658 q 458 689 494 689 q 353 647 399 689 q 283 529 308 606 q 258 350 258 453 q 315 99 258 189 q 472 10 371 10 q 578 44 533 10 q 646 133 624 78 l 674 122 m 385 815 q 328 839 351 815 q 304 897 304 863 q 328 953 304 929 q 385 976 351 976 q 440 953 417 976 q 464 897 464 929 q 440 839 464 863 q 385 815 417 815 z "},"d":{"ha":936,"x_min":56,"x_max":890,"o":"m 596 0 l 596 142 q 559 72 586 110 q 481 6 532 35 q 357 -22 431 -22 q 205 20 274 -22 q 96 146 136 63 q 56 346 56 229 q 97 540 56 456 q 212 670 139 624 q 376 717 285 717 q 523 672 472 717 q 596 574 574 626 l 596 972 l 793 972 l 793 0 l 596 0 m 596 346 q 572 527 596 453 q 510 638 549 601 q 426 674 471 674 q 346 638 383 674 q 285 527 308 601 q 261 346 261 453 q 285 165 261 239 q 345 56 308 92 q 424 21 382 21 q 506 58 467 21 q 571 169 546 96 q 596 346 596 243 m 663 0 l 663 28 l 890 28 l 890 0 l 663 0 m 499 944 l 499 972 l 615 972 l 615 944 l 499 944 z "},"ð":{"ha":819,"x_min":43,"x_max":747,"o":"m 267 292 q 301 81 267 150 q 394 11 336 11 q 491 82 458 11 q 524 293 524 153 q 496 485 524 406 q 394 565 468 565 q 300 493 333 565 q 267 292 267 421 m 747 388 q 704 170 747 263 q 581 28 661 78 q 392 -22 501 -22 q 223 16 303 -22 q 93 134 143 54 q 43 332 43 214 q 80 483 43 415 q 181 588 117 550 q 329 625 246 625 q 515 532 458 625 q 468 718 511 625 q 353 878 425 811 q 194 965 281 946 l 213 994 q 476 890 354 967 q 672 686 597 814 q 747 388 747 558 m 238 800 l 238 828 l 747 828 l 747 800 l 238 800 z "},"ď":{"ha":936,"x_min":56,"x_max":1025,"o":"m 596 0 l 596 142 q 559 72 586 110 q 481 6 532 35 q 357 -22 431 -22 q 205 20 274 -22 q 96 146 136 63 q 56 346 56 229 q 97 540 56 456 q 212 670 139 624 q 376 717 285 717 q 523 672 472 717 q 596 574 574 626 l 596 972 l 793 972 l 793 0 l 596 0 m 596 346 q 572 527 596 453 q 510 638 549 601 q 426 674 471 674 q 346 638 383 674 q 285 527 308 601 q 261 346 261 453 q 285 165 261 239 q 345 56 308 92 q 424 21 382 21 q 506 58 467 21 q 571 169 546 96 q 596 346 596 243 m 663 0 l 663 28 l 890 28 l 890 0 l 663 0 m 499 944 l 499 972 l 615 972 l 615 944 l 499 944 m 932 914 q 883 933 903 914 q 864 982 864 953 q 885 1030 864 1010 q 936 1050 907 1050 q 1001 1024 976 1050 q 1025 953 1025 999 q 882 756 1025 838 l 874 768 q 981 907 981 839 q 976 921 981 918 q 971 924 972 924 q 932 914 951 914 z "},"đ":{"ha":936,"x_min":56,"x_max":890,"o":"m 596 0 l 596 142 q 559 72 586 110 q 481 6 532 35 q 357 -22 431 -22 q 205 20 274 -22 q 96 146 136 63 q 56 346 56 229 q 97 540 56 456 q 212 670 139 624 q 376 717 285 717 q 523 672 472 717 q 596 574 574 626 l 596 972 l 793 972 l 793 0 l 596 0 m 596 346 q 572 527 596 453 q 510 638 549 601 q 426 674 471 674 q 346 638 383 674 q 285 527 308 601 q 261 346 261 453 q 285 165 261 239 q 345 56 308 92 q 424 21 382 21 q 506 58 467 21 q 571 169 546 96 q 596 346 596 243 m 663 0 l 663 28 l 890 28 l 890 0 l 663 0 m 499 944 l 499 972 l 615 972 l 615 944 l 499 944 m 488 800 l 488 828 l 890 828 l 890 800 l 488 800 z "},"e":{"ha":796,"x_min":56,"x_max":739,"o":"m 700 117 q 614 16 671 54 q 447 -22 557 -22 q 249 22 339 -22 q 108 149 160 65 q 56 346 56 233 q 105 542 56 458 q 240 672 154 626 q 433 717 326 717 q 594 676 525 717 q 701 565 664 636 q 739 400 739 493 l 563 400 q 534 615 565 542 q 426 689 503 689 q 300 599 342 689 q 258 346 258 508 q 320 99 258 189 q 492 10 382 10 q 602 40 553 10 q 672 131 651 71 l 700 117 m 717 428 l 729 400 l 228 400 l 228 428 l 717 428 z "},"é":{"ha":796,"x_min":56,"x_max":739,"o":"m 700 117 q 614 16 671 54 q 447 -22 557 -22 q 249 22 339 -22 q 108 149 160 65 q 56 346 56 233 q 105 542 56 458 q 240 672 154 626 q 433 717 326 717 q 594 676 525 717 q 701 565 664 636 q 739 400 739 493 l 563 400 q 534 615 565 542 q 426 689 503 689 q 300 599 342 689 q 258 346 258 508 q 320 99 258 189 q 492 10 382 10 q 602 40 553 10 q 672 131 651 71 l 700 117 m 717 428 l 729 400 l 228 400 l 228 428 l 717 428 m 321 767 l 301 767 l 400 965 q 467 1026 432 1026 q 498 1015 486 1026 q 510 983 510 1003 q 503 963 510 974 q 488 943 496 951 l 321 767 z "},"ě":{"ha":796,"x_min":56,"x_max":739,"o":"m 700 117 q 614 16 671 54 q 447 -22 557 -22 q 249 22 339 -22 q 108 149 160 65 q 56 346 56 233 q 105 542 56 458 q 240 672 154 626 q 433 717 326 717 q 594 676 525 717 q 701 565 664 636 q 739 400 739 493 l 563 400 q 534 615 565 542 q 426 689 503 689 q 300 599 342 689 q 258 346 258 508 q 320 99 258 189 q 492 10 382 10 q 602 40 553 10 q 672 131 651 71 l 700 117 m 717 428 l 729 400 l 228 400 l 228 428 l 717 428 m 444 767 l 353 767 l 197 1008 l 239 1008 l 399 850 l 558 1008 l 600 1008 l 444 767 z "},"ê":{"ha":796,"x_min":56,"x_max":739,"o":"m 700 117 q 614 16 671 54 q 447 -22 557 -22 q 249 22 339 -22 q 108 149 160 65 q 56 346 56 233 q 105 542 56 458 q 240 672 154 626 q 433 717 326 717 q 594 676 525 717 q 701 565 664 636 q 739 400 739 493 l 563 400 q 534 615 565 542 q 426 689 503 689 q 300 599 342 689 q 258 346 258 508 q 320 99 258 189 q 492 10 382 10 q 602 40 553 10 q 672 131 651 71 l 700 117 m 717 428 l 729 400 l 228 400 l 228 428 l 717 428 m 353 1008 l 444 1008 l 600 767 l 558 767 l 399 925 l 239 767 l 197 767 l 353 1008 z "},"ế":{"ha":796,"x_min":56,"x_max":739,"o":"m 700 117 q 614 16 671 54 q 447 -22 557 -22 q 249 22 339 -22 q 108 149 160 65 q 56 346 56 233 q 105 542 56 458 q 240 672 154 626 q 433 717 326 717 q 594 676 525 717 q 701 565 664 636 q 739 400 739 493 l 563 400 q 534 615 565 542 q 426 689 503 689 q 300 599 342 689 q 258 346 258 508 q 320 99 258 189 q 492 10 382 10 q 602 40 553 10 q 672 131 651 71 l 700 117 m 717 428 l 729 400 l 228 400 l 228 428 l 717 428 m 353 1008 l 444 1008 l 600 767 l 558 767 l 399 925 l 239 767 l 197 767 l 353 1008 m 321 1031 l 301 1031 l 400 1229 q 467 1290 432 1290 q 498 1278 486 1290 q 510 1247 510 1267 q 503 1226 510 1238 q 488 1207 496 1215 l 321 1031 z "},"ệ":{"ha":796,"x_min":56,"x_max":739,"o":"m 700 117 q 614 16 671 54 q 447 -22 557 -22 q 249 22 339 -22 q 108 149 160 65 q 56 346 56 233 q 105 542 56 458 q 240 672 154 626 q 433 717 326 717 q 594 676 525 717 q 701 565 664 636 q 739 400 739 493 l 563 400 q 534 615 565 542 q 426 689 503 689 q 300 599 342 689 q 258 346 258 508 q 320 99 258 189 q 492 10 382 10 q 602 40 553 10 q 672 131 651 71 l 700 117 m 717 428 l 729 400 l 228 400 l 228 428 l 717 428 m 399 -300 q 342 -276 365 -300 q 318 -219 318 -253 q 342 -163 318 -186 q 399 -140 365 -140 q 454 -163 431 -140 q 478 -219 478 -186 q 454 -276 478 -253 q 399 -300 431 -300 m 353 1008 l 444 1008 l 600 767 l 558 767 l 399 925 l 239 767 l 197 767 l 353 1008 z "},"ề":{"ha":796,"x_min":56,"x_max":739,"o":"m 700 117 q 614 16 671 54 q 447 -22 557 -22 q 249 22 339 -22 q 108 149 160 65 q 56 346 56 233 q 105 542 56 458 q 240 672 154 626 q 433 717 326 717 q 594 676 525 717 q 701 565 664 636 q 739 400 739 493 l 563 400 q 534 615 565 542 q 426 689 503 689 q 300 599 342 689 q 258 346 258 508 q 320 99 258 189 q 492 10 382 10 q 602 40 553 10 q 672 131 651 71 l 700 117 m 717 428 l 729 400 l 228 400 l 228 428 l 717 428 m 353 1008 l 444 1008 l 600 767 l 558 767 l 399 925 l 239 767 l 197 767 l 353 1008 m 308 1207 q 288 1247 288 1231 q 299 1278 288 1267 q 331 1290 311 1290 q 367 1273 351 1290 q 396 1229 382 1256 l 500 1031 l 481 1031 l 308 1207 z "},"ể":{"ha":796,"x_min":56,"x_max":739,"o":"m 700 117 q 614 16 671 54 q 447 -22 557 -22 q 249 22 339 -22 q 108 149 160 65 q 56 346 56 233 q 105 542 56 458 q 240 672 154 626 q 433 717 326 717 q 594 676 525 717 q 701 565 664 636 q 739 400 739 493 l 563 400 q 534 615 565 542 q 426 689 503 689 q 300 599 342 689 q 258 346 258 508 q 320 99 258 189 q 492 10 382 10 q 602 40 553 10 q 672 131 651 71 l 700 117 m 717 428 l 729 400 l 228 400 l 228 428 l 717 428 m 356 1008 l 447 1008 l 603 767 l 561 767 l 401 925 l 242 767 l 200 767 l 356 1008 m 154 1265 q 256 1294 206 1294 q 321 1278 292 1294 q 368 1231 350 1263 q 386 1164 386 1199 q 360 1084 386 1122 q 293 1022 335 1046 l 282 1040 q 316 1074 301 1053 q 331 1125 331 1096 q 310 1193 331 1157 q 211 1260 272 1260 q 164 1247 183 1260 l 154 1265 z "},"ễ":{"ha":796,"x_min":56,"x_max":739,"o":"m 700 117 q 614 16 671 54 q 447 -22 557 -22 q 249 22 339 -22 q 108 149 160 65 q 56 346 56 233 q 105 542 56 458 q 240 672 154 626 q 433 717 326 717 q 594 676 525 717 q 701 565 664 636 q 739 400 739 493 l 563 400 q 534 615 565 542 q 426 689 503 689 q 300 599 342 689 q 258 346 258 508 q 320 99 258 189 q 492 10 382 10 q 602 40 553 10 q 672 131 651 71 l 700 117 m 717 428 l 729 400 l 228 400 l 228 428 l 717 428 m 353 1008 l 444 1008 l 600 767 l 558 767 l 399 925 l 239 767 l 197 767 l 353 1008 m 296 1100 q 234 1081 254 1100 q 213 1031 214 1063 l 178 1031 q 301 1185 178 1185 q 349 1176 326 1185 q 407 1149 371 1167 q 463 1122 439 1131 q 511 1113 488 1113 q 565 1132 546 1113 q 585 1183 583 1151 l 619 1183 q 592 1070 619 1110 q 503 1031 565 1031 q 457 1038 478 1031 q 399 1065 436 1046 q 344 1091 367 1082 q 296 1100 321 1100 z "},"ë":{"ha":796,"x_min":56,"x_max":739,"o":"m 700 117 q 614 16 671 54 q 447 -22 557 -22 q 249 22 339 -22 q 108 149 160 65 q 56 346 56 233 q 105 542 56 458 q 240 672 154 626 q 433 717 326 717 q 594 676 525 717 q 701 565 664 636 q 739 400 739 493 l 563 400 q 534 615 565 542 q 426 689 503 689 q 300 599 342 689 q 258 346 258 508 q 320 99 258 189 q 492 10 382 10 q 602 40 553 10 q 672 131 651 71 l 700 117 m 717 428 l 729 400 l 228 400 l 228 428 l 717 428 m 263 815 q 205 839 228 815 q 182 897 182 863 q 206 953 182 931 q 263 976 229 976 q 318 953 294 976 q 342 897 342 929 q 318 839 342 863 q 263 815 294 815 m 535 815 q 478 839 501 815 q 454 897 454 863 q 478 953 454 929 q 535 976 501 976 q 590 953 567 976 q 614 897 614 929 q 590 839 614 863 q 535 815 567 815 z "},"ė":{"ha":796,"x_min":56,"x_max":739,"o":"m 700 117 q 614 16 671 54 q 447 -22 557 -22 q 249 22 339 -22 q 108 149 160 65 q 56 346 56 233 q 105 542 56 458 q 240 672 154 626 q 433 717 326 717 q 594 676 525 717 q 701 565 664 636 q 739 400 739 493 l 563 400 q 534 615 565 542 q 426 689 503 689 q 300 599 342 689 q 258 346 258 508 q 320 99 258 189 q 492 10 382 10 q 602 40 553 10 q 672 131 651 71 l 700 117 m 717 428 l 729 400 l 228 400 l 228 428 l 717 428 m 400 815 q 343 839 367 815 q 319 897 319 863 q 343 953 319 929 q 400 976 367 976 q 456 953 432 976 q 479 897 479 929 q 456 839 479 863 q 400 815 432 815 z "},"ẹ":{"ha":796,"x_min":56,"x_max":739,"o":"m 700 117 q 614 16 671 54 q 447 -22 557 -22 q 249 22 339 -22 q 108 149 160 65 q 56 346 56 233 q 105 542 56 458 q 240 672 154 626 q 433 717 326 717 q 594 676 525 717 q 701 565 664 636 q 739 400 739 493 l 563 400 q 534 615 565 542 q 426 689 503 689 q 300 599 342 689 q 258 346 258 508 q 320 99 258 189 q 492 10 382 10 q 602 40 553 10 q 672 131 651 71 l 700 117 m 717 428 l 729 400 l 228 400 l 228 428 l 717 428 m 399 -300 q 342 -276 365 -300 q 318 -219 318 -253 q 342 -163 318 -186 q 399 -140 365 -140 q 454 -163 431 -140 q 478 -219 478 -186 q 454 -276 478 -253 q 399 -300 431 -300 z "},"è":{"ha":796,"x_min":56,"x_max":739,"o":"m 700 117 q 614 16 671 54 q 447 -22 557 -22 q 249 22 339 -22 q 108 149 160 65 q 56 346 56 233 q 105 542 56 458 q 240 672 154 626 q 433 717 326 717 q 594 676 525 717 q 701 565 664 636 q 739 400 739 493 l 563 400 q 534 615 565 542 q 426 689 503 689 q 300 599 342 689 q 258 346 258 508 q 320 99 258 189 q 492 10 382 10 q 602 40 553 10 q 672 131 651 71 l 700 117 m 717 428 l 729 400 l 228 400 l 228 428 l 717 428 m 308 943 q 288 983 288 967 q 299 1015 288 1003 q 331 1026 311 1026 q 367 1009 351 1026 q 396 965 382 992 l 500 767 l 481 767 l 308 943 z "},"ẻ":{"ha":796,"x_min":56,"x_max":739,"o":"m 700 117 q 614 16 671 54 q 447 -22 557 -22 q 249 22 339 -22 q 108 149 160 65 q 56 346 56 233 q 105 542 56 458 q 240 672 154 626 q 433 717 326 717 q 594 676 525 717 q 701 565 664 636 q 739 400 739 493 l 563 400 q 534 615 565 542 q 426 689 503 689 q 300 599 342 689 q 258 346 258 508 q 320 99 258 189 q 492 10 382 10 q 602 40 553 10 q 672 131 651 71 l 700 117 m 717 428 l 729 400 l 228 400 l 228 428 l 717 428 m 226 988 q 328 1017 278 1017 q 394 1001 364 1017 q 442 953 424 985 q 460 886 460 921 q 434 806 460 844 q 367 744 408 768 l 354 763 q 388 797 374 775 q 403 847 403 818 q 382 915 403 879 q 285 982 346 982 q 238 969 257 982 l 226 988 z "},"ē":{"ha":796,"x_min":56,"x_max":739,"o":"m 700 117 q 614 16 671 54 q 447 -22 557 -22 q 249 22 339 -22 q 108 149 160 65 q 56 346 56 233 q 105 542 56 458 q 240 672 154 626 q 433 717 326 717 q 594 676 525 717 q 701 565 664 636 q 739 400 739 493 l 563 400 q 534 615 565 542 q 426 689 503 689 q 300 599 342 689 q 258 346 258 508 q 320 99 258 189 q 492 10 382 10 q 602 40 553 10 q 672 131 651 71 l 700 117 m 717 428 l 729 400 l 228 400 l 228 428 l 717 428 m 208 869 l 588 869 l 588 817 l 208 817 l 208 869 z "},"ę":{"ha":796,"x_min":56,"x_max":739,"o":"m 700 117 q 614 16 671 54 q 447 -22 557 -22 q 249 22 339 -22 q 108 149 160 65 q 56 346 56 233 q 105 542 56 458 q 240 672 154 626 q 433 717 326 717 q 594 676 525 717 q 701 565 664 636 q 739 400 739 493 l 563 400 q 534 615 565 542 q 426 689 503 689 q 300 599 342 689 q 258 346 258 508 q 320 99 258 189 q 492 10 382 10 q 602 40 553 10 q 672 131 651 71 l 700 117 m 717 428 l 729 400 l 228 400 l 228 428 l 717 428 m 621 14 q 476 -147 476 -61 q 496 -188 476 -169 q 550 -207 515 -207 q 606 -196 572 -207 l 628 -225 q 567 -266 607 -246 q 479 -286 528 -286 q 391 -258 422 -286 q 360 -187 360 -229 q 410 -90 360 -143 q 568 14 460 -36 l 621 14 z "},"ẽ":{"ha":796,"x_min":56,"x_max":739,"o":"m 700 117 q 614 16 671 54 q 447 -22 557 -22 q 249 22 339 -22 q 108 149 160 65 q 56 346 56 233 q 105 542 56 458 q 240 672 154 626 q 433 717 326 717 q 594 676 525 717 q 701 565 664 636 q 739 400 739 493 l 563 400 q 534 615 565 542 q 426 689 503 689 q 300 599 342 689 q 258 346 258 508 q 320 99 258 189 q 492 10 382 10 q 602 40 553 10 q 672 131 651 71 l 700 117 m 717 428 l 729 400 l 228 400 l 228 428 l 717 428 m 296 836 q 234 817 254 836 q 213 767 214 799 l 178 767 q 301 921 178 921 q 349 912 326 921 q 407 885 371 903 q 463 858 439 867 q 511 849 488 849 q 565 868 546 849 q 585 919 583 888 l 619 919 q 592 806 619 846 q 503 767 565 767 q 457 774 478 767 q 399 801 436 782 q 344 827 367 818 q 296 836 321 836 z "},"ə":{"ha":796,"x_min":57,"x_max":740,"o":"m 92 694 l 128 694 q 131 665 128 674 q 143 657 133 657 q 166 663 153 657 q 194 675 179 668 q 267 705 231 693 q 350 717 303 717 q 547 673 457 717 q 688 545 636 629 q 740 349 740 461 q 692 151 740 235 q 558 22 643 67 q 365 -22 474 -22 q 201 18 271 -22 q 95 130 132 58 q 57 294 58 201 l 233 294 q 262 79 231 153 q 369 6 293 6 q 496 96 454 6 q 538 349 538 186 q 484 597 538 508 q 322 685 431 685 q 191 632 250 685 q 119 474 132 579 l 92 474 l 92 694 m 79 267 l 67 294 l 567 294 l 567 267 l 79 267 z "},"f":{"ha":482,"x_min":44,"x_max":618,"o":"m 142 528 l 339 528 l 339 0 l 142 0 l 142 528 m 44 28 l 436 28 l 436 0 l 44 0 l 44 28 m 61 694 l 450 694 l 450 667 l 61 667 l 61 694 m 142 656 q 177 836 142 760 q 277 953 213 913 q 428 994 342 994 q 566 951 514 994 q 618 839 618 908 q 592 763 618 792 q 521 735 567 735 q 463 754 485 735 q 440 808 440 774 q 446 840 440 828 q 464 871 451 853 q 481 897 475 885 q 488 928 488 910 q 474 956 488 946 q 439 967 460 967 q 367 926 394 967 q 339 807 339 886 l 339 422 l 142 422 l 142 656 z "},"g":{"ha":932,"x_min":49,"x_max":897,"o":"m 410 263 q 201 322 283 263 q 119 489 119 382 q 201 656 119 596 q 410 717 283 717 q 615 656 533 717 q 697 489 697 596 q 615 322 697 382 q 410 263 533 263 m 410 290 q 503 338 469 290 q 536 489 536 386 q 503 641 536 593 q 410 689 469 689 q 279 489 279 689 q 410 290 279 290 m 592 636 q 782 717 683 717 q 865 692 833 717 q 897 625 897 668 q 872 572 897 589 q 808 554 846 554 q 736 607 757 554 q 718 635 728 628 q 693 643 708 643 q 607 608 653 643 l 592 636 m 276 306 q 199 262 224 285 q 175 211 175 239 q 202 162 175 181 q 279 143 229 143 l 457 143 q 656 90 593 143 q 719 -44 719 36 q 682 -172 719 -112 q 573 -265 644 -231 q 406 -300 501 -300 q 244 -274 317 -300 q 131 -203 172 -249 q 90 -101 90 -158 q 238 63 90 7 l 315 58 q 243 1 268 39 q 218 -93 218 -37 q 267 -215 218 -168 q 414 -261 315 -261 q 561 -215 508 -261 q 614 -99 614 -168 q 580 -19 614 -46 q 489 7 546 7 l 264 7 q 165 23 214 7 q 82 72 115 39 q 49 153 49 104 q 75 227 49 196 q 135 278 101 258 q 238 332 169 299 l 276 306 z "},"ğ":{"ha":932,"x_min":49,"x_max":897,"o":"m 410 263 q 201 322 283 263 q 119 489 119 382 q 201 656 119 596 q 410 717 283 717 q 615 656 533 717 q 697 489 697 596 q 615 322 697 382 q 410 263 533 263 m 410 290 q 503 338 469 290 q 536 489 536 386 q 503 641 536 593 q 410 689 469 689 q 279 489 279 689 q 410 290 279 290 m 592 636 q 782 717 683 717 q 865 692 833 717 q 897 625 897 668 q 872 572 897 589 q 808 554 846 554 q 736 607 757 554 q 718 635 728 628 q 693 643 708 643 q 607 608 653 643 l 592 636 m 276 306 q 199 262 224 285 q 175 211 175 239 q 202 162 175 181 q 279 143 229 143 l 457 143 q 656 90 593 143 q 719 -44 719 36 q 682 -172 719 -112 q 573 -265 644 -231 q 406 -300 501 -300 q 244 -274 317 -300 q 131 -203 172 -249 q 90 -101 90 -158 q 238 63 90 7 l 315 58 q 243 1 268 39 q 218 -93 218 -37 q 267 -215 218 -168 q 414 -261 315 -261 q 561 -215 508 -261 q 614 -99 614 -168 q 580 -19 614 -46 q 489 7 546 7 l 264 7 q 165 23 214 7 q 82 72 115 39 q 49 153 49 104 q 75 227 49 196 q 135 278 101 258 q 238 332 169 299 l 276 306 m 603 988 q 551 829 603 892 q 408 767 499 767 q 266 829 318 767 q 214 988 214 892 l 250 988 q 285 891 250 933 q 407 849 319 849 q 531 891 494 849 q 567 988 567 933 l 603 988 z "},"ĝ":{"ha":932,"x_min":49,"x_max":897,"o":"m 410 263 q 201 322 283 263 q 119 489 119 382 q 201 656 119 596 q 410 717 283 717 q 615 656 533 717 q 697 489 697 596 q 615 322 697 382 q 410 263 533 263 m 410 290 q 503 338 469 290 q 536 489 536 386 q 503 641 536 593 q 410 689 469 689 q 279 489 279 689 q 410 290 279 290 m 592 636 q 782 717 683 717 q 865 692 833 717 q 897 625 897 668 q 872 572 897 589 q 808 554 846 554 q 736 607 757 554 q 718 635 728 628 q 693 643 708 643 q 607 608 653 643 l 592 636 m 276 306 q 199 262 224 285 q 175 211 175 239 q 202 162 175 181 q 279 143 229 143 l 457 143 q 656 90 593 143 q 719 -44 719 36 q 682 -172 719 -112 q 573 -265 644 -231 q 406 -300 501 -300 q 244 -274 317 -300 q 131 -203 172 -249 q 90 -101 90 -158 q 238 63 90 7 l 315 58 q 243 1 268 39 q 218 -93 218 -37 q 267 -215 218 -168 q 414 -261 315 -261 q 561 -215 508 -261 q 614 -99 614 -168 q 580 -19 614 -46 q 489 7 546 7 l 264 7 q 165 23 214 7 q 82 72 115 39 q 49 153 49 104 q 75 227 49 196 q 135 278 101 258 q 238 332 169 299 l 276 306 m 363 1008 l 454 1008 l 610 767 l 568 767 l 408 925 l 249 767 l 207 767 l 363 1008 z "},"ġ":{"ha":932,"x_min":49,"x_max":897,"o":"m 410 263 q 201 322 283 263 q 119 489 119 382 q 201 656 119 596 q 410 717 283 717 q 615 656 533 717 q 697 489 697 596 q 615 322 697 382 q 410 263 533 263 m 410 290 q 503 338 469 290 q 536 489 536 386 q 503 641 536 593 q 410 689 469 689 q 279 489 279 689 q 410 290 279 290 m 592 636 q 782 717 683 717 q 865 692 833 717 q 897 625 897 668 q 872 572 897 589 q 808 554 846 554 q 736 607 757 554 q 718 635 728 628 q 693 643 708 643 q 607 608 653 643 l 592 636 m 276 306 q 199 262 224 285 q 175 211 175 239 q 202 162 175 181 q 279 143 229 143 l 457 143 q 656 90 593 143 q 719 -44 719 36 q 682 -172 719 -112 q 573 -265 644 -231 q 406 -300 501 -300 q 244 -274 317 -300 q 131 -203 172 -249 q 90 -101 90 -158 q 238 63 90 7 l 315 58 q 243 1 268 39 q 218 -93 218 -37 q 267 -215 218 -168 q 414 -261 315 -261 q 561 -215 508 -261 q 614 -99 614 -168 q 580 -19 614 -46 q 489 7 546 7 l 264 7 q 165 23 214 7 q 82 72 115 39 q 49 153 49 104 q 75 227 49 196 q 135 278 101 258 q 238 332 169 299 l 276 306 m 410 815 q 353 839 376 815 q 329 897 329 863 q 353 953 329 929 q 410 976 376 976 q 465 953 442 976 q 489 897 489 929 q 465 839 489 863 q 410 815 442 815 z "},"ḡ":{"ha":932,"x_min":49,"x_max":897,"o":"m 410 263 q 201 322 283 263 q 119 489 119 382 q 201 656 119 596 q 410 717 283 717 q 615 656 533 717 q 697 489 697 596 q 615 322 697 382 q 410 263 533 263 m 410 290 q 503 338 469 290 q 536 489 536 386 q 503 641 536 593 q 410 689 469 689 q 279 489 279 689 q 410 290 279 290 m 592 636 q 782 717 683 717 q 865 692 833 717 q 897 625 897 668 q 872 572 897 589 q 808 554 846 554 q 736 607 757 554 q 718 635 728 628 q 693 643 708 643 q 607 608 653 643 l 592 636 m 276 306 q 199 262 224 285 q 175 211 175 239 q 202 162 175 181 q 279 143 229 143 l 457 143 q 656 90 593 143 q 719 -44 719 36 q 682 -172 719 -112 q 573 -265 644 -231 q 406 -300 501 -300 q 244 -274 317 -300 q 131 -203 172 -249 q 90 -101 90 -158 q 238 63 90 7 l 315 58 q 243 1 268 39 q 218 -93 218 -37 q 267 -215 218 -168 q 414 -261 315 -261 q 561 -215 508 -261 q 614 -99 614 -168 q 580 -19 614 -46 q 489 7 546 7 l 264 7 q 165 23 214 7 q 82 72 115 39 q 49 153 49 104 q 75 227 49 196 q 135 278 101 258 q 238 332 169 299 l 276 306 m 218 869 l 597 869 l 597 817 l 218 817 l 218 869 z "},"h":{"ha":964,"x_min":46,"x_max":924,"o":"m 143 972 l 340 972 l 340 0 l 143 0 l 143 972 m 46 28 l 438 28 l 438 0 l 46 0 l 46 28 m 46 972 l 301 972 l 301 944 l 46 944 l 46 972 m 629 546 q 613 634 629 604 q 560 664 596 664 q 467 608 519 664 q 378 478 415 553 q 340 354 340 403 l 340 479 l 347 479 q 465 647 392 578 q 618 717 539 717 q 718 692 671 717 q 796 614 765 667 q 826 483 826 561 l 826 0 l 629 0 l 629 546 m 532 28 l 924 28 l 924 0 l 532 0 l 532 28 z "},"ħ":{"ha":964,"x_min":46,"x_max":924,"o":"m 143 972 l 340 972 l 340 0 l 143 0 l 143 972 m 46 28 l 438 28 l 438 0 l 46 0 l 46 28 m 46 972 l 301 972 l 301 944 l 46 944 l 46 972 m 629 546 q 613 634 629 604 q 560 664 596 664 q 467 608 519 664 q 378 478 415 553 q 340 354 340 403 l 340 479 l 347 479 q 465 647 392 578 q 618 717 539 717 q 718 692 671 717 q 796 614 765 667 q 826 483 826 561 l 826 0 l 629 0 l 629 546 m 532 28 l 924 28 l 924 0 l 532 0 l 532 28 m 46 797 l 438 797 l 438 769 l 46 769 l 46 797 z "},"ĥ":{"ha":964,"x_min":31,"x_max":924,"o":"m 143 972 l 340 972 l 340 0 l 143 0 l 143 972 m 46 28 l 438 28 l 438 0 l 46 0 l 46 28 m 46 972 l 301 972 l 301 944 l 46 944 l 46 972 m 629 546 q 613 634 629 604 q 560 664 596 664 q 467 608 519 664 q 378 478 415 553 q 340 354 340 403 l 340 479 l 347 479 q 465 647 392 578 q 618 717 539 717 q 718 692 671 717 q 796 614 765 667 q 826 483 826 561 l 826 0 l 629 0 l 629 546 m 532 28 l 924 28 l 924 0 l 532 0 l 532 28 m 186 1279 l 278 1279 l 433 1038 l 392 1038 l 232 1196 l 72 1038 l 31 1038 l 186 1279 z "},"i":{"ha":482,"x_min":44,"x_max":436,"o":"m 142 694 l 339 694 l 339 0 l 142 0 l 142 694 m 44 28 l 436 28 l 436 0 l 44 0 l 44 28 m 44 694 l 300 694 l 300 667 l 44 667 l 44 694 m 240 785 q 160 817 193 785 q 128 897 128 850 q 160 976 128 943 q 240 1010 193 1010 q 320 976 288 1010 q 353 897 353 943 q 320 817 353 850 q 240 785 288 785 z "},"ı":{"ha":482,"x_min":44,"x_max":436,"o":"m 142 694 l 339 694 l 339 0 l 142 0 l 142 694 m 44 28 l 436 28 l 436 0 l 44 0 l 44 28 m 44 694 l 300 694 l 300 667 l 44 667 l 44 694 z "},"í":{"ha":482,"x_min":44,"x_max":436,"o":"m 142 694 l 339 694 l 339 0 l 142 0 l 142 694 m 44 28 l 436 28 l 436 0 l 44 0 l 44 28 m 44 694 l 300 694 l 300 667 l 44 667 l 44 694 m 165 767 l 146 767 l 244 965 q 311 1026 276 1026 q 342 1015 331 1026 q 354 983 354 1003 q 347 963 354 974 q 332 943 340 951 l 165 767 z "},"ǐ":{"ha":482,"x_min":40,"x_max":443,"o":"m 142 694 l 339 694 l 339 0 l 142 0 l 142 694 m 44 28 l 436 28 l 436 0 l 44 0 l 44 28 m 44 694 l 300 694 l 300 667 l 44 667 l 44 694 m 288 767 l 196 767 l 40 1008 l 82 1008 l 242 850 l 401 1008 l 443 1008 l 288 767 z "},"î":{"ha":482,"x_min":40,"x_max":443,"o":"m 142 694 l 339 694 l 339 0 l 142 0 l 142 694 m 44 28 l 436 28 l 436 0 l 44 0 l 44 28 m 44 694 l 300 694 l 300 667 l 44 667 l 44 694 m 196 1008 l 288 1008 l 443 767 l 401 767 l 242 925 l 82 767 l 40 767 l 196 1008 z "},"ï":{"ha":482,"x_min":25,"x_max":457,"o":"m 142 694 l 339 694 l 339 0 l 142 0 l 142 694 m 44 28 l 436 28 l 436 0 l 44 0 l 44 28 m 44 694 l 300 694 l 300 667 l 44 667 l 44 694 m 106 815 q 48 839 71 815 q 25 897 25 863 q 49 953 25 931 q 106 976 72 976 q 161 953 138 976 q 185 897 185 929 q 161 839 185 863 q 106 815 138 815 m 378 815 q 321 839 344 815 q 297 897 297 863 q 321 953 297 929 q 378 976 344 976 q 433 953 410 976 q 457 897 457 929 q 433 839 457 863 q 378 815 410 815 z "},"ị":{"ha":482,"x_min":44,"x_max":436,"o":"m 142 694 l 339 694 l 339 0 l 142 0 l 142 694 m 44 28 l 436 28 l 436 0 l 44 0 l 44 28 m 44 694 l 300 694 l 300 667 l 44 667 l 44 694 m 240 785 q 160 817 193 785 q 128 897 128 850 q 160 976 128 943 q 240 1010 193 1010 q 320 976 288 1010 q 353 897 353 943 q 320 817 353 850 q 240 785 288 785 m 242 -300 q 185 -276 208 -300 q 161 -219 161 -253 q 185 -163 161 -186 q 242 -140 208 -140 q 297 -163 274 -140 q 321 -219 321 -186 q 297 -276 321 -253 q 242 -300 274 -300 z "},"ì":{"ha":482,"x_min":44,"x_max":436,"o":"m 142 694 l 339 694 l 339 0 l 142 0 l 142 694 m 44 28 l 436 28 l 436 0 l 44 0 l 44 28 m 44 694 l 300 694 l 300 667 l 44 667 l 44 694 m 151 943 q 131 983 131 967 q 142 1015 131 1003 q 174 1026 154 1026 q 210 1009 194 1026 q 239 965 225 992 l 343 767 l 324 767 l 151 943 z "},"ỉ":{"ha":482,"x_min":44,"x_max":436,"o":"m 142 694 l 339 694 l 339 0 l 142 0 l 142 694 m 44 28 l 436 28 l 436 0 l 44 0 l 44 28 m 44 694 l 300 694 l 300 667 l 44 667 l 44 694 m 69 988 q 171 1017 121 1017 q 237 1001 207 1017 q 285 953 267 985 q 303 886 303 921 q 277 806 303 844 q 210 744 251 768 l 197 763 q 231 797 217 775 q 246 847 246 818 q 225 915 246 879 q 128 982 189 982 q 81 969 100 982 l 69 988 z "},"ī":{"ha":482,"x_min":44,"x_max":436,"o":"m 142 694 l 339 694 l 339 0 l 142 0 l 142 694 m 44 28 l 436 28 l 436 0 l 44 0 l 44 28 m 44 694 l 300 694 l 300 667 l 44 667 l 44 694 m 51 869 l 431 869 l 431 817 l 51 817 l 51 869 z "},"į":{"ha":482,"x_min":44,"x_max":436,"o":"m 142 694 l 339 694 l 339 0 l 142 0 l 142 694 m 44 28 l 436 28 l 436 0 l 44 0 l 44 28 m 44 694 l 300 694 l 300 667 l 44 667 l 44 694 m 243 815 q 186 839 210 815 q 163 897 163 863 q 186 953 163 929 q 243 976 210 976 q 299 953 275 976 q 322 897 322 929 q 299 839 322 863 q 243 815 275 815 m 372 14 q 228 -147 228 -61 q 247 -188 228 -169 q 301 -207 267 -207 q 357 -196 324 -207 l 379 -225 q 319 -266 358 -246 q 231 -286 279 -286 q 142 -258 174 -286 q 111 -187 111 -229 q 161 -90 111 -143 q 319 14 211 -36 l 372 14 z "},"ĩ":{"ha":482,"x_min":21,"x_max":463,"o":"m 142 694 l 339 694 l 339 0 l 142 0 l 142 694 m 44 28 l 436 28 l 436 0 l 44 0 l 44 28 m 44 694 l 300 694 l 300 667 l 44 667 l 44 694 m 139 836 q 77 817 97 836 q 56 767 57 799 l 21 767 q 144 921 21 921 q 192 912 169 921 q 250 885 214 903 q 306 858 282 867 q 354 849 331 849 q 408 868 389 849 q 428 919 426 888 l 463 919 q 435 806 463 846 q 346 767 408 767 q 300 774 321 767 q 242 801 279 782 q 187 827 210 818 q 139 836 164 836 z "},"j":{"ha":471,"x_min":-161,"x_max":351,"o":"m 140 694 l 338 694 l 338 272 l 140 272 l 140 694 m 43 694 l 299 694 l 299 667 l 43 667 l 43 694 m 239 785 q 159 817 192 785 q 126 897 126 850 q 159 976 126 943 q 239 1010 192 1010 q 319 976 286 1010 q 351 897 351 943 q 319 817 351 850 q 239 785 286 785 m 338 39 q 260 -209 338 -118 q 50 -300 182 -300 q -54 -278 -6 -300 q -132 -216 -103 -256 q -161 -125 -161 -176 q -135 -53 -161 -81 q -64 -25 -108 -25 q -6 -42 -29 -25 q 17 -93 17 -60 q 11 -117 17 -108 q -6 -142 6 -126 q -24 -170 -18 -157 q -31 -201 -31 -183 q -9 -253 -31 -235 q 46 -272 13 -272 q 116 -239 92 -272 q 140 -144 140 -206 l 140 272 l 338 272 l 338 39 z "},"ȷ":{"ha":457,"x_min":-161,"x_max":338,"o":"m 140 694 l 338 694 l 338 272 l 140 272 l 140 694 m 43 694 l 299 694 l 299 667 l 43 667 l 43 694 m 338 39 q 260 -209 338 -118 q 50 -300 182 -300 q -54 -278 -6 -300 q -132 -216 -103 -256 q -161 -125 -161 -176 q -135 -53 -161 -81 q -64 -25 -108 -25 q -6 -42 -29 -25 q 17 -93 17 -60 q 11 -117 17 -108 q -6 -142 6 -126 q -24 -170 -18 -157 q -31 -201 -31 -183 q -9 -253 -31 -235 q 46 -272 13 -272 q 116 -239 92 -272 q 140 -144 140 -206 l 140 272 l 338 272 l 338 39 z "},"ĵ":{"ha":457,"x_min":-161,"x_max":436,"o":"m 140 694 l 338 694 l 338 272 l 140 272 l 140 694 m 43 694 l 299 694 l 299 667 l 43 667 l 43 694 m 338 39 q 260 -209 338 -118 q 50 -300 182 -300 q -54 -278 -6 -300 q -132 -216 -103 -256 q -161 -125 -161 -176 q -135 -53 -161 -81 q -64 -25 -108 -25 q -6 -42 -29 -25 q 17 -93 17 -60 q 11 -117 17 -108 q -6 -142 6 -126 q -24 -170 -18 -157 q -31 -201 -31 -183 q -9 -253 -31 -235 q 46 -272 13 -272 q 116 -239 92 -272 q 140 -144 140 -206 l 140 272 l 338 272 l 338 39 m 189 1008 l 281 1008 l 436 767 l 394 767 l 235 925 l 75 767 l 33 767 l 189 1008 z "},"k":{"ha":1013,"x_min":46,"x_max":1022,"o":"m 569 490 l 911 0 l 694 0 l 406 392 l 569 490 m 1022 28 l 1022 0 l 583 0 l 583 28 l 1022 28 m 803 694 l 844 694 l 340 303 l 340 346 l 803 694 m 692 694 l 928 694 l 928 667 l 692 667 l 692 694 m 143 972 l 340 972 l 340 0 l 143 0 l 143 972 m 46 28 l 438 28 l 438 0 l 46 0 l 46 28 m 46 972 l 301 972 l 301 944 l 46 944 l 46 972 z "},"ķ":{"ha":1013,"x_min":46,"x_max":1022,"o":"m 569 490 l 911 0 l 694 0 l 406 392 l 569 490 m 1022 28 l 1022 0 l 583 0 l 583 28 l 1022 28 m 803 694 l 844 694 l 340 303 l 340 346 l 803 694 m 692 694 l 928 694 l 928 667 l 692 667 l 692 694 m 143 972 l 340 972 l 340 0 l 143 0 l 143 972 m 46 28 l 438 28 l 438 0 l 46 0 l 46 28 m 46 972 l 301 972 l 301 944 l 46 944 l 46 972 m 494 -233 q 447 -213 467 -233 q 426 -164 426 -193 q 449 -116 426 -136 q 500 -96 471 -96 q 564 -122 540 -96 q 588 -193 588 -147 q 446 -392 588 -307 l 438 -378 q 511 -315 479 -349 q 543 -239 543 -282 q 540 -226 543 -229 q 535 -222 536 -224 q 494 -233 513 -233 z "},"l":{"ha":483,"x_min":46,"x_max":438,"o":"m 143 972 l 340 972 l 340 0 l 143 0 l 143 972 m 46 28 l 438 28 l 438 0 l 46 0 l 46 28 m 46 972 l 301 972 l 301 944 l 46 944 l 46 972 z "},"ĺ":{"ha":483,"x_min":46,"x_max":438,"o":"m 143 972 l 340 972 l 340 0 l 143 0 l 143 972 m 46 28 l 438 28 l 438 0 l 46 0 l 46 28 m 46 972 l 301 972 l 301 944 l 46 944 l 46 972 m 165 1114 l 146 1114 l 244 1313 q 311 1374 276 1374 q 342 1362 331 1374 q 354 1331 354 1350 q 347 1310 354 1321 q 332 1290 340 1299 l 165 1114 z "},"ľ":{"ha":483,"x_min":46,"x_max":553,"o":"m 143 972 l 340 972 l 340 0 l 143 0 l 143 972 m 46 28 l 438 28 l 438 0 l 46 0 l 46 28 m 46 972 l 301 972 l 301 944 l 46 944 l 46 972 m 460 894 q 411 914 431 894 q 392 963 392 933 q 413 1010 392 990 q 464 1031 435 1031 q 528 1005 504 1031 q 553 933 553 979 q 410 736 553 818 l 401 749 q 508 888 508 819 q 504 901 508 899 q 499 904 500 904 q 460 894 479 894 z "},"ļ":{"ha":483,"x_min":46,"x_max":438,"o":"m 143 972 l 340 972 l 340 0 l 143 0 l 143 972 m 46 28 l 438 28 l 438 0 l 46 0 l 46 28 m 46 972 l 301 972 l 301 944 l 46 944 l 46 972 m 229 -233 q 181 -213 201 -233 q 161 -164 161 -193 q 183 -116 161 -136 q 235 -96 206 -96 q 299 -122 275 -96 q 322 -193 322 -147 q 181 -392 322 -307 l 172 -378 q 246 -315 214 -349 q 278 -239 278 -282 q 274 -226 278 -229 q 269 -222 271 -224 q 229 -233 247 -233 z "},"ł":{"ha":483,"x_min":46,"x_max":438,"o":"m 143 972 l 340 972 l 340 0 l 143 0 l 143 972 m 46 28 l 438 28 l 438 0 l 46 0 l 46 28 m 46 972 l 301 972 l 301 944 l 46 944 l 46 972 m 46 442 l 438 578 l 438 550 l 46 414 l 46 442 z "},"m":{"ha":1368,"x_min":42,"x_max":1328,"o":"m 139 694 l 336 694 l 336 0 l 139 0 l 139 694 m 42 28 l 433 28 l 433 0 l 42 0 l 42 28 m 42 694 l 297 694 l 297 667 l 42 667 l 42 694 m 586 546 q 571 634 586 604 q 519 664 556 664 q 439 606 482 664 q 366 472 396 549 q 336 351 336 396 l 336 467 q 439 644 378 572 q 578 717 500 717 q 728 656 674 717 q 783 483 783 596 l 783 0 l 586 0 l 586 546 m 489 28 l 881 28 l 881 0 l 489 0 l 489 28 m 1033 554 q 1018 642 1033 613 q 967 671 1003 671 q 885 613 928 671 q 813 479 843 556 q 783 358 783 403 l 785 482 q 885 656 824 586 q 1025 725 947 725 q 1176 665 1121 725 q 1231 492 1231 604 l 1231 8 l 1033 8 l 1033 554 m 936 28 l 1328 28 l 1328 0 l 936 0 l 936 28 z "},"n":{"ha":960,"x_min":42,"x_max":919,"o":"m 139 694 l 336 694 l 336 0 l 139 0 l 139 694 m 42 28 l 433 28 l 433 0 l 42 0 l 42 28 m 42 694 l 297 694 l 297 667 l 42 667 l 42 694 m 625 546 q 608 634 625 604 q 556 664 592 664 q 463 608 515 664 q 374 478 411 553 q 336 354 336 403 l 336 469 q 402 584 357 526 q 504 679 447 642 q 614 717 561 717 q 767 656 711 717 q 822 483 822 596 l 822 0 l 625 0 l 625 546 m 528 28 l 919 28 l 919 0 l 528 0 l 528 28 z "},"ń":{"ha":960,"x_min":42,"x_max":919,"o":"m 139 694 l 336 694 l 336 0 l 139 0 l 139 694 m 42 28 l 433 28 l 433 0 l 42 0 l 42 28 m 42 694 l 297 694 l 297 667 l 42 667 l 42 694 m 625 546 q 608 634 625 604 q 556 664 592 664 q 463 608 515 664 q 374 478 411 553 q 336 354 336 403 l 336 469 q 402 584 357 526 q 504 679 447 642 q 614 717 561 717 q 767 656 711 717 q 822 483 822 596 l 822 0 l 625 0 l 625 546 m 528 28 l 919 28 l 919 0 l 528 0 l 528 28 m 403 767 l 383 767 l 482 965 q 549 1026 514 1026 q 580 1015 568 1026 q 592 983 592 1003 q 585 963 592 974 q 569 943 578 951 l 403 767 z "},"ň":{"ha":960,"x_min":42,"x_max":919,"o":"m 139 694 l 336 694 l 336 0 l 139 0 l 139 694 m 42 28 l 433 28 l 433 0 l 42 0 l 42 28 m 42 694 l 297 694 l 297 667 l 42 667 l 42 694 m 625 546 q 608 634 625 604 q 556 664 592 664 q 463 608 515 664 q 374 478 411 553 q 336 354 336 403 l 336 469 q 402 584 357 526 q 504 679 447 642 q 614 717 561 717 q 767 656 711 717 q 822 483 822 596 l 822 0 l 625 0 l 625 546 m 528 28 l 919 28 l 919 0 l 528 0 l 528 28 m 526 767 l 435 767 l 279 1008 l 321 1008 l 481 850 l 640 1008 l 682 1008 l 526 767 z "},"ņ":{"ha":960,"x_min":42,"x_max":919,"o":"m 139 694 l 336 694 l 336 0 l 139 0 l 139 694 m 42 28 l 433 28 l 433 0 l 42 0 l 42 28 m 42 694 l 297 694 l 297 667 l 42 667 l 42 694 m 625 546 q 608 634 625 604 q 556 664 592 664 q 463 608 515 664 q 374 478 411 553 q 336 354 336 403 l 336 469 q 402 584 357 526 q 504 679 447 642 q 614 717 561 717 q 767 656 711 717 q 822 483 822 596 l 822 0 l 625 0 l 625 546 m 528 28 l 919 28 l 919 0 l 528 0 l 528 28 m 468 -233 q 420 -213 440 -233 q 400 -164 400 -193 q 422 -116 400 -136 q 474 -96 444 -96 q 538 -122 514 -96 q 561 -193 561 -147 q 419 -392 561 -307 l 411 -378 q 485 -315 453 -349 q 517 -239 517 -282 q 513 -226 517 -229 q 508 -222 510 -224 q 468 -233 486 -233 z "},"ñ":{"ha":960,"x_min":42,"x_max":919,"o":"m 139 694 l 336 694 l 336 0 l 139 0 l 139 694 m 42 28 l 433 28 l 433 0 l 42 0 l 42 28 m 42 694 l 297 694 l 297 667 l 42 667 l 42 694 m 625 546 q 608 634 625 604 q 556 664 592 664 q 463 608 515 664 q 374 478 411 553 q 336 354 336 403 l 336 469 q 402 584 357 526 q 504 679 447 642 q 614 717 561 717 q 767 656 711 717 q 822 483 822 596 l 822 0 l 625 0 l 625 546 m 528 28 l 919 28 l 919 0 l 528 0 l 528 28 m 378 836 q 316 817 336 836 q 294 767 296 799 l 260 767 q 383 921 260 921 q 431 912 408 921 q 489 885 453 903 q 545 858 521 867 q 593 849 569 849 q 647 868 628 849 q 667 919 665 888 l 701 919 q 674 806 701 846 q 585 767 647 767 q 539 774 560 767 q 481 801 518 782 q 426 827 449 818 q 378 836 403 836 z "},"o":{"ha":865,"x_min":56,"x_max":810,"o":"m 432 -22 q 241 21 326 -22 q 106 147 156 64 q 56 346 56 231 q 106 547 56 463 q 241 674 156 631 q 432 717 326 717 q 624 674 538 717 q 760 547 710 631 q 810 346 810 463 q 760 147 810 231 q 624 21 710 64 q 432 -22 538 -22 m 432 3 q 558 89 513 3 q 604 346 604 175 q 558 603 604 517 q 432 689 513 689 q 304 603 350 689 q 258 346 258 517 q 304 89 258 175 q 432 3 350 3 z "},"ó":{"ha":865,"x_min":56,"x_max":810,"o":"m 432 -22 q 241 21 326 -22 q 106 147 156 64 q 56 346 56 231 q 106 547 56 463 q 241 674 156 631 q 432 717 326 717 q 624 674 538 717 q 760 547 710 631 q 810 346 810 463 q 760 147 810 231 q 624 21 710 64 q 432 -22 538 -22 m 432 3 q 558 89 513 3 q 604 346 604 175 q 558 603 604 517 q 432 689 513 689 q 304 603 350 689 q 258 346 258 517 q 304 89 258 175 q 432 3 350 3 m 356 767 l 336 767 l 435 965 q 501 1026 467 1026 q 533 1015 521 1026 q 544 983 544 1003 q 538 963 544 974 q 522 943 531 951 l 356 767 z "},"ǒ":{"ha":865,"x_min":56,"x_max":810,"o":"m 432 -22 q 241 21 326 -22 q 106 147 156 64 q 56 346 56 231 q 106 547 56 463 q 241 674 156 631 q 432 717 326 717 q 624 674 538 717 q 760 547 710 631 q 810 346 810 463 q 760 147 810 231 q 624 21 710 64 q 432 -22 538 -22 m 432 3 q 558 89 513 3 q 604 346 604 175 q 558 603 604 517 q 432 689 513 689 q 304 603 350 689 q 258 346 258 517 q 304 89 258 175 q 432 3 350 3 m 478 767 l 386 767 l 231 1008 l 272 1008 l 432 850 l 592 1008 l 633 1008 l 478 767 z "},"ô":{"ha":865,"x_min":56,"x_max":810,"o":"m 432 -22 q 241 21 326 -22 q 106 147 156 64 q 56 346 56 231 q 106 547 56 463 q 241 674 156 631 q 432 717 326 717 q 624 674 538 717 q 760 547 710 631 q 810 346 810 463 q 760 147 810 231 q 624 21 710 64 q 432 -22 538 -22 m 432 3 q 558 89 513 3 q 604 346 604 175 q 558 603 604 517 q 432 689 513 689 q 304 603 350 689 q 258 346 258 517 q 304 89 258 175 q 432 3 350 3 m 386 1008 l 478 1008 l 633 767 l 592 767 l 432 925 l 272 767 l 231 767 l 386 1008 z "},"ố":{"ha":865,"x_min":56,"x_max":810,"o":"m 432 -22 q 241 21 326 -22 q 106 147 156 64 q 56 346 56 231 q 106 547 56 463 q 241 674 156 631 q 432 717 326 717 q 624 674 538 717 q 760 547 710 631 q 810 346 810 463 q 760 147 810 231 q 624 21 710 64 q 432 -22 538 -22 m 432 3 q 558 89 513 3 q 604 346 604 175 q 558 603 604 517 q 432 689 513 689 q 304 603 350 689 q 258 346 258 517 q 304 89 258 175 q 432 3 350 3 m 386 1008 l 478 1008 l 633 767 l 592 767 l 432 925 l 272 767 l 231 767 l 386 1008 m 356 1031 l 336 1031 l 435 1229 q 501 1290 467 1290 q 533 1278 521 1290 q 544 1247 544 1267 q 538 1226 544 1238 q 522 1207 531 1215 l 356 1031 z "},"ộ":{"ha":865,"x_min":56,"x_max":810,"o":"m 432 -22 q 241 21 326 -22 q 106 147 156 64 q 56 346 56 231 q 106 547 56 463 q 241 674 156 631 q 432 717 326 717 q 624 674 538 717 q 760 547 710 631 q 810 346 810 463 q 760 147 810 231 q 624 21 710 64 q 432 -22 538 -22 m 432 3 q 558 89 513 3 q 604 346 604 175 q 558 603 604 517 q 432 689 513 689 q 304 603 350 689 q 258 346 258 517 q 304 89 258 175 q 432 3 350 3 m 432 -300 q 375 -276 399 -300 q 351 -219 351 -253 q 375 -163 351 -186 q 432 -140 399 -140 q 488 -163 464 -140 q 511 -219 511 -186 q 488 -276 511 -253 q 432 -300 464 -300 m 386 1008 l 478 1008 l 633 767 l 592 767 l 432 925 l 272 767 l 231 767 l 386 1008 z "},"ồ":{"ha":865,"x_min":56,"x_max":810,"o":"m 432 -22 q 241 21 326 -22 q 106 147 156 64 q 56 346 56 231 q 106 547 56 463 q 241 674 156 631 q 432 717 326 717 q 624 674 538 717 q 760 547 710 631 q 810 346 810 463 q 760 147 810 231 q 624 21 710 64 q 432 -22 538 -22 m 432 3 q 558 89 513 3 q 604 346 604 175 q 558 603 604 517 q 432 689 513 689 q 304 603 350 689 q 258 346 258 517 q 304 89 258 175 q 432 3 350 3 m 386 1008 l 478 1008 l 633 767 l 592 767 l 432 925 l 272 767 l 231 767 l 386 1008 m 342 1207 q 321 1247 321 1231 q 333 1278 321 1267 q 364 1290 344 1290 q 400 1273 385 1290 q 429 1229 415 1256 l 533 1031 l 514 1031 l 342 1207 z "},"ổ":{"ha":865,"x_min":56,"x_max":810,"o":"m 432 -22 q 241 21 326 -22 q 106 147 156 64 q 56 346 56 231 q 106 547 56 463 q 241 674 156 631 q 432 717 326 717 q 624 674 538 717 q 760 547 710 631 q 810 346 810 463 q 760 147 810 231 q 624 21 710 64 q 432 -22 538 -22 m 432 3 q 558 89 513 3 q 604 346 604 175 q 558 603 604 517 q 432 689 513 689 q 304 603 350 689 q 258 346 258 517 q 304 89 258 175 q 432 3 350 3 m 390 1008 l 482 1008 l 638 767 l 596 767 l 436 925 l 276 767 l 235 767 l 390 1008 m 189 1265 q 290 1294 240 1294 q 356 1278 326 1294 q 403 1231 385 1263 q 421 1164 421 1199 q 395 1084 421 1122 q 328 1022 369 1046 l 317 1040 q 351 1074 336 1053 q 365 1125 365 1096 q 344 1193 365 1157 q 246 1260 307 1260 q 199 1247 218 1260 l 189 1265 z "},"ỗ":{"ha":865,"x_min":56,"x_max":810,"o":"m 432 -22 q 241 21 326 -22 q 106 147 156 64 q 56 346 56 231 q 106 547 56 463 q 241 674 156 631 q 432 717 326 717 q 624 674 538 717 q 760 547 710 631 q 810 346 810 463 q 760 147 810 231 q 624 21 710 64 q 432 -22 538 -22 m 432 3 q 558 89 513 3 q 604 346 604 175 q 558 603 604 517 q 432 689 513 689 q 304 603 350 689 q 258 346 258 517 q 304 89 258 175 q 432 3 350 3 m 386 1008 l 478 1008 l 633 767 l 592 767 l 432 925 l 272 767 l 231 767 l 386 1008 m 329 1100 q 267 1081 288 1100 q 246 1031 247 1063 l 211 1031 q 335 1185 211 1185 q 382 1176 360 1185 q 440 1149 404 1167 q 497 1122 472 1131 q 544 1113 521 1113 q 598 1132 579 1113 q 618 1183 617 1151 l 653 1183 q 626 1070 653 1110 q 536 1031 599 1031 q 490 1038 511 1031 q 432 1065 469 1046 q 377 1091 400 1082 q 329 1100 354 1100 z "},"ö":{"ha":865,"x_min":56,"x_max":810,"o":"m 432 -22 q 241 21 326 -22 q 106 147 156 64 q 56 346 56 231 q 106 547 56 463 q 241 674 156 631 q 432 717 326 717 q 624 674 538 717 q 760 547 710 631 q 810 346 810 463 q 760 147 810 231 q 624 21 710 64 q 432 -22 538 -22 m 432 3 q 558 89 513 3 q 604 346 604 175 q 558 603 604 517 q 432 689 513 689 q 304 603 350 689 q 258 346 258 517 q 304 89 258 175 q 432 3 350 3 m 297 815 q 240 839 263 815 q 217 897 217 863 q 240 953 217 931 q 297 976 264 976 q 353 953 329 976 q 376 897 376 929 q 353 839 376 863 q 297 815 329 815 m 569 815 q 513 839 536 815 q 489 897 489 863 q 513 953 489 929 q 569 976 536 976 q 625 953 601 976 q 649 897 649 929 q 625 839 649 863 q 569 815 601 815 z "},"ọ":{"ha":865,"x_min":56,"x_max":810,"o":"m 432 -22 q 241 21 326 -22 q 106 147 156 64 q 56 346 56 231 q 106 547 56 463 q 241 674 156 631 q 432 717 326 717 q 624 674 538 717 q 760 547 710 631 q 810 346 810 463 q 760 147 810 231 q 624 21 710 64 q 432 -22 538 -22 m 432 3 q 558 89 513 3 q 604 346 604 175 q 558 603 604 517 q 432 689 513 689 q 304 603 350 689 q 258 346 258 517 q 304 89 258 175 q 432 3 350 3 m 432 -300 q 375 -276 399 -300 q 351 -219 351 -253 q 375 -163 351 -186 q 432 -140 399 -140 q 488 -163 464 -140 q 511 -219 511 -186 q 488 -276 511 -253 q 432 -300 464 -300 z "},"ò":{"ha":865,"x_min":56,"x_max":810,"o":"m 432 -22 q 241 21 326 -22 q 106 147 156 64 q 56 346 56 231 q 106 547 56 463 q 241 674 156 631 q 432 717 326 717 q 624 674 538 717 q 760 547 710 631 q 810 346 810 463 q 760 147 810 231 q 624 21 710 64 q 432 -22 538 -22 m 432 3 q 558 89 513 3 q 604 346 604 175 q 558 603 604 517 q 432 689 513 689 q 304 603 350 689 q 258 346 258 517 q 304 89 258 175 q 432 3 350 3 m 342 943 q 321 983 321 967 q 333 1015 321 1003 q 364 1026 344 1026 q 400 1009 385 1026 q 429 965 415 992 l 533 767 l 514 767 l 342 943 z "},"ỏ":{"ha":865,"x_min":56,"x_max":810,"o":"m 432 -22 q 241 21 326 -22 q 106 147 156 64 q 56 346 56 231 q 106 547 56 463 q 241 674 156 631 q 432 717 326 717 q 624 674 538 717 q 760 547 710 631 q 810 346 810 463 q 760 147 810 231 q 624 21 710 64 q 432 -22 538 -22 m 432 3 q 558 89 513 3 q 604 346 604 175 q 558 603 604 517 q 432 689 513 689 q 304 603 350 689 q 258 346 258 517 q 304 89 258 175 q 432 3 350 3 m 260 988 q 361 1017 311 1017 q 427 1001 397 1017 q 475 953 457 985 q 493 886 493 921 q 467 806 493 844 q 400 744 442 768 l 388 763 q 422 797 407 775 q 436 847 436 818 q 415 915 436 879 q 318 982 379 982 q 271 969 290 982 l 260 988 z "},"ő":{"ha":865,"x_min":56,"x_max":810,"o":"m 432 -22 q 241 21 326 -22 q 106 147 156 64 q 56 346 56 231 q 106 547 56 463 q 241 674 156 631 q 432 717 326 717 q 624 674 538 717 q 760 547 710 631 q 810 346 810 463 q 760 147 810 231 q 624 21 710 64 q 432 -22 538 -22 m 432 3 q 558 89 513 3 q 604 346 604 175 q 558 603 604 517 q 432 689 513 689 q 304 603 350 689 q 258 346 258 517 q 304 89 258 175 q 432 3 350 3 m 338 767 l 318 767 l 417 965 q 483 1026 449 1026 q 515 1015 503 1026 q 526 983 526 1003 q 519 963 526 974 q 504 943 513 951 l 338 767 m 488 767 l 468 767 l 567 965 q 596 1009 581 992 q 632 1026 611 1026 q 664 1015 651 1026 q 676 983 676 1003 q 669 963 676 974 q 654 943 663 951 l 488 767 z "},"ō":{"ha":865,"x_min":56,"x_max":810,"o":"m 432 -22 q 241 21 326 -22 q 106 147 156 64 q 56 346 56 231 q 106 547 56 463 q 241 674 156 631 q 432 717 326 717 q 624 674 538 717 q 760 547 710 631 q 810 346 810 463 q 760 147 810 231 q 624 21 710 64 q 432 -22 538 -22 m 432 3 q 558 89 513 3 q 604 346 604 175 q 558 603 604 517 q 432 689 513 689 q 304 603 350 689 q 258 346 258 517 q 304 89 258 175 q 432 3 350 3 m 242 869 l 621 869 l 621 817 l 242 817 l 242 869 z "},"ø":{"ha":865,"x_min":56,"x_max":810,"o":"m 432 -22 q 241 21 326 -22 q 106 147 156 64 q 56 346 56 231 q 106 547 56 463 q 241 674 156 631 q 432 717 326 717 q 624 674 538 717 q 760 547 710 631 q 810 346 810 463 q 760 147 810 231 q 624 21 710 64 q 432 -22 538 -22 m 433 3 q 558 89 513 3 q 604 346 604 175 q 558 603 604 517 q 433 689 513 689 q 305 603 351 689 q 258 346 258 518 q 305 89 258 175 q 433 3 351 3 m 161 0 l 124 0 l 706 694 l 743 694 l 161 0 z "},"õ":{"ha":865,"x_min":56,"x_max":810,"o":"m 432 -22 q 241 21 326 -22 q 106 147 156 64 q 56 346 56 231 q 106 547 56 463 q 241 674 156 631 q 432 717 326 717 q 624 674 538 717 q 760 547 710 631 q 810 346 810 463 q 760 147 810 231 q 624 21 710 64 q 432 -22 538 -22 m 432 3 q 558 89 513 3 q 604 346 604 175 q 558 603 604 517 q 432 689 513 689 q 304 603 350 689 q 258 346 258 517 q 304 89 258 175 q 432 3 350 3 m 329 836 q 267 817 288 836 q 246 767 247 799 l 211 767 q 335 921 211 921 q 382 912 360 921 q 440 885 404 903 q 497 858 472 867 q 544 849 521 849 q 598 868 579 849 q 618 919 617 888 l 653 919 q 626 806 653 846 q 536 767 599 767 q 490 774 511 767 q 432 801 469 782 q 377 827 400 818 q 329 836 354 836 z "},"œ":{"ha":1347,"x_min":56,"x_max":1290,"o":"m 432 -22 q 241 21 326 -22 q 106 147 156 64 q 56 346 56 231 q 106 547 56 463 q 241 674 156 631 q 432 717 326 717 q 624 674 538 717 q 760 547 710 631 q 810 346 810 463 q 760 147 810 231 q 624 21 710 64 q 432 -22 538 -22 m 432 3 q 558 89 513 3 q 604 346 604 175 q 558 603 604 517 q 432 689 513 689 q 304 603 350 689 q 258 346 258 517 q 304 89 258 175 q 432 3 350 3 m 1253 117 q 1165 16 1222 54 q 999 -22 1108 -22 q 801 22 890 -22 q 659 149 711 65 q 607 346 607 233 q 656 542 607 458 q 792 672 706 626 q 985 717 878 717 q 1147 676 1078 717 q 1253 565 1215 636 q 1290 400 1290 493 l 1114 400 q 1085 615 1117 542 q 978 689 1054 689 q 851 599 893 689 q 810 346 810 508 q 872 99 810 189 q 1044 10 935 10 q 1153 40 1104 10 q 1225 131 1203 71 l 1253 117 m 1268 428 l 1281 400 l 781 400 l 781 428 l 1268 428 z "},"p":{"ha":932,"x_min":43,"x_max":878,"o":"m 338 694 l 338 553 q 373 622 346 583 q 451 688 400 660 q 575 717 501 717 q 727 674 658 717 q 837 549 796 632 q 878 349 878 465 q 836 155 878 239 q 721 24 794 71 q 556 -22 647 -22 q 409 24 461 -22 q 338 121 357 69 l 338 -278 l 140 -278 l 140 694 l 338 694 m 338 349 q 361 167 338 242 q 424 57 385 93 q 506 21 463 21 q 587 57 549 21 q 649 167 625 93 q 672 349 672 242 q 649 529 672 456 q 588 638 625 603 q 508 674 550 674 q 427 636 467 674 q 363 525 388 599 q 338 349 338 451 m 271 694 l 271 667 l 43 667 l 43 694 l 271 694 m 435 -250 l 435 -278 l 43 -278 l 43 -250 l 435 -250 z "},"þ":{"ha":932,"x_min":43,"x_max":878,"o":"m 338 972 l 338 553 q 373 622 346 583 q 451 688 400 660 q 575 717 501 717 q 727 674 658 717 q 837 549 796 632 q 878 349 878 465 q 836 155 878 239 q 721 24 794 71 q 556 -22 647 -22 q 409 24 461 -22 q 338 121 357 69 l 338 -278 l 140 -278 l 140 972 l 338 972 m 338 349 q 361 167 338 242 q 424 57 385 93 q 506 21 463 21 q 587 57 549 21 q 649 167 625 93 q 672 349 672 242 q 649 529 672 456 q 588 638 625 603 q 508 674 550 674 q 427 636 467 674 q 363 525 388 599 q 338 349 338 451 m 271 972 l 271 944 l 43 944 l 43 972 l 271 972 m 435 -250 l 435 -278 l 43 -278 l 43 -250 l 435 -250 z "},"q":{"ha":932,"x_min":56,"x_max":890,"o":"m 793 -278 l 596 -278 l 596 121 q 523 23 574 68 q 376 -22 472 -22 q 212 24 285 -22 q 97 155 139 71 q 56 349 56 239 q 96 549 56 465 q 205 674 136 632 q 357 717 274 717 q 481 688 431 717 q 559 622 532 660 q 596 553 586 585 l 596 694 l 793 694 l 793 -278 m 596 349 q 571 525 596 451 q 506 636 546 599 q 424 674 467 674 q 345 638 382 674 q 285 529 308 603 q 261 349 261 456 q 285 167 261 242 q 346 57 308 93 q 426 21 383 21 q 510 57 471 21 q 572 167 549 93 q 596 349 596 242 m 890 667 l 663 667 l 663 694 l 890 694 l 890 667 m 890 -278 l 499 -278 l 499 -250 l 890 -250 l 890 -278 z "},"r":{"ha":715,"x_min":42,"x_max":725,"o":"m 139 694 l 336 694 l 336 0 l 139 0 l 139 694 m 42 28 l 433 28 l 433 0 l 42 0 l 42 28 m 42 694 l 297 694 l 297 667 l 42 667 l 42 694 m 532 551 q 543 600 532 572 q 553 635 553 619 q 526 664 553 664 q 443 605 488 664 q 367 469 399 546 q 336 354 336 393 l 336 461 q 438 640 372 564 q 592 717 504 717 q 688 682 650 717 q 725 578 725 647 q 700 503 725 533 q 622 474 675 474 q 557 494 582 474 q 532 551 532 514 z "},"ŕ":{"ha":715,"x_min":42,"x_max":725,"o":"m 139 694 l 336 694 l 336 0 l 139 0 l 139 694 m 42 28 l 433 28 l 433 0 l 42 0 l 42 28 m 42 694 l 297 694 l 297 667 l 42 667 l 42 694 m 532 551 q 543 600 532 572 q 553 635 553 619 q 526 664 553 664 q 443 605 488 664 q 367 469 399 546 q 336 354 336 393 l 336 461 q 438 640 372 564 q 592 717 504 717 q 688 682 650 717 q 725 578 725 647 q 700 503 725 533 q 622 474 675 474 q 557 494 582 474 q 532 551 532 514 m 281 767 l 261 767 l 360 965 q 426 1026 392 1026 q 458 1015 446 1026 q 469 983 469 1003 q 463 963 469 974 q 447 943 456 951 l 281 767 z "},"ř":{"ha":715,"x_min":42,"x_max":725,"o":"m 139 694 l 336 694 l 336 0 l 139 0 l 139 694 m 42 28 l 433 28 l 433 0 l 42 0 l 42 28 m 42 694 l 297 694 l 297 667 l 42 667 l 42 694 m 532 551 q 543 600 532 572 q 553 635 553 619 q 526 664 553 664 q 443 605 488 664 q 367 469 399 546 q 336 354 336 393 l 336 461 q 438 640 372 564 q 592 717 504 717 q 688 682 650 717 q 725 578 725 647 q 700 503 725 533 q 622 474 675 474 q 557 494 582 474 q 532 551 532 514 m 404 767 l 313 767 l 157 1008 l 199 1008 l 358 850 l 518 1008 l 560 1008 l 404 767 z "},"ŗ":{"ha":715,"x_min":42,"x_max":725,"o":"m 139 694 l 336 694 l 336 0 l 139 0 l 139 694 m 42 28 l 433 28 l 433 0 l 42 0 l 42 28 m 42 694 l 297 694 l 297 667 l 42 667 l 42 694 m 532 551 q 543 600 532 572 q 553 635 553 619 q 526 664 553 664 q 443 605 488 664 q 367 469 399 546 q 336 354 336 393 l 336 461 q 438 640 372 564 q 592 717 504 717 q 688 682 650 717 q 725 578 725 647 q 700 503 725 533 q 622 474 675 474 q 557 494 582 474 q 532 551 532 514 m 222 -233 q 174 -213 194 -233 q 154 -164 154 -193 q 176 -116 154 -136 q 228 -96 199 -96 q 292 -122 268 -96 q 315 -193 315 -147 q 174 -392 315 -307 l 165 -378 q 239 -315 207 -349 q 271 -239 271 -282 q 267 -226 271 -229 q 263 -222 264 -224 q 222 -233 240 -233 z "},"s":{"ha":724,"x_min":90,"x_max":643,"o":"m 358 717 q 440 706 406 717 q 508 676 474 694 q 551 661 542 661 q 567 667 561 661 q 572 681 572 672 l 599 681 l 599 500 l 576 500 q 505 640 563 588 q 374 692 447 692 q 290 665 321 692 q 258 593 258 639 q 284 524 258 553 q 364 461 310 494 l 471 397 q 565 335 531 361 q 621 272 599 308 q 643 185 643 235 q 606 72 643 119 q 507 1 568 25 q 375 -22 446 -22 q 197 16 254 -22 q 135 56 139 54 q 121 38 121 56 l 90 38 l 90 224 l 110 224 q 198 69 133 129 q 357 10 263 10 q 447 38 413 10 q 482 122 482 67 q 456 204 482 174 q 372 269 431 235 l 258 336 q 153 419 189 378 q 117 529 117 461 q 181 666 117 615 q 358 717 246 717 z "},"ś":{"ha":724,"x_min":90,"x_max":643,"o":"m 358 717 q 440 706 406 717 q 508 676 474 694 q 551 661 542 661 q 567 667 561 661 q 572 681 572 672 l 599 681 l 599 500 l 576 500 q 505 640 563 588 q 374 692 447 692 q 290 665 321 692 q 258 593 258 639 q 284 524 258 553 q 364 461 310 494 l 471 397 q 565 335 531 361 q 621 272 599 308 q 643 185 643 235 q 606 72 643 119 q 507 1 568 25 q 375 -22 446 -22 q 197 16 254 -22 q 135 56 139 54 q 121 38 121 56 l 90 38 l 90 224 l 110 224 q 198 69 133 129 q 357 10 263 10 q 447 38 413 10 q 482 122 482 67 q 456 204 482 174 q 372 269 431 235 l 258 336 q 153 419 189 378 q 117 529 117 461 q 181 666 117 615 q 358 717 246 717 m 285 767 l 265 767 l 364 965 q 431 1026 396 1026 q 462 1015 450 1026 q 474 983 474 1003 q 467 963 474 974 q 451 943 460 951 l 285 767 z "},"š":{"ha":724,"x_min":90,"x_max":643,"o":"m 358 717 q 440 706 406 717 q 508 676 474 694 q 551 661 542 661 q 567 667 561 661 q 572 681 572 672 l 599 681 l 599 500 l 576 500 q 505 640 563 588 q 374 692 447 692 q 290 665 321 692 q 258 593 258 639 q 284 524 258 553 q 364 461 310 494 l 471 397 q 565 335 531 361 q 621 272 599 308 q 643 185 643 235 q 606 72 643 119 q 507 1 568 25 q 375 -22 446 -22 q 197 16 254 -22 q 135 56 139 54 q 121 38 121 56 l 90 38 l 90 224 l 110 224 q 198 69 133 129 q 357 10 263 10 q 447 38 413 10 q 482 122 482 67 q 456 204 482 174 q 372 269 431 235 l 258 336 q 153 419 189 378 q 117 529 117 461 q 181 666 117 615 q 358 717 246 717 m 408 767 l 317 767 l 161 1008 l 203 1008 l 363 850 l 522 1008 l 564 1008 l 408 767 z "},"ş":{"ha":724,"x_min":90,"x_max":643,"o":"m 358 717 q 440 706 406 717 q 508 676 474 694 q 551 661 542 661 q 567 667 561 661 q 572 681 572 672 l 599 681 l 599 500 l 576 500 q 505 640 563 588 q 374 692 447 692 q 290 665 321 692 q 258 593 258 639 q 284 524 258 553 q 364 461 310 494 l 471 397 q 565 335 531 361 q 621 272 599 308 q 643 185 643 235 q 606 72 643 119 q 507 1 568 25 q 375 -22 446 -22 q 197 16 254 -22 q 135 56 139 54 q 121 38 121 56 l 90 38 l 90 224 l 110 224 q 198 69 133 129 q 357 10 263 10 q 447 38 413 10 q 482 122 482 67 q 456 204 482 174 q 372 269 431 235 l 258 336 q 153 419 189 378 q 117 529 117 461 q 181 666 117 615 q 358 717 246 717 m 319 -99 q 388 -79 349 -79 q 460 -103 425 -79 q 494 -182 494 -128 q 461 -266 494 -232 q 367 -300 428 -300 q 232 -242 290 -300 l 251 -217 q 338 -261 297 -261 q 386 -240 368 -261 q 404 -174 404 -218 q 388 -128 404 -143 q 351 -114 372 -114 q 293 -143 318 -114 l 268 -128 l 343 0 l 376 0 l 319 -99 z "},"ŝ":{"ha":724,"x_min":90,"x_max":643,"o":"m 358 717 q 440 706 406 717 q 508 676 474 694 q 551 661 542 661 q 567 667 561 661 q 572 681 572 672 l 599 681 l 599 500 l 576 500 q 505 640 563 588 q 374 692 447 692 q 290 665 321 692 q 258 593 258 639 q 284 524 258 553 q 364 461 310 494 l 471 397 q 565 335 531 361 q 621 272 599 308 q 643 185 643 235 q 606 72 643 119 q 507 1 568 25 q 375 -22 446 -22 q 197 16 254 -22 q 135 56 139 54 q 121 38 121 56 l 90 38 l 90 224 l 110 224 q 198 69 133 129 q 357 10 263 10 q 447 38 413 10 q 482 122 482 67 q 456 204 482 174 q 372 269 431 235 l 258 336 q 153 419 189 378 q 117 529 117 461 q 181 666 117 615 q 358 717 246 717 m 317 1008 l 408 1008 l 564 767 l 522 767 l 363 925 l 203 767 l 161 767 l 317 1008 z "},"ș":{"ha":724,"x_min":90,"x_max":643,"o":"m 358 717 q 440 706 406 717 q 508 676 474 694 q 551 661 542 661 q 567 667 561 661 q 572 681 572 672 l 599 681 l 599 500 l 576 500 q 505 640 563 588 q 374 692 447 692 q 290 665 321 692 q 258 593 258 639 q 284 524 258 553 q 364 461 310 494 l 471 397 q 565 335 531 361 q 621 272 599 308 q 643 185 643 235 q 606 72 643 119 q 507 1 568 25 q 375 -22 446 -22 q 197 16 254 -22 q 135 56 139 54 q 121 38 121 56 l 90 38 l 90 224 l 110 224 q 198 69 133 129 q 357 10 263 10 q 447 38 413 10 q 482 122 482 67 q 456 204 482 174 q 372 269 431 235 l 258 336 q 153 419 189 378 q 117 529 117 461 q 181 666 117 615 q 358 717 246 717 m 350 -233 q 302 -213 322 -233 q 282 -164 282 -193 q 304 -116 282 -136 q 356 -96 326 -96 q 419 -122 396 -96 q 443 -193 443 -147 q 301 -392 443 -307 l 293 -378 q 367 -315 335 -349 q 399 -239 399 -282 q 395 -226 399 -229 q 390 -222 392 -224 q 350 -233 368 -233 z "},"ß":{"ha":1126,"x_min":44,"x_max":1046,"o":"m 174 507 q 233 751 174 640 q 403 928 292 863 q 661 994 514 994 q 798 969 733 994 q 903 894 863 944 q 943 771 943 843 q 872 605 943 676 q 667 513 800 533 q 939 445 832 513 q 1046 249 1046 378 q 957 47 1046 115 q 729 -22 868 -22 q 558 35 625 -22 q 461 186 492 93 l 496 197 q 582 57 528 101 q 704 13 636 13 q 807 69 768 13 q 846 238 846 125 q 803 417 846 346 q 647 488 761 488 l 571 488 l 571 515 q 765 621 715 550 q 814 779 814 692 q 772 919 814 872 q 658 967 729 967 q 513 928 578 967 q 410 810 449 890 q 371 613 371 731 l 371 0 l 174 0 l 174 507 m 44 28 l 500 28 l 500 0 l 44 0 l 44 28 z "},"t":{"ha":583,"x_min":14,"x_max":571,"o":"m 111 875 l 308 875 l 308 171 q 334 59 308 99 q 413 19 360 19 q 486 52 453 19 q 540 142 519 85 l 571 132 q 485 15 538 51 q 358 -22 433 -22 q 180 44 249 -22 q 111 232 111 110 l 111 875 m 14 694 l 538 694 l 538 667 l 14 667 l 14 694 z "},"ť":{"ha":583,"x_min":14,"x_max":571,"o":"m 111 875 l 308 875 l 308 171 q 334 59 308 99 q 413 19 360 19 q 486 52 453 19 q 540 142 519 85 l 571 132 q 485 15 538 51 q 358 -22 433 -22 q 180 44 249 -22 q 111 232 111 110 l 111 875 m 14 694 l 538 694 l 538 667 l 14 667 l 14 694 m 468 893 q 419 913 439 893 q 400 961 400 932 q 422 1009 400 989 q 472 1029 443 1029 q 537 1003 513 1029 q 561 932 561 978 q 418 735 561 817 l 410 747 q 517 886 517 818 q 513 900 517 897 q 507 903 508 903 q 468 893 488 893 z "},"ţ":{"ha":583,"x_min":14,"x_max":571,"o":"m 111 875 l 308 875 l 308 171 q 334 59 308 99 q 413 19 360 19 q 486 52 453 19 q 540 142 519 85 l 571 132 q 485 15 538 51 q 358 -22 433 -22 q 180 44 249 -22 q 111 232 111 110 l 111 875 m 14 694 l 538 694 l 538 667 l 14 667 l 14 694 m 250 -99 q 318 -79 279 -79 q 390 -103 356 -79 q 425 -182 425 -128 q 392 -266 425 -232 q 297 -300 358 -300 q 163 -242 221 -300 l 182 -217 q 268 -261 228 -261 q 317 -240 299 -261 q 335 -174 335 -218 q 319 -128 335 -143 q 282 -114 303 -114 q 224 -143 249 -114 l 199 -128 l 274 0 l 307 0 l 250 -99 z "},"ț":{"ha":583,"x_min":14,"x_max":571,"o":"m 111 875 l 308 875 l 308 171 q 334 59 308 99 q 413 19 360 19 q 486 52 453 19 q 540 142 519 85 l 571 132 q 485 15 538 51 q 358 -22 433 -22 q 180 44 249 -22 q 111 232 111 110 l 111 875 m 14 694 l 538 694 l 538 667 l 14 667 l 14 694 m 279 -233 q 231 -213 251 -233 q 211 -164 211 -193 q 233 -116 211 -136 q 285 -96 256 -96 q 349 -122 325 -96 q 372 -193 372 -147 q 231 -392 372 -307 l 222 -378 q 296 -315 264 -349 q 328 -239 328 -282 q 324 -226 328 -229 q 319 -222 321 -224 q 279 -233 297 -233 z "},"u":{"ha":929,"x_min":39,"x_max":889,"o":"m 792 0 l 594 0 l 594 694 l 792 694 l 792 0 m 811 667 l 497 667 l 497 694 l 811 694 l 811 667 m 889 0 l 633 0 l 633 28 l 889 28 l 889 0 m 333 149 q 349 60 333 90 q 403 31 365 31 q 484 86 439 31 q 562 216 529 142 q 594 340 594 290 l 594 221 q 342 -22 494 -22 q 191 38 246 -22 q 136 211 136 99 l 136 694 l 333 694 l 333 149 m 353 667 l 39 667 l 39 694 l 353 694 l 353 667 z "},"ú":{"ha":929,"x_min":39,"x_max":889,"o":"m 792 0 l 594 0 l 594 694 l 792 694 l 792 0 m 811 667 l 497 667 l 497 694 l 811 694 l 811 667 m 889 0 l 633 0 l 633 28 l 889 28 l 889 0 m 333 149 q 349 60 333 90 q 403 31 365 31 q 484 86 439 31 q 562 216 529 142 q 594 340 594 290 l 594 221 q 342 -22 494 -22 q 191 38 246 -22 q 136 211 136 99 l 136 694 l 333 694 l 333 149 m 353 667 l 39 667 l 39 694 l 353 694 l 353 667 m 388 767 l 368 767 l 467 965 q 533 1026 499 1026 q 565 1015 553 1026 q 576 983 576 1003 q 569 963 576 974 q 554 943 563 951 l 388 767 z "},"ŭ":{"ha":929,"x_min":39,"x_max":889,"o":"m 792 0 l 594 0 l 594 694 l 792 694 l 792 0 m 811 667 l 497 667 l 497 694 l 811 694 l 811 667 m 889 0 l 633 0 l 633 28 l 889 28 l 889 0 m 333 149 q 349 60 333 90 q 403 31 365 31 q 484 86 439 31 q 562 216 529 142 q 594 340 594 290 l 594 221 q 342 -22 494 -22 q 191 38 246 -22 q 136 211 136 99 l 136 694 l 333 694 l 333 149 m 353 667 l 39 667 l 39 694 l 353 694 l 353 667 m 660 988 q 608 829 660 892 q 465 767 556 767 q 323 829 375 767 q 271 988 271 892 l 307 988 q 342 891 307 933 q 464 849 376 849 q 588 891 551 849 q 624 988 624 933 l 660 988 z "},"ǔ":{"ha":929,"x_min":39,"x_max":889,"o":"m 792 0 l 594 0 l 594 694 l 792 694 l 792 0 m 811 667 l 497 667 l 497 694 l 811 694 l 811 667 m 889 0 l 633 0 l 633 28 l 889 28 l 889 0 m 333 149 q 349 60 333 90 q 403 31 365 31 q 484 86 439 31 q 562 216 529 142 q 594 340 594 290 l 594 221 q 342 -22 494 -22 q 191 38 246 -22 q 136 211 136 99 l 136 694 l 333 694 l 333 149 m 353 667 l 39 667 l 39 694 l 353 694 l 353 667 m 511 767 l 419 767 l 264 1008 l 306 1008 l 465 850 l 625 1008 l 667 1008 l 511 767 z "},"û":{"ha":929,"x_min":39,"x_max":889,"o":"m 792 0 l 594 0 l 594 694 l 792 694 l 792 0 m 811 667 l 497 667 l 497 694 l 811 694 l 811 667 m 889 0 l 633 0 l 633 28 l 889 28 l 889 0 m 333 149 q 349 60 333 90 q 403 31 365 31 q 484 86 439 31 q 562 216 529 142 q 594 340 594 290 l 594 221 q 342 -22 494 -22 q 191 38 246 -22 q 136 211 136 99 l 136 694 l 333 694 l 333 149 m 353 667 l 39 667 l 39 694 l 353 694 l 353 667 m 419 1008 l 511 1008 l 667 767 l 625 767 l 465 925 l 306 767 l 264 767 l 419 1008 z "},"ü":{"ha":929,"x_min":39,"x_max":889,"o":"m 792 0 l 594 0 l 594 694 l 792 694 l 792 0 m 811 667 l 497 667 l 497 694 l 811 694 l 811 667 m 889 0 l 633 0 l 633 28 l 889 28 l 889 0 m 333 149 q 349 60 333 90 q 403 31 365 31 q 484 86 439 31 q 562 216 529 142 q 594 340 594 290 l 594 221 q 342 -22 494 -22 q 191 38 246 -22 q 136 211 136 99 l 136 694 l 333 694 l 333 149 m 353 667 l 39 667 l 39 694 l 353 694 l 353 667 m 329 815 q 272 839 294 815 q 249 897 249 863 q 272 953 249 931 q 329 976 296 976 q 385 953 361 976 q 408 897 408 929 q 385 839 408 863 q 329 815 361 815 m 601 815 q 544 839 568 815 q 521 897 521 863 q 544 953 521 929 q 601 976 568 976 q 657 953 633 976 q 681 897 681 929 q 657 839 681 863 q 601 815 633 815 z "},"ǘ":{"ha":929,"x_min":39,"x_max":889,"o":"m 792 0 l 594 0 l 594 694 l 792 694 l 792 0 m 811 667 l 497 667 l 497 694 l 811 694 l 811 667 m 889 0 l 633 0 l 633 28 l 889 28 l 889 0 m 333 149 q 349 60 333 90 q 403 31 365 31 q 484 86 439 31 q 562 216 529 142 q 594 340 594 290 l 594 221 q 342 -22 494 -22 q 191 38 246 -22 q 136 211 136 99 l 136 694 l 333 694 l 333 149 m 353 667 l 39 667 l 39 694 l 353 694 l 353 667 m 329 815 q 272 839 294 815 q 249 897 249 863 q 272 953 249 931 q 329 976 296 976 q 385 953 361 976 q 408 897 408 929 q 385 839 408 863 q 329 815 361 815 m 601 815 q 544 839 568 815 q 521 897 521 863 q 544 953 521 929 q 601 976 568 976 q 657 953 633 976 q 681 897 681 929 q 657 839 681 863 q 601 815 633 815 m 388 999 l 368 999 l 467 1197 q 533 1258 499 1258 q 565 1247 553 1258 q 576 1215 576 1235 q 569 1194 576 1206 q 554 1175 563 1183 l 388 999 z "},"ǚ":{"ha":929,"x_min":39,"x_max":889,"o":"m 792 0 l 594 0 l 594 694 l 792 694 l 792 0 m 811 667 l 497 667 l 497 694 l 811 694 l 811 667 m 889 0 l 633 0 l 633 28 l 889 28 l 889 0 m 333 149 q 349 60 333 90 q 403 31 365 31 q 484 86 439 31 q 562 216 529 142 q 594 340 594 290 l 594 221 q 342 -22 494 -22 q 191 38 246 -22 q 136 211 136 99 l 136 694 l 333 694 l 333 149 m 353 667 l 39 667 l 39 694 l 353 694 l 353 667 m 329 815 q 272 839 294 815 q 249 897 249 863 q 272 953 249 931 q 329 976 296 976 q 385 953 361 976 q 408 897 408 929 q 385 839 408 863 q 329 815 361 815 m 601 815 q 544 839 568 815 q 521 897 521 863 q 544 953 521 929 q 601 976 568 976 q 657 953 633 976 q 681 897 681 929 q 657 839 681 863 q 601 815 633 815 m 511 999 l 419 999 l 264 1240 l 306 1240 l 465 1082 l 625 1240 l 667 1240 l 511 999 z "},"ǜ":{"ha":929,"x_min":39,"x_max":889,"o":"m 792 0 l 594 0 l 594 694 l 792 694 l 792 0 m 811 667 l 497 667 l 497 694 l 811 694 l 811 667 m 889 0 l 633 0 l 633 28 l 889 28 l 889 0 m 333 149 q 349 60 333 90 q 403 31 365 31 q 484 86 439 31 q 562 216 529 142 q 594 340 594 290 l 594 221 q 342 -22 494 -22 q 191 38 246 -22 q 136 211 136 99 l 136 694 l 333 694 l 333 149 m 353 667 l 39 667 l 39 694 l 353 694 l 353 667 m 329 815 q 272 839 294 815 q 249 897 249 863 q 272 953 249 931 q 329 976 296 976 q 385 953 361 976 q 408 897 408 929 q 385 839 408 863 q 329 815 361 815 m 601 815 q 544 839 568 815 q 521 897 521 863 q 544 953 521 929 q 601 976 568 976 q 657 953 633 976 q 681 897 681 929 q 657 839 681 863 q 601 815 633 815 m 375 1175 q 354 1215 354 1199 q 366 1247 354 1235 q 397 1258 378 1258 q 433 1241 418 1258 q 463 1197 449 1224 l 567 999 l 547 999 l 375 1175 z "},"ǖ":{"ha":929,"x_min":39,"x_max":889,"o":"m 792 0 l 594 0 l 594 694 l 792 694 l 792 0 m 811 667 l 497 667 l 497 694 l 811 694 l 811 667 m 889 0 l 633 0 l 633 28 l 889 28 l 889 0 m 333 149 q 349 60 333 90 q 403 31 365 31 q 484 86 439 31 q 562 216 529 142 q 594 340 594 290 l 594 221 q 342 -22 494 -22 q 191 38 246 -22 q 136 211 136 99 l 136 694 l 333 694 l 333 149 m 353 667 l 39 667 l 39 694 l 353 694 l 353 667 m 329 815 q 272 839 294 815 q 249 897 249 863 q 272 953 249 931 q 329 976 296 976 q 385 953 361 976 q 408 897 408 929 q 385 839 408 863 q 329 815 361 815 m 601 815 q 544 839 568 815 q 521 897 521 863 q 544 953 521 929 q 601 976 568 976 q 657 953 633 976 q 681 897 681 929 q 657 839 681 863 q 601 815 633 815 m 275 1101 l 654 1101 l 654 1049 l 275 1049 l 275 1101 z "},"ụ":{"ha":929,"x_min":39,"x_max":889,"o":"m 792 0 l 594 0 l 594 694 l 792 694 l 792 0 m 811 667 l 497 667 l 497 694 l 811 694 l 811 667 m 889 0 l 633 0 l 633 28 l 889 28 l 889 0 m 333 149 q 349 60 333 90 q 403 31 365 31 q 484 86 439 31 q 562 216 529 142 q 594 340 594 290 l 594 221 q 342 -22 494 -22 q 191 38 246 -22 q 136 211 136 99 l 136 694 l 333 694 l 333 149 m 353 667 l 39 667 l 39 694 l 353 694 l 353 667 m 465 -300 q 408 -276 432 -300 q 385 -219 385 -253 q 408 -163 385 -186 q 465 -140 432 -140 q 521 -163 497 -140 q 544 -219 544 -186 q 521 -276 544 -253 q 465 -300 497 -300 z "},"ù":{"ha":929,"x_min":39,"x_max":889,"o":"m 792 0 l 594 0 l 594 694 l 792 694 l 792 0 m 811 667 l 497 667 l 497 694 l 811 694 l 811 667 m 889 0 l 633 0 l 633 28 l 889 28 l 889 0 m 333 149 q 349 60 333 90 q 403 31 365 31 q 484 86 439 31 q 562 216 529 142 q 594 340 594 290 l 594 221 q 342 -22 494 -22 q 191 38 246 -22 q 136 211 136 99 l 136 694 l 333 694 l 333 149 m 353 667 l 39 667 l 39 694 l 353 694 l 353 667 m 375 943 q 354 983 354 967 q 366 1015 354 1003 q 397 1026 378 1026 q 433 1009 418 1026 q 463 965 449 992 l 567 767 l 547 767 l 375 943 z "},"ủ":{"ha":929,"x_min":39,"x_max":889,"o":"m 792 0 l 594 0 l 594 694 l 792 694 l 792 0 m 811 667 l 497 667 l 497 694 l 811 694 l 811 667 m 889 0 l 633 0 l 633 28 l 889 28 l 889 0 m 333 149 q 349 60 333 90 q 403 31 365 31 q 484 86 439 31 q 562 216 529 142 q 594 340 594 290 l 594 221 q 342 -22 494 -22 q 191 38 246 -22 q 136 211 136 99 l 136 694 l 333 694 l 333 149 m 353 667 l 39 667 l 39 694 l 353 694 l 353 667 m 292 988 q 393 1017 343 1017 q 459 1001 429 1017 q 507 953 489 985 q 525 886 525 921 q 499 806 525 844 q 432 744 474 768 l 419 763 q 453 797 439 775 q 468 847 468 818 q 447 915 468 879 q 350 982 411 982 q 303 969 322 982 l 292 988 z "},"ű":{"ha":929,"x_min":39,"x_max":889,"o":"m 792 0 l 594 0 l 594 694 l 792 694 l 792 0 m 811 667 l 497 667 l 497 694 l 811 694 l 811 667 m 889 0 l 633 0 l 633 28 l 889 28 l 889 0 m 333 149 q 349 60 333 90 q 403 31 365 31 q 484 86 439 31 q 562 216 529 142 q 594 340 594 290 l 594 221 q 342 -22 494 -22 q 191 38 246 -22 q 136 211 136 99 l 136 694 l 333 694 l 333 149 m 353 667 l 39 667 l 39 694 l 353 694 l 353 667 m 371 767 l 351 767 l 450 965 q 517 1026 482 1026 q 548 1015 536 1026 q 560 983 560 1003 q 553 963 560 974 q 538 943 546 951 l 371 767 m 521 767 l 501 767 l 600 965 q 629 1009 614 992 q 665 1026 644 1026 q 697 1015 685 1026 q 710 983 710 1003 q 703 963 710 974 q 688 943 696 951 l 521 767 z "},"ū":{"ha":929,"x_min":39,"x_max":889,"o":"m 792 0 l 594 0 l 594 694 l 792 694 l 792 0 m 811 667 l 497 667 l 497 694 l 811 694 l 811 667 m 889 0 l 633 0 l 633 28 l 889 28 l 889 0 m 333 149 q 349 60 333 90 q 403 31 365 31 q 484 86 439 31 q 562 216 529 142 q 594 340 594 290 l 594 221 q 342 -22 494 -22 q 191 38 246 -22 q 136 211 136 99 l 136 694 l 333 694 l 333 149 m 353 667 l 39 667 l 39 694 l 353 694 l 353 667 m 275 869 l 654 869 l 654 817 l 275 817 l 275 869 z "},"ų":{"ha":929,"x_min":39,"x_max":889,"o":"m 792 0 l 594 0 l 594 694 l 792 694 l 792 0 m 811 667 l 497 667 l 497 694 l 811 694 l 811 667 m 889 0 l 633 0 l 633 28 l 889 28 l 889 0 m 333 149 q 349 60 333 90 q 403 31 365 31 q 484 86 439 31 q 562 216 529 142 q 594 340 594 290 l 594 221 q 342 -22 494 -22 q 191 38 246 -22 q 136 211 136 99 l 136 694 l 333 694 l 333 149 m 353 667 l 39 667 l 39 694 l 353 694 l 353 667 m 831 14 q 686 -147 686 -61 q 706 -188 686 -169 q 760 -207 725 -207 q 815 -196 782 -207 l 838 -225 q 777 -266 817 -246 q 689 -286 738 -286 q 601 -258 632 -286 q 569 -187 569 -229 q 619 -90 569 -143 q 778 14 669 -36 l 831 14 z "},"ů":{"ha":929,"x_min":39,"x_max":889,"o":"m 792 0 l 594 0 l 594 694 l 792 694 l 792 0 m 811 667 l 497 667 l 497 694 l 811 694 l 811 667 m 889 0 l 633 0 l 633 28 l 889 28 l 889 0 m 333 149 q 349 60 333 90 q 403 31 365 31 q 484 86 439 31 q 562 216 529 142 q 594 340 594 290 l 594 221 q 342 -22 494 -22 q 191 38 246 -22 q 136 211 136 99 l 136 694 l 333 694 l 333 149 m 353 667 l 39 667 l 39 694 l 353 694 l 353 667 m 450 756 q 344 792 383 756 q 306 885 306 829 q 344 976 306 940 q 450 1013 383 1013 q 553 976 515 1013 q 592 885 592 940 q 553 792 592 829 q 450 756 515 756 m 450 775 q 503 806 483 775 q 522 885 522 836 q 503 963 522 932 q 450 993 483 993 q 395 963 415 993 q 375 885 375 932 q 394 806 375 836 q 450 775 414 775 z "},"ũ":{"ha":929,"x_min":39,"x_max":889,"o":"m 792 0 l 594 0 l 594 694 l 792 694 l 792 0 m 811 667 l 497 667 l 497 694 l 811 694 l 811 667 m 889 0 l 633 0 l 633 28 l 889 28 l 889 0 m 333 149 q 349 60 333 90 q 403 31 365 31 q 484 86 439 31 q 562 216 529 142 q 594 340 594 290 l 594 221 q 342 -22 494 -22 q 191 38 246 -22 q 136 211 136 99 l 136 694 l 333 694 l 333 149 m 353 667 l 39 667 l 39 694 l 353 694 l 353 667 m 363 836 q 301 817 321 836 q 279 767 281 799 l 244 767 q 368 921 244 921 q 415 912 393 921 q 474 885 438 903 q 530 858 506 867 q 578 849 554 849 q 631 868 613 849 q 651 919 650 888 l 686 919 q 659 806 686 846 q 569 767 632 767 q 524 774 544 767 q 465 801 503 782 q 410 827 433 818 q 363 836 388 836 z "},"v":{"ha":783,"x_min":-21,"x_max":783,"o":"m 288 694 l 501 233 l 385 0 l 76 694 l 288 694 m 385 694 l 385 667 l -21 667 l -21 694 l 385 694 m 426 0 l 385 0 l 644 694 l 686 694 l 426 0 m 783 667 l 547 667 l 547 694 l 783 694 l 783 667 z "},"w":{"ha":1211,"x_min":-21,"x_max":1211,"o":"m 288 694 l 463 246 l 351 0 l 76 694 l 288 694 m 385 694 l 385 667 l -21 667 l -21 694 l 385 694 m 393 0 l 351 0 l 613 665 l 654 665 l 393 0 m 738 694 l 913 246 l 801 0 l 526 694 l 738 694 m 835 694 l 835 667 l 429 667 l 429 694 l 835 694 m 843 0 l 801 0 l 1072 694 l 1114 694 l 843 0 m 1211 667 l 975 667 l 975 694 l 1211 694 l 1211 667 z "},"ẃ":{"ha":1211,"x_min":-21,"x_max":1211,"o":"m 288 694 l 463 246 l 351 0 l 76 694 l 288 694 m 385 694 l 385 667 l -21 667 l -21 694 l 385 694 m 393 0 l 351 0 l 613 665 l 654 665 l 393 0 m 738 694 l 913 246 l 801 0 l 526 694 l 738 694 m 835 694 l 835 667 l 429 667 l 429 694 l 835 694 m 843 0 l 801 0 l 1072 694 l 1114 694 l 843 0 m 1211 667 l 975 667 l 975 694 l 1211 694 l 1211 667 m 529 767 l 510 767 l 608 965 q 675 1026 640 1026 q 706 1015 694 1026 q 718 983 718 1003 q 711 963 718 974 q 696 943 704 951 l 529 767 z "},"ŵ":{"ha":1211,"x_min":-21,"x_max":1211,"o":"m 288 694 l 463 246 l 351 0 l 76 694 l 288 694 m 385 694 l 385 667 l -21 667 l -21 694 l 385 694 m 393 0 l 351 0 l 613 665 l 654 665 l 393 0 m 738 694 l 913 246 l 801 0 l 526 694 l 738 694 m 835 694 l 835 667 l 429 667 l 429 694 l 835 694 m 843 0 l 801 0 l 1072 694 l 1114 694 l 843 0 m 1211 667 l 975 667 l 975 694 l 1211 694 l 1211 667 m 560 1008 l 651 1008 l 807 767 l 765 767 l 606 925 l 446 767 l 404 767 l 560 1008 z "}}}
